<?xml version="1.0" encoding="UTF-8"?><svg id="Layer_1" xmlns="http://www.w3.org/2000/svg" viewBox="0 0 29.57 29.57"><defs><style>.cls-1{fill:#f89621;}.cls-2{fill:#081a2b;}</style></defs><path class="cls-1" d="M6,14.79c0,4.84,3.94,8.79,8.79,8.79s8.79-3.94,8.79-8.79-3.94-8.79-8.79-8.79S6,9.94,6,14.79Z"/><path class="cls-2" d="M0,14.79c0,8.15,6.63,14.79,14.79,14.79s14.79-6.63,14.79-14.79S22.94,0,14.79,0,0,6.63,0,14.79Zm23.57,0c0,4.84-3.94,8.79-8.79,8.79s-8.79-3.94-8.79-8.79S9.94,6,14.79,6s8.79,3.94,8.79,8.79Z"/></svg>