<?xml version="1.0" encoding="utf-8"?>
<!-- Generator: Adobe Illustrator 26.5.0, SVG Export Plug-In . SVG Version: 6.00 Build 0)  -->
<svg version="1.1" id="Layer_1" xmlns="http://www.w3.org/2000/svg" xmlns:xlink="http://www.w3.org/1999/xlink" x="0px" y="0px"
	 viewBox="0 0 68.7 71.4" style="enable-background:new 0 0 68.7 71.4;" xml:space="preserve">
<style type="text/css">
	.st0{fill:#F89621;}
	.st1{fill:#081A2B;}
</style>
<path class="st0" d="M34.4,58.5c3.3-7,9.9-16.6,23-22.8c-13.1-6.1-19.8-15.7-23-22.8c-3.3,7.1-9.9,16.6-23,22.8
	C24.5,41.8,31.1,51.4,34.4,58.5z"/>
<path class="st1" d="M2.1,38.6c23,7.1,28.2,25,29.2,29.2v0.7c0,1.6,1.2,2.9,2.8,3c0.1,0,0.2,0,0.2,0c0,0,0.1,0,0.1,0
	c0.1,0,0.1,0,0.2,0c1.6-0.1,2.8-1.4,2.8-3v-0.7c0.9-4.2,6.2-22.1,29.2-29.2c1.3-0.4,2.1-1.5,2.1-2.9s-0.9-2.5-2.1-2.9
	c-23-7.1-28.2-25-29.2-29.2V3c0-1.6-1.2-2.9-2.8-3c-0.1,0-0.2,0-0.2,0c-0.1,0-0.2,0-0.3,0c-1.6,0.1-2.8,1.4-2.8,3v0.7
	c-0.9,4.2-6.2,22.1-29.2,29.2C0.8,33.2,0,34.4,0,35.7S0.8,38.2,2.1,38.6L2.1,38.6z M34.4,12.9c3.3,7.1,9.9,16.6,23,22.8
	c-13.1,6.1-19.8,15.7-23,22.8c-3.3-7-9.9-16.6-23-22.8C24.5,29.6,31.1,20,34.4,12.9z"/>
</svg>
