<?xml version="1.0" encoding="utf-8"?>
<!-- Generator: Adobe Illustrator 26.5.0, SVG Export Plug-In . SVG Version: 6.00 Build 0)  -->
<svg version="1.1" id="Layer_1" xmlns="http://www.w3.org/2000/svg" xmlns:xlink="http://www.w3.org/1999/xlink" x="0px" y="0px"
	 viewBox="0 0 22.5 22.5" style="enable-background:new 0 0 22.5 22.5;" xml:space="preserve">
<style type="text/css">
	.st0{fill:#F89621;}
</style>
<path id="Path_272" class="st0" d="M10.9,2c0.1-0.3,0.4-0.4,0.7-0.3C11.8,1.8,11.9,1.9,12,2c1.4,4.1,4.5,7.3,8.5,8.9
	c0.3,0.1,0.4,0.4,0.3,0.7c-0.1,0.1-0.2,0.3-0.3,0.3c-4.1,1.4-7.3,4.5-8.9,8.5c-0.1,0.3-0.4,0.4-0.7,0.3c-0.1-0.1-0.3-0.2-0.3-0.3
	C9.1,16.4,6,13.2,2,11.6c-0.3-0.1-0.4-0.4-0.3-0.7c0.1-0.1,0.2-0.3,0.3-0.3C6.1,9.1,9.4,6,10.9,2C10.9,2,10.9,2,10.9,2z"/>
<path id="Path_273" d="M2.6,12.1c4.5-1.6,8.1-5,9.9-9.5L9.4,1.4C8,5,5.1,7.7,1.5,9L2.6,12.1L2.6,12.1z M2.6,10.1
	c0.6,0.2,0.8,0.9,0.6,1.4c-0.1,0.3-0.4,0.5-0.7,0.6L1.5,9c-1.2,0.4-1.8,1.7-1.4,2.8c0.2,0.6,0.7,1.1,1.3,1.4L2.6,10.1L2.6,10.1
	L2.6,10.1z M12.1,20c-1.6-4.5-5-8.1-9.5-9.9l-1.2,3.1C5,14.6,7.7,17.4,8.9,21L12.1,20L12.1,20L12.1,20z M10,19.9
	c0.2-0.6,0.9-0.8,1.4-0.6c0.3,0.1,0.5,0.4,0.6,0.7L8.9,21c0.4,1.2,1.7,1.8,2.8,1.4c0.6-0.2,1.1-0.7,1.4-1.3L10,19.9L10,19.9L10,19.9
	z M19.9,10.4c-4.5,1.6-8.1,5-9.9,9.5l3.1,1.2c1.4-3.5,4.3-6.3,7.9-7.5L19.9,10.4L19.9,10.4z M19.9,12.5c-0.6-0.2-0.8-0.9-0.6-1.4
	c0.1-0.3,0.4-0.5,0.6-0.6l1.1,3.1c1.2-0.4,1.8-1.7,1.4-2.8c-0.2-0.6-0.7-1.1-1.3-1.4L19.9,12.5C19.9,12.5,19.9,12.5,19.9,12.5z
	 M10.4,2.6c1.6,4.5,5,8.1,9.5,9.9l1.2-3.1c-3.5-1.4-6.3-4.3-7.5-7.9L10.4,2.6L10.4,2.6L10.4,2.6z M13.6,1.5
	c-0.4-1.2-1.7-1.8-2.8-1.4c-0.6,0.2-1.1,0.7-1.4,1.3l3.1,1.2c-0.2,0.6-0.9,0.8-1.4,0.6c-0.3-0.1-0.5-0.4-0.6-0.7L13.6,1.5L13.6,1.5z
	"/>
</svg>
