<?xml version="1.0" encoding="UTF-8"?><svg id="Layer_1" xmlns="http://www.w3.org/2000/svg" viewBox="0 0 46.43 127.38"><defs><style>.cls-1{fill:#f8951d;}.cls-2{fill:#68a5d9;}.cls-3{fill:#f1573d;}.cls-4{fill:#fdce3d;}.cls-5{fill:#fff;}.cls-6{fill:#a3ddf1;}.cls-7{fill:#c0d5d5;}.cls-8{fill:#ca3a2e;}.cls-9{fill:#071a2b;}</style></defs><g id="Group_90"><path id="Path_287" class="cls-3" d="M21.54,88.99h.43s1.33,.02,1.33,.02l4.59,.05h0l2.59,.03h0l1.52,.02c.54-1.87,1.04-3.75,1.5-5.62l-20.31-.22c.42,1.88,.88,3.76,1.37,5.65l1.54,.02h0l5.42,.06h0Z"/><path id="Path_288" class="cls-1" d="M23.16,101.46c1.58-3.32,2-7.08,1.2-10.68l-2.16-.02c-.89,3.57-.55,7.34,.96,10.7Z"/><path id="Path_289" class="cls-1" d="M29.08,90.83c.77,2.78,1.19,5.65,1.24,8.53,.22,7.26-2.14,14.36-6.67,20.04-.3,.38-.85,.44-1.23,.14-.03-.02-.05-.05-.08-.07-.02-.02-.04-.05-.07-.08-4.4-5.78-6.61-12.93-6.23-20.18,.12-2.88,.6-5.74,1.43-8.5h-.8c-1.44,3.53-2.26,7.29-2.44,11.1-.45,8.66,2.69,17.13,8.67,23.42,6.12-6.16,9.43-14.55,9.17-23.23-.09-3.82-.84-7.59-2.2-11.16h-.8Z"/><path id="Path_290" class="cls-8" d="M7.93,62.53c-1.5,.71-4.74,2.95-5.84,9.24l-.32,29.02,11.1-11.4c-2.27-8.83-3.92-17.8-4.94-26.86Z"/><path id="Path_291" class="cls-3" d="M23.61,59.67c5.73,.06,10.43-4.54,10.5-10.27,.06-5.73-4.54-10.43-10.27-10.5-5.73-.06-10.43,4.54-10.5,10.27-.06,5.73,4.54,10.43,10.27,10.5Zm.21-19.58c2.44,.02,4.77,1.02,6.47,2.77h0c3.55,3.64,3.48,9.46-.16,13.01-3.63,3.55-9.46,3.48-13-.16-3.55-3.63-3.48-9.46,.16-13,1.74-1.7,4.09-2.64,6.52-2.62h0Z"/><path id="Path_292" class="cls-3" d="M44.36,101.25l.32-29.02c-.92-6.06-3.93-8.44-5.47-9.28-1.23,9.05-3.09,18.01-5.56,26.8l10.71,11.5Z"/><path id="Path_293" class="cls-5" d="M12.81,81.51l21.12,.23c3.32-14.43,5.22-29.15,5.66-43.95,.03-2.55-.17-5.09-.6-7.6-3.51,1.33-15.3,4.9-30.12-.39-.49,2.52-.75,5.08-.78,7.65,.12,14.81,1.7,29.57,4.71,44.06Zm11.04-44.36c6.7,.08,12.07,5.57,12,12.27-.08,6.7-5.57,12.07-12.27,12-6.7-.08-12.07-5.56-12-12.26,.08-6.7,5.57-12.07,12.27-12h0Z"/><path id="Path_294" class="cls-2" d="M23.64,56.73c4.11,.04,7.48-3.25,7.52-7.36,.02-1.97-.74-3.87-2.12-5.28h0c-2.87-2.94-7.58-2.99-10.52-.12-2.94,2.87-2.99,7.58-.11,10.52,1.38,1.41,3.26,2.21,5.24,2.24Z"/><path id="Path_295" class="cls-3" d="M38.66,28.42c-2.95-14.1-12.05-23.95-14.43-26.34-2.43,2.33-11.72,11.98-14.99,25.97,9.46,3.57,19.87,3.7,29.42,.36Z"/><path id="Path_296" class="cls-4" d="M19.32,90.72c-.91,2.77-4.36,15.3,3.68,26.67,8.27-11.2,5.1-23.8,4.25-26.59h-1.08c.94,4.42,.12,9.05-2.29,12.89-.27,.4-.81,.51-1.22,.24-.05-.03-.1-.07-.14-.12-.04-.04-.08-.09-.11-.14-2.33-3.89-3.05-8.54-2.01-12.95h-1.08Z"/><path id="Path_297" class="cls-8" d="M9.24,28.06c2.2,.8,4.46,1.43,6.76,1.89C19.1,11.9,24.23,2.08,24.23,2.08c-2.43,2.34-11.72,11.98-14.99,25.97Z"/><path id="Path_298" class="cls-7" d="M12.81,81.51l2.34,.03c-1.05-8.43-1.54-16.92-1.46-25.41-3.08-4.51-2.77-10.52,.78-14.68,.33-3.46,.76-6.71,1.25-9.75-2.32-.47-4.61-1.1-6.83-1.9-.49,2.52-.75,5.08-.78,7.65,.12,14.81,1.7,29.56,4.71,44.06Z"/><path id="Path_299" class="cls-8" d="M16.12,88.93h.08c-.3-1.91-.58-3.79-.82-5.64l-2.18-.02c.42,1.88,.88,3.76,1.37,5.65l1.55,.02Z"/><path id="Path_300" class="cls-6" d="M16.52,51.17c.76,2.9,3.19,5.06,6.16,5.49l8.07-9.8c-.36-1.04-.94-1.98-1.71-2.76h0c-.6-.62-1.31-1.13-2.09-1.51l-10.43,8.58Z"/><path id="Path_301" class="cls-9" d="M7.72,60.71c-1.59,.61-6.03,3-7.37,10.83,0,.05-.01,.09-.01,.14L0,102.97c0,.48,.38,.88,.86,.89,.24,0,.48-.09,.65-.27l12.57-12.92h.7c-1.34,3.52-2.12,7.23-2.3,10.98-.46,9.48,3.08,18.72,9.77,25.46h0c.34,.36,.89,.36,1.24,.03,0,0,0,0,.01-.01,6.83-6.59,10.57-15.75,10.32-25.24-.1-3.76-.79-7.48-2.06-11.02h.5s12.29,13.19,12.29,13.19v.02c.35,.35,.91,.35,1.26,.02,.17-.16,.26-.39,.26-.62l.34-31.28s0-.09,0-.14c-1.13-7.59-5.27-10.17-6.97-10.92,1.05-7.73,1.68-15.52,1.9-23.32,.13-11.57-4.36-21.17-8.16-27.18C30.85,6.82,28.04,3.33,24.83,.23c-.33-.3-.83-.3-1.17-.01-3.27,3.03-6.16,6.46-8.58,10.21-3.92,5.93-8.62,15.43-8.75,26.99,.04,7.78,.51,15.56,1.38,23.29Zm-5.63,11.06c1.1-6.29,4.34-8.53,5.84-9.24,1.03,9.06,2.68,18.03,4.95,26.86L1.78,100.79l.31-29.02Zm29.91,17.33l-1.52-.02h0l-2.59-.03h0l-4.59-.05h-1.33s-.43-.02-.43-.02h0l-5.42-.06h0l-1.55-.02c-.5-1.89-.95-3.77-1.37-5.65l20.31,.22c-.47,1.87-.97,3.74-1.5,5.61h0Zm-7.65,1.68c.81,3.59,.38,7.35-1.2,10.68-1.51-3.36-1.85-7.13-.96-10.7l2.16,.03Zm-3.96-.05c-1.04,4.41-.32,9.06,2.01,12.95,.03,.05,.07,.1,.11,.14,.34,.35,.89,.35,1.24,.02,.04-.04,.08-.09,.12-.14,2.41-3.84,3.23-8.47,2.29-12.91h1.08c.85,2.8,4.02,15.4-4.25,26.6-8.03-11.37-4.58-23.9-3.68-26.67h1.08Zm11.68,11.27c.26,8.67-3.06,17.07-9.18,23.23-5.98-6.29-9.11-14.75-8.67-23.42,.18-3.82,1-7.57,2.44-11.11h.8c-.83,2.77-1.31,5.63-1.43,8.51-.38,7.25,1.83,14.4,6.23,20.18,.02,.03,.04,.05,.07,.08,.34,.35,.89,.35,1.24,.01,.03-.02,.05-.05,.07-.08,4.52-5.68,6.88-12.79,6.67-20.04-.05-2.88-.47-5.75-1.24-8.53h.8c1.36,3.58,2.11,7.35,2.2,11.17h0Zm12.59-29.77l-.31,29.02-10.71-11.5c2.47-8.79,4.33-17.75,5.56-26.8,1.54,.84,4.55,3.21,5.47,9.28h0Zm-10.74,9.5l-21.12-.23c-3.01-14.5-4.59-29.26-4.71-44.07,.03-2.57,.29-5.13,.78-7.65,14.81,5.29,26.61,1.72,30.12,.39,.42,2.51,.62,5.05,.6,7.6-.44,14.8-2.34,29.53-5.67,43.96h0ZM24.24,2.08c2.38,2.39,11.48,12.24,14.43,26.34-9.54,3.33-19.96,3.21-29.42-.36C12.51,14.06,21.8,4.42,24.23,2.08h0Z"/><path id="Path_302" class="cls-9" d="M14.52,49.19c-.06,5.08,4.02,9.24,9.09,9.3s9.24-4.02,9.3-9.09c.03-2.44-.91-4.78-2.62-6.52h0c-3.55-3.64-9.37-3.7-13-.15-1.74,1.71-2.74,4.03-2.76,6.47h0Zm9.28-7.34c1.97,.02,3.86,.82,5.24,2.24h0c2.87,2.95,2.81,7.66-.13,10.53-2.94,2.87-7.65,2.81-10.52-.13-2.87-2.94-2.81-7.65,.13-10.52,1.41-1.38,3.31-2.14,5.28-2.12Z"/><path id="Path_303" class="cls-9" d="M23.85,37.15c-6.7-.07-12.2,5.3-12.27,12.01-.07,6.7,5.3,12.2,12.01,12.27,6.7,.07,12.2-5.3,12.27-12.01h0c.06-6.7-5.31-12.19-12.01-12.27Zm10.25,12.25c-.06,5.74-4.76,10.35-10.5,10.29-5.74-.06-10.35-4.76-10.3-10.5,.06-5.74,4.76-10.35,10.5-10.29,2.77,.03,5.41,1.15,7.34,3.13,1.92,1.97,2.98,4.61,2.96,7.36Z"/></g></svg>