<svg xmlns="http://www.w3.org/2000/svg" viewBox="0 0 600 600"><defs><style>
      .cls-1{fill:#e54f37;}
      .cls-2{fill:#5f4c9d;}
      .cls-3{fill:#f2b320;}
      .cls-4{fill:#fff;}
      .cls-5{fill:#0898cd;}
    </style></defs><g class="pillar pillar-1"><polygon class="cls-1" points="161.97 552.89 22.03 552.89 22.03 65.21 161.97 65.21 161.97 552.89 161.97 552.89"/><path class="cls-4" d="M68,167.93c-12.69,0-21.81-3-29.89-11.16l8.54-8.41c6.17,6.16,12.93,8.06,21.59,8.06,11,0,17.44-4.74,17.44-12.93,0-3.67-1.08-6.76-3.32-8.77s-4.28-2.85-9.26-3.56l-9.95-1.42c-6.89-1-12.34-3.33-16-6.76C43,119.06,41,113.73,41,106.84c0-14.7,10.68-24.77,28.24-24.77,11.14,0,19,2.84,26.19,9.59l-8.18,8.07C82,94.75,76,93.21,68.82,93.21c-9.95,0-15.4,5.69-15.4,13.16a10,10,0,0,0,3.2,7.82,18.7,18.7,0,0,0,9.48,3.92l9.61,1.43c7.82,1.18,12.22,3.08,15.78,6.28,4.62,4,6.87,10.08,6.87,17.32,0,15.53-12.68,24.79-30.36,24.79Z"/></g><g class="pillar pillar-2"><polygon class="cls-5" points="301.9 500.59 161.97 500.59 161.97 117.52 301.9 117.52 301.9 500.59 301.9 500.59"/><polygon class="cls-4" points="180.72 220.71 180.72 136.27 227.3 136.27 227.3 147.77 191.78 147.77 191.78 172.44 222.08 172.44 222.08 183.83 191.78 183.83 191.78 209.2 227.3 209.2 227.3 220.71 180.72 220.71 180.72 220.71"/></g><g class="pillar pillar-3"><polygon class="cls-2" points="441.82 448.28 301.9 448.28 301.9 169.81 441.82 169.81 441.82 448.28 441.82 448.28"/><path class="cls-4" d="M372.44,262.1c-6.39,6.75-14.35,9.6-23.24,9.6a30.6,30.6,0,0,1-22.18-9c-8.3-8.31-8.18-17.68-8.18-33.92s-.12-25.61,8.18-33.92a30.21,30.21,0,0,1,22.18-9c17.91,0,28.34,11.74,30.72,26.21H367c-2.13-9.26-8.3-14.71-17.79-14.71a17,17,0,0,0-12.46,5.22c-4.14,4.51-5.1,9.25-5.1,26.21s1,21.82,5.1,26.33a16.92,16.92,0,0,0,12.46,5.1A17.86,17.86,0,0,0,363,254.26c3.1-3.55,4.28-7.82,4.28-13.27v-4.75h-18V225.33H380v12.92c0,10.92-2,17.92-7.59,23.85Z"/></g><g class="pillar pillar-4"><polygon class="cls-3" points="581.75 552.89 441.82 552.89 441.82 65.21 581.75 65.21 581.75 552.89 581.75 552.89"/><path class="cls-4" d="M512,160.46c-5.32,5.34-13,7.95-21.8,7.95H460.59V84h29.65c8.76,0,16.48,2.61,21.8,8,9.14,9.13,8.55,21.46,8.55,33.67s.59,25.74-8.55,34.87Zm-8.76-59.3c-3.56-3.91-8.32-5.69-14.35-5.69H473.4v61.44h15.53c6,0,10.79-1.78,14.35-5.7,4.38-4.86,4.51-14,4.51-25.62s-.13-19.56-4.51-24.43Z"/></g></svg>