<?xml version="1.0" encoding="UTF-8"?><svg id="Layer_1" xmlns="http://www.w3.org/2000/svg" viewBox="0 0 22.54 22.53"><defs><style>.cls-1{fill:#fed50f;}</style></defs><path id="Path_272" class="cls-1" d="M10.94,2.02c.12-.29,.45-.43,.74-.32,.15,.06,.27,.19,.33,.34,1.4,4.07,4.5,7.32,8.5,8.9,.29,.12,.43,.44,.32,.74-.06,.15-.18,.27-.34,.33-4.07,1.4-7.32,4.5-8.91,8.5-.11,.29-.44,.43-.73,.32-.15-.06-.27-.19-.33-.34-1.4-4.07-4.5-7.32-8.5-8.9-.29-.12-.43-.44-.32-.74,.06-.15,.18-.27,.34-.33,4.07-1.4,7.32-4.5,8.9-8.5h0Z"/><path id="Path_273" d="M2.58,12.1c4.53-1.55,8.15-5.01,9.91-9.46l-3.09-1.23c-1.41,3.55-4.29,6.3-7.9,7.54l1.08,3.14Zm.05-2.05c.56,.22,.84,.85,.62,1.42-.12,.3-.36,.53-.67,.64l-1.08-3.14c-1.16,.4-1.78,1.67-1.38,2.83,.21,.62,.69,1.11,1.29,1.35l1.22-3.09h0Zm9.46,9.9c-1.55-4.52-5.01-8.14-9.46-9.9l-1.22,3.09c3.55,1.41,6.3,4.29,7.54,7.9l3.14-1.08h0Zm-2.05-.06c.22-.56,.85-.84,1.42-.62,.3,.12,.53,.36,.63,.66l-3.14,1.08c.4,1.16,1.67,1.78,2.83,1.39,.62-.21,1.11-.68,1.35-1.29l-3.09-1.23h0Zm9.9-9.47c-4.52,1.56-8.14,5.02-9.9,9.46l3.09,1.23c1.41-3.55,4.29-6.3,7.9-7.54l-1.09-3.14Zm-.04,2.05c-.56-.23-.83-.87-.61-1.43,.12-.29,.35-.52,.65-.62l1.09,3.14c1.16-.4,1.78-1.67,1.38-2.83-.21-.61-.68-1.11-1.29-1.35l-1.22,3.09h0ZM10.43,2.59c1.56,4.53,5.02,8.14,9.47,9.9l1.22-3.09c-3.55-1.41-6.3-4.29-7.54-7.9l-3.15,1.08h0Zm3.15-1.08c-.4-1.16-1.67-1.78-2.83-1.39-.62,.21-1.11,.68-1.35,1.29l3.09,1.23c-.23,.56-.87,.84-1.43,.61-.3-.12-.53-.36-.63-.66l3.15-1.08h0Z"/></svg>