<?xml version="1.0" encoding="UTF-8"?><svg id="Layer_1" xmlns="http://www.w3.org/2000/svg" xmlns:xlink="http://www.w3.org/1999/xlink" viewBox="0 0 97.49 111.81"><defs><style>.cls-1{fill:none;}.cls-2{clip-path:url(#clippath);}.cls-3{fill:#f8951d;}.cls-4{fill:#fdce3d;}.cls-5{fill:#071a2b;}.cls-6{clip-path:url(#clippath-1);}</style><clipPath id="clippath"><rect class="cls-1" width="29.57" height="29.57"/></clipPath><clipPath id="clippath-1"><rect class="cls-1" x="14.79" y="45.61" width="82.69" height="66.2"/></clipPath></defs><g id="Group_44"><g class="cls-2"><g id="Group_43"><path id="Path_169" class="cls-4" d="M14.79,6c-4.85,0-8.79,3.93-8.79,8.79,0,4.85,3.93,8.79,8.79,8.79,4.85,0,8.79-3.93,8.79-8.79,0-4.85-3.94-8.78-8.79-8.79"/><path id="Path_170" class="cls-5" d="M14.79,0C6.62,0,0,6.62,0,14.79c0,8.17,6.62,14.79,14.79,14.79,8.17,0,14.79-6.62,14.79-14.79C29.57,6.62,22.95,0,14.79,0m0,23.57c-4.85,0-8.79-3.93-8.79-8.79,0-4.85,3.93-8.79,8.79-8.79,4.85,0,8.78,3.93,8.79,8.79,0,4.85-3.94,8.78-8.79,8.79"/></g></g></g><g id="Group_41"><g class="cls-6"><g id="Group_11"><path id="Path_49" class="cls-4" d="M29.68,70.58l3.12,9.59s.04,.04,.07,.03c.01,0,.02-.01,.03-.02l5.72-8.31c.25-.36,.65-.57,1.08-.57h10.08s.05-.02,.05-.05c0-.01,0-.02-.01-.03l-6.14-8c-.26-.34-.34-.8-.21-1.21l3.11-9.59s0-.06-.03-.06c-.01,0-.02,0-.03,0l-9.51,3.36c-.41,.14-.86,.08-1.21-.18l-8.16-5.93s-.05-.01-.07,0c0,0-.01,.02-.01,.03l.26,10.08c.01,.43-.19,.84-.54,1.1l-8.16,5.93s-.03,.05-.01,.07c0,0,.02,.01,.03,.02l9.67,2.87c.42,.12,.74,.44,.88,.85"/><path id="Path_50" class="cls-3" d="M29.1,50.67l-1.46-1.06s-.05-.01-.07,0c0,0-.01,.02-.01,.03l.26,10.08c.01,.43-.19,.84-.54,1.1l-8.16,5.93s-.03,.05,0,.07c0,0,.02,.01,.03,.02l9.67,2.87c.42,.12,.74,.44,.88,.85l3.12,9.59s.04,.04,.06,.03c.01,0,.02-.01,.03-.02l5.72-8.31c.25-.36,.65-.57,1.08-.57h.07l-10.65-20.61s0-.01-.01-.02"/><path id="Path_51" class="cls-5" d="M15.73,68.6l11.64,3.45s.03,.02,.03,.03l3.76,11.54c.15,.48,.57,.83,1.06,.9,.06,0,.13,.01,.19,.01,.43,0,.84-.21,1.08-.57l6.88-10s.03-.02,.04-.02h12.05c.41,.01,.81-.16,1.09-.47,.4-.47,.42-1.16,.04-1.65l-7.39-9.63s-.01-.03,0-.05l3.74-11.56c.22-.69-.16-1.43-.85-1.66-.27-.09-.57-.08-.84,.01l-11.44,4.05s-.03,0-.05,0l-9.82-7.13c-.59-.43-1.41-.3-1.84,.29-.17,.23-.26,.52-.25,.81l.31,12.13s0,.03-.02,.04l-9.82,7.14c-.59,.43-.72,1.25-.29,1.84,.17,.23,.41,.4,.69,.49m11.55-7.76c.35-.26,.55-.67,.54-1.1l-.26-10.08s.02-.05,.05-.05c.01,0,.02,0,.03,0l8.16,5.93c.35,.25,.8,.32,1.21,.18l9.51-3.36s.06,0,.07,.03c0,0,0,.02,0,.03l-3.11,9.59c-.13,.41-.06,.86,.21,1.21l6.14,8s.01,.05,0,.07c0,0-.02,.01-.03,.01h-10.09c-.43,.01-.84,.22-1.08,.58l-5.72,8.31s-.05,.03-.07,.01c0,0-.02-.02-.02-.03l-3.12-9.59c-.13-.41-.46-.73-.88-.85l-9.66-2.87s-.04-.04-.04-.06c0-.01,.01-.02,.02-.03l8.16-5.93Z"/><path id="Path_52" class="cls-4" d="M85.56,89.42l.97-8.31-7.18,4.29c-.45,.27-1.01,.3-1.49,.08l-7.61-3.49,1.86,8.16c.12,.51-.03,1.05-.38,1.44l-5.67,6.16,8.33,.75c.52,.05,.99,.35,1.25,.81l4.1,7.29,3.29-7.69c.21-.48,.64-.83,1.15-.94l8.2-1.65-6.3-5.51c-.4-.35-.6-.87-.54-1.39"/><path id="Path_53" class="cls-3" d="M71.68,82.65l-1.44-.66,1.86,8.16c.12,.51-.03,1.05-.38,1.44l-5.67,6.16,8.33,.75c.52,.05,.99,.35,1.25,.81l4.1,7.29,3.29-7.69c.05-.12,.12-.24,.2-.35l-11.55-15.91Z"/><path id="Path_54" class="cls-5" d="M96.89,96.01l-8.06-7.05,1.24-10.69c.1-.88-.53-1.67-1.41-1.77-.35-.04-.7,.04-1,.21l-9.24,5.52-9.79-4.49c-.77-.35-1.68-.05-2.08,.69-.19,.36-.24,.77-.14,1.16l2.38,10.45-7.27,7.9c-.61,.63-.6,1.64,.03,2.25,.27,.26,.61,.42,.98,.45l10.72,.97,5.27,9.37c.27,.48,.77,.8,1.32,.83,.06,0,.13,0,.19,0,.6-.04,1.13-.42,1.37-.98l4.23-9.89,10.55-2.12c.83-.17,1.39-.95,1.27-1.79-.06-.4-.27-.76-.58-1.02m-12.71,1.96c-.52,.1-.95,.45-1.15,.94l-3.29,7.69-4.1-7.29c-.26-.46-.73-.76-1.25-.81l-8.34-.76,5.67-6.16c.36-.39,.5-.92,.38-1.44l-1.86-8.16,7.61,3.49c.48,.22,1.03,.19,1.49-.08l7.18-4.29-.97,8.31c-.06,.52,.14,1.04,.54,1.39l6.3,5.51-8.2,1.66Z"/></g></g></g></svg>