<?xml version="1.0" encoding="UTF-8"?><svg id="Layer_1" xmlns="http://www.w3.org/2000/svg" xmlns:xlink="http://www.w3.org/1999/xlink" viewBox="0 0 66.21 82.7"><defs><style>.cls-1{fill:none;}.cls-2{clip-path:url(#clippath);}.cls-3{fill:#f8951d;}.cls-4{fill:#fdce3d;}.cls-5{fill:#071a2b;}</style><clipPath id="clippath"><rect class="cls-1" x="0" y="0" width="66.2" height="82.69"/></clipPath></defs><g id="Group_42"><g class="cls-2"><g id="Group_11"><path id="Path_49" class="cls-4" d="M41.23,14.89l-9.59,3.12s-.04,.04-.03,.07c0,.01,.01,.02,.02,.03l8.31,5.72c.36,.25,.57,.65,.57,1.08v10.08s.02,.05,.05,.05c.01,0,.02,0,.03-.01l8-6.14c.34-.26,.8-.34,1.21-.21l9.59,3.11s.06,0,.06-.03c0-.01,0-.02,0-.03l-3.36-9.51c-.14-.41-.08-.86,.18-1.21l5.93-8.16s.01-.05,0-.07c0,0-.02-.01-.03-.01l-10.08,.26c-.43,.01-.84-.19-1.1-.54l-5.93-8.16s-.05-.03-.07-.01c0,0-.01,.02-.02,.03l-2.87,9.67c-.12,.42-.44,.74-.85,.88"/><path id="Path_50" class="cls-3" d="M61.14,14.31l1.06-1.46s.01-.05,0-.07c0,0-.02-.01-.03-.01l-10.08,.26c-.43,.01-.84-.19-1.1-.54l-5.93-8.16s-.05-.03-.07,0c0,0-.01,.02-.02,.03l-2.87,9.67c-.12,.42-.44,.74-.85,.88l-9.59,3.12s-.04,.04-.03,.06c0,.01,.01,.02,.02,.03l8.31,5.72c.36,.25,.57,.65,.57,1.08v.07l20.61-10.65s.01,0,.02-.01"/><path id="Path_51" class="cls-5" d="M43.21,.94l-3.45,11.64s-.02,.03-.03,.03l-11.54,3.76c-.48,.15-.83,.57-.9,1.06,0,.06-.01,.13-.01,.19,0,.43,.21,.84,.57,1.08l10,6.88s.02,.03,.02,.04v12.05c-.01,.41,.16,.81,.47,1.09,.47,.4,1.16,.42,1.65,.04l9.63-7.39s.03-.01,.05,0l11.56,3.74c.69,.22,1.43-.16,1.66-.85,.09-.27,.08-.57-.01-.84l-4.05-11.44s0-.03,0-.05l7.13-9.82c.43-.59,.3-1.41-.29-1.84-.23-.17-.52-.26-.81-.25l-12.13,.31s-.03,0-.04-.02L45.54,.54c-.43-.59-1.25-.72-1.84-.29-.23,.17-.4,.41-.49,.69m7.76,11.55c.26,.35,.67,.55,1.1,.54l10.08-.26s.05,.02,.05,.05c0,.01,0,.02,0,.03l-5.93,8.16c-.25,.35-.32,.8-.18,1.21l3.36,9.51s0,.06-.03,.07c0,0-.02,0-.03,0l-9.59-3.11c-.41-.13-.86-.06-1.21,.21l-8,6.14s-.05,.01-.07,0c0,0-.01-.02-.01-.03v-10.09c-.01-.43-.22-.84-.58-1.08l-8.31-5.72s-.03-.05-.01-.07c0,0,.02-.02,.03-.02l9.59-3.12c.41-.13,.73-.46,.85-.88l2.87-9.66s.04-.04,.06-.04c.01,0,.02,.01,.03,.02l5.93,8.16Z"/><path id="Path_52" class="cls-4" d="M22.39,70.77l8.31,.97-4.29-7.18c-.27-.45-.3-1.01-.08-1.49l3.49-7.61-8.16,1.86c-.51,.12-1.05-.03-1.44-.38l-6.16-5.67-.75,8.33c-.05,.52-.35,.99-.81,1.25l-7.29,4.1,7.69,3.29c.48,.21,.83,.64,.94,1.15l1.65,8.2,5.51-6.3c.35-.4,.87-.6,1.39-.54"/><path id="Path_53" class="cls-3" d="M29.16,56.9l.66-1.44-8.16,1.86c-.51,.12-1.05-.03-1.44-.38l-6.16-5.67-.75,8.33c-.05,.52-.35,.99-.81,1.25l-7.29,4.1,7.69,3.29c.12,.05,.24,.12,.35,.2l15.91-11.55Z"/><path id="Path_54" class="cls-5" d="M15.8,82.11l7.05-8.06,10.69,1.24c.88,.1,1.67-.53,1.77-1.41,.04-.35-.04-.7-.21-1l-5.52-9.24,4.49-9.79c.35-.77,.05-1.68-.69-2.08-.36-.19-.77-.24-1.16-.14l-10.45,2.38-7.9-7.27c-.63-.61-1.64-.6-2.25,.03-.26,.27-.42,.61-.45,.98l-.97,10.72L.83,63.75c-.48,.27-.8,.77-.83,1.32,0,.06,0,.13,0,.19,.04,.6,.42,1.13,.98,1.37l9.89,4.23,2.12,10.55c.17,.83,.95,1.39,1.79,1.27,.4-.06,.76-.27,1.02-.58m-1.96-12.71c-.1-.52-.45-.95-.94-1.15l-7.69-3.29,7.29-4.1c.46-.26,.76-.73,.81-1.25l.76-8.34,6.16,5.67c.39,.36,.92,.5,1.44,.38l8.16-1.86-3.49,7.61c-.22,.48-.19,1.03,.08,1.49l4.29,7.18-8.31-.97c-.52-.06-1.04,.14-1.39,.54l-5.51,6.3-1.66-8.2Z"/></g></g></g></svg>