<?xml version="1.0" encoding="UTF-8"?><svg id="Layer_1" xmlns="http://www.w3.org/2000/svg" xmlns:xlink="http://www.w3.org/1999/xlink" viewBox="0 0 20.44 20.44"><defs><style>.cls-1{fill:none;}.cls-2{clip-path:url(#clippath);}.cls-3{fill:#fdce3d;}.cls-4{fill:#071a2b;}</style><clipPath id="clippath"><rect class="cls-1" width="20.44" height="20.44"/></clipPath></defs><g id="Group_46"><g class="cls-2"><g id="Group_45"><path id="Path_171" class="cls-3" d="M10.22,4.15c-3.35,0-6.07,2.72-6.07,6.07s2.72,6.07,6.07,6.07,6.07-2.72,6.07-6.07h0c0-3.35-2.72-6.07-6.07-6.07"/><path id="Path_172" class="cls-4" d="M10.22,0C4.58,0,0,4.58,0,10.22s4.58,10.22,10.22,10.22,10.22-4.58,10.22-10.22C20.44,4.58,15.86,0,10.22,0m0,16.3c-3.35,0-6.07-2.72-6.07-6.08,0-3.35,2.72-6.07,6.08-6.07,3.35,0,6.07,2.72,6.07,6.07,0,3.36-2.72,6.08-6.08,6.08"/></g></g></g></svg>