<?xml version="1.0" encoding="utf-8"?>
<!-- Generator: Adobe Illustrator 26.5.0, SVG Export Plug-In . SVG Version: 6.00 Build 0)  -->
<svg version="1.1" id="Layer_1" xmlns="http://www.w3.org/2000/svg" xmlns:xlink="http://www.w3.org/1999/xlink" x="0px" y="0px"
	 viewBox="0 0 66.2 82.7" style="enable-background:new 0 0 66.2 82.7;" xml:space="preserve">
<style type="text/css">
	.st0{fill:#FDCE3D;}
	.st1{fill:#FB9501;}
	.st2{fill:#00182B;}
</style>
<g id="Group_86" transform="matrix(0.819, 0.574, -0.574, 0.819, -185.37, -357.464)">
	<path id="Path_282" class="st0" d="M401.8,227.9l0.5-4.1l-3.6,2.1c-0.2,0.1-0.5,0.1-0.7,0l-3.8-1.7l0.9,4.1c0.1,0.3,0,0.5-0.2,0.7
		l-2.8,3.1l4.1,0.4c0.3,0,0.5,0.2,0.6,0.4l2,3.6l1.6-3.8c0.1-0.2,0.3-0.4,0.6-0.5l4.1-0.8l-3.1-2.7
		C401.9,228.4,401.8,228.1,401.8,227.9"/>
	<path id="Path_283" class="st1" d="M394.9,224.5l-0.7-0.3l0.9,4.1c0.1,0.3,0,0.5-0.2,0.7l-2.8,3.1l4.1,0.4c0.3,0,0.5,0.2,0.6,0.4
		l2,3.6l1.6-3.8c0-0.1,0.1-0.1,0.1-0.2L394.9,224.5z"/>
	<path id="Path_284" class="st2" d="M407.4,231.1l-4-3.5l0.6-5.3c0.1-0.4-0.3-0.8-0.7-0.9c-0.2,0-0.4,0-0.5,0.1l-4.6,2.7l-4.9-2.2
		c-0.4-0.2-0.8,0-1,0.3c-0.1,0.2-0.1,0.4-0.1,0.6l1.2,5.2l-3.6,3.9c-0.3,0.3-0.3,0.8,0,1.1c0.1,0.1,0.3,0.2,0.5,0.2l5.3,0.5l2.6,4.7
		c0.1,0.2,0.4,0.4,0.7,0.4c0,0,0.1,0,0.1,0c0.3,0,0.6-0.2,0.7-0.5l2.1-4.9l5.2-1.1c0.4-0.1,0.7-0.5,0.6-0.9
		C407.7,231.4,407.6,231.3,407.4,231.1 M401.1,232.1c-0.3,0.1-0.5,0.2-0.6,0.5l-1.6,3.8l-2-3.6c-0.1-0.2-0.4-0.4-0.6-0.4l-4.1-0.4
		l2.8-3.1c0.2-0.2,0.2-0.5,0.2-0.7l-0.9-4.1l3.8,1.7c0.2,0.1,0.5,0.1,0.7,0l3.6-2.1l-0.5,4.1c0,0.3,0.1,0.5,0.3,0.7l3.1,2.7
		L401.1,232.1z"/>
</g>
<g id="Group_87" transform="matrix(0.819, 0.574, -0.574, 0.819, -141.314, -392.806)">
	<path id="Path_282-2" class="st0" d="M406,230.1l0.6-5.5l-4.8,2.9c-0.3,0.2-0.7,0.2-1,0.1l-5.1-2.3l1.2,5.4c0.1,0.3,0,0.7-0.3,1
		l-3.8,4.1l5.6,0.5c0.3,0,0.7,0.2,0.8,0.5l2.7,4.9l2.2-5.1c0.1-0.3,0.4-0.6,0.8-0.6l5.5-1.1l-4.2-3.7
		C406.1,230.7,405.9,230.4,406,230.1"/>
	<path id="Path_283-2" class="st1" d="M396.7,225.5l-1-0.4l1.2,5.4c0.1,0.3,0,0.7-0.3,1l-3.8,4.1l5.6,0.5c0.3,0,0.7,0.2,0.8,0.5
		l2.7,4.9l2.2-5.1c0-0.1,0.1-0.2,0.1-0.2L396.7,225.5z"/>
	<path id="Path_284-2" class="st2" d="M413.5,234.4l-5.4-4.7l0.8-7.1c0.1-0.6-0.4-1.1-0.9-1.2c-0.2,0-0.5,0-0.7,0.1l-6.2,3.7l-6.5-3
		c-0.5-0.2-1.1,0-1.4,0.5c-0.1,0.2-0.2,0.5-0.1,0.8l1.6,7l-4.8,5.3c-0.4,0.4-0.4,1.1,0,1.5c0.2,0.2,0.4,0.3,0.7,0.3l7.1,0.6l3.5,6.2
		c0.2,0.3,0.5,0.5,0.9,0.6c0,0,0.1,0,0.1,0c0.4,0,0.8-0.3,0.9-0.7l2.8-6.6l7-1.4c0.6-0.1,0.9-0.6,0.8-1.2
		C413.9,234.9,413.7,234.6,413.5,234.4 M405.1,235.8c-0.3,0.1-0.6,0.3-0.8,0.6l-2.2,5.1l-2.7-4.9c-0.2-0.3-0.5-0.5-0.8-0.5l-5.6-0.5
		l3.8-4.1c0.2-0.3,0.3-0.6,0.3-1l-1.2-5.4l5.1,2.3c0.3,0.1,0.7,0.1,1-0.1l4.8-2.9l-0.6,5.5c0,0.3,0.1,0.7,0.4,0.9l4.2,3.7
		L405.1,235.8z"/>
</g>
<g id="Group_88" transform="matrix(0.819, 0.574, -0.574, 0.819, -139.519, -352.332)">
	<path id="Path_282-3" class="st0" d="M396.8,225.2l0.3-2.4L395,224c-0.1,0.1-0.3,0.1-0.4,0l-2.2-1l0.5,2.4c0,0.1,0,0.3-0.1,0.4
		l-1.6,1.8l2.4,0.2c0.2,0,0.3,0.1,0.4,0.2l1.2,2.1l1-2.2c0.1-0.1,0.2-0.2,0.3-0.3l2.4-0.5l-1.8-1.6
		C396.8,225.5,396.8,225.3,396.8,225.2"/>
	<path id="Path_283-3" class="st1" d="M392.7,223.2l-0.4-0.2l0.5,2.4c0,0.1,0,0.3-0.1,0.4l-1.6,1.8l2.4,0.2c0.2,0,0.3,0.1,0.4,0.2
		l1.2,2.1l1-2.2c0,0,0-0.1,0.1-0.1L392.7,223.2z"/>
	<path id="Path_284-3" class="st2" d="M400.1,227.1l-2.3-2.1l0.4-3.1c0-0.3-0.2-0.5-0.4-0.5c-0.1,0-0.2,0-0.3,0.1l-2.7,1.6l-2.8-1.3
		c-0.2-0.1-0.5,0-0.6,0.2c-0.1,0.1-0.1,0.2,0,0.3l0.7,3l-2.1,2.3c-0.2,0.2-0.2,0.5,0,0.7c0.1,0.1,0.2,0.1,0.3,0.1l3.1,0.3l1.5,2.7
		c0.1,0.1,0.2,0.2,0.4,0.2c0,0,0,0,0.1,0c0.2,0,0.3-0.1,0.4-0.3l1.2-2.9l3.1-0.6c0.2,0,0.4-0.3,0.4-0.5
		C400.2,227.3,400.2,227.2,400.1,227.1 M396.4,227.7c-0.2,0-0.3,0.1-0.3,0.3l-1,2.2l-1.2-2.1c-0.1-0.1-0.2-0.2-0.4-0.2l-2.4-0.2
		l1.6-1.8c0.1-0.1,0.1-0.3,0.1-0.4l-0.5-2.4l2.2,1c0.1,0.1,0.3,0.1,0.4,0l2.1-1.2l-0.3,2.4c0,0.2,0,0.3,0.2,0.4l1.8,1.6L396.4,227.7
		z"/>
</g>
</svg>
