<?xml version="1.0" encoding="UTF-8"?><svg id="Layer_1" xmlns="http://www.w3.org/2000/svg" viewBox="0 0 67.01 68.05"><defs><style>.cls-1{fill:#e568a7;}.cls-2{fill:#081a2b;}</style></defs><path class="cls-1" d="M24.73,44.96c.91,0,1.78,.42,2.35,1.14l9.74,12.32,3.85-15.22c.24-.96,.94-1.73,1.87-2.08l14.72-5.46-13.29-8.37c-.84-.53-1.36-1.43-1.4-2.42l-.64-15.69-12.06,10.05c-.76,.63-1.78,.85-2.73,.58l-15.12-4.24,5.83,14.58c.37,.92,.26,1.96-.29,2.78l-8.7,13.07,15.67-1.04c.07,0,.13,0,.2,0Z"/><path class="cls-2" d="M.4,50.91c.57,.99,1.67,1.57,2.79,1.49l20.16-1.34,12.53,15.85c.58,.73,1.45,1.14,2.35,1.14,.21,0,.42-.02,.63-.07,1.12-.24,2-1.09,2.28-2.2l4.96-19.58,18.94-7.02c1.07-.4,1.82-1.37,1.94-2.5,.12-1.14-.42-2.24-1.38-2.85l-17.1-10.77-.82-20.19c-.05-1.14-.74-2.16-1.78-2.62-1.04-.46-2.26-.29-3.14,.44l-15.52,12.93L7.8,8.17c-1.1-.31-2.28,.03-3.04,.88-.76,.85-.98,2.06-.55,3.12l7.5,18.76L.5,47.74c-.63,.95-.67,2.18-.1,3.17Zm17.17-17.97c.55-.82,.66-1.86,.29-2.78l-5.83-14.58,15.12,4.24c.95,.27,1.97,.05,2.73-.58l12.06-10.05,.64,15.69c.04,.99,.56,1.89,1.4,2.42l13.29,8.37-14.72,5.46c-.93,.34-1.62,1.12-1.87,2.08l-3.85,15.22-9.74-12.32c-.57-.72-1.44-1.14-2.35-1.14-.06,0-.13,0-.2,0l-15.67,1.04,8.7-13.07Z"/></svg>