<?xml version="1.0" encoding="UTF-8"?><svg id="Layer_1" xmlns="http://www.w3.org/2000/svg" viewBox="0 0 67.49 56.75"><defs><style>.cls-1{fill:#f8951d;}.cls-2{fill:#f89521;}.cls-3{fill:#fdce3d;}.cls-4{fill:#071a2b;}</style></defs><g id="Group_84"><path id="Path_282" class="cls-3" d="M12.16,40.65l.48-4.13-3.57,2.13c-.22,.13-.5,.15-.74,.04l-3.78-1.73,.92,4.05c.06,.25-.01,.52-.19,.71l-2.82,3.06,4.14,.37c.26,.02,.49,.17,.62,.4l2.04,3.62,1.64-3.82c.1-.24,.32-.41,.57-.47l4.07-.82-3.13-2.74c-.2-.17-.3-.43-.27-.69"/><path id="Path_283" class="cls-1" d="M5.27,37.29l-.71-.33,.92,4.05c.06,.26-.01,.52-.19,.71l-2.81,3.06,4.14,.37c.26,.02,.49,.17,.62,.4l2.04,3.62,1.64-3.82c.03-.06,.06-.12,.1-.17l-5.74-7.9Z"/><path id="Path_284" class="cls-4" d="M17.79,43.92l-4.01-3.5,.62-5.31c.05-.44-.26-.83-.69-.88-.18-.02-.35,.02-.51,.11l-4.59,2.74-4.86-2.23c-.38-.17-.83-.02-1.03,.34-.09,.18-.12,.38-.07,.58l1.18,5.19L.22,44.88c-.3,.31-.3,.82,.02,1.12,.13,.13,.3,.2,.48,.22l5.33,.48,2.62,4.65c.13,.24,.38,.39,.65,.41,.03,0,.06,0,.09,0,.3-.02,.56-.21,.68-.49l2.1-4.91,5.24-1.06c.41-.08,.69-.47,.63-.89-.03-.2-.13-.38-.29-.5m-6.31,.97c-.26,.05-.47,.23-.57,.47l-1.63,3.82-2.04-3.62c-.13-.23-.36-.38-.62-.4l-4.14-.37,2.82-3.06c.18-.19,.25-.46,.19-.71l-.92-4.05,3.78,1.73c.24,.11,.51,.09,.74-.04l3.57-2.13-.48,4.13c-.03,.26,.07,.52,.27,.69l3.13,2.74-4.08,.82Z"/></g><g id="Group_85"><path id="Path_282-2" class="cls-3" d="M37.01,8.63l.64-5.54-4.79,2.86c-.3,.18-.67,.2-.99,.05l-5.07-2.33,1.24,5.44c.08,.34-.02,.7-.25,.96l-3.78,4.1,5.56,.5c.35,.03,.66,.23,.83,.54l2.74,4.86,2.19-5.13c.14-.32,.43-.56,.77-.62l5.47-1.1-4.2-3.67c-.26-.23-.4-.58-.36-.93"/><path id="Path_283-2" class="cls-1" d="M27.76,4.12l-.96-.44,1.24,5.44c.08,.34-.02,.7-.26,.96l-3.78,4.1,5.56,.5c.35,.03,.66,.23,.83,.54l2.74,4.86,2.19-5.13c.04-.08,.08-.16,.14-.23l-7.7-10.6Z"/><path id="Path_284-2" class="cls-4" d="M44.57,13.02l-5.38-4.7,.83-7.13c.07-.58-.35-1.11-.94-1.18-.23-.03-.47,.02-.67,.14l-6.16,3.68L25.73,.84c-.51-.23-1.12-.03-1.39,.46-.12,.24-.16,.51-.09,.77l1.59,6.97-4.85,5.27c-.41,.42-.4,1.09,.02,1.5,.18,.17,.41,.28,.66,.3l7.15,.64,3.51,6.25c.18,.32,.51,.53,.88,.55,.04,0,.08,0,.12,0,.4-.03,.76-.28,.91-.65l2.82-6.59,7.04-1.42c.55-.11,.92-.63,.85-1.19-.04-.27-.18-.51-.38-.68m-8.47,1.31c-.34,.07-.63,.3-.77,.62l-2.19,5.13-2.74-4.86c-.17-.31-.48-.51-.83-.54l-5.56-.5,3.78-4.1c.24-.26,.33-.62,.25-.96l-1.24-5.44,5.07,2.33c.32,.15,.69,.13,.99-.05l4.79-2.86-.64,5.54c-.04,.35,.09,.69,.36,.93l4.2,3.67-5.47,1.09Z"/></g><path id="Path_286" class="cls-2" d="M55.9,36.24c.12-.29,.45-.43,.74-.32,.15,.06,.27,.19,.33,.34,1.4,4.07,4.5,7.32,8.5,8.9,.29,.12,.43,.44,.32,.74-.06,.15-.18,.27-.34,.33-4.07,1.4-7.32,4.5-8.91,8.5-.11,.29-.44,.43-.73,.32-.15-.06-.27-.19-.33-.34-1.4-4.07-4.5-7.32-8.5-8.9-.29-.12-.43-.44-.32-.74,.06-.15,.18-.27,.34-.33,4.07-1.4,7.32-4.5,8.9-8.5h0Z"/><path id="Path_285" d="M47.54,46.32c4.53-1.55,8.15-5.01,9.91-9.46l-3.09-1.23c-1.41,3.55-4.29,6.3-7.9,7.54l1.08,3.14Zm.05-2.05c.56,.22,.84,.85,.62,1.42-.12,.3-.36,.53-.67,.64l-1.08-3.14c-1.16,.4-1.78,1.67-1.38,2.83,.21,.62,.69,1.11,1.29,1.35l1.22-3.09h0Zm9.46,9.9c-1.55-4.52-5.01-8.14-9.46-9.9l-1.22,3.09c3.55,1.41,6.3,4.29,7.54,7.9l3.14-1.08h0Zm-2.05-.06c.22-.56,.85-.84,1.42-.62,.3,.12,.53,.36,.63,.66l-3.14,1.08c.4,1.16,1.67,1.78,2.83,1.39,.62-.21,1.11-.68,1.35-1.29l-3.09-1.23h0Zm9.9-9.47c-4.52,1.56-8.14,5.02-9.9,9.46l3.09,1.23c1.41-3.55,4.29-6.3,7.9-7.54l-1.09-3.14Zm-.04,2.05c-.56-.23-.83-.87-.61-1.43,.12-.29,.35-.52,.65-.62l1.09,3.14c1.16-.4,1.78-1.67,1.38-2.83-.21-.61-.68-1.11-1.29-1.35l-1.22,3.09h0Zm-9.47-9.9c1.56,4.53,5.02,8.14,9.47,9.9l1.22-3.09c-3.55-1.41-6.3-4.29-7.54-7.9l-3.15,1.08h0Zm3.15-1.08c-.4-1.16-1.67-1.78-2.83-1.39-.62,.21-1.11,.68-1.35,1.29l3.09,1.23c-.23,.56-.87,.84-1.43,.61-.3-.12-.53-.36-.63-.66l3.15-1.08h0Z"/></svg>