<?xml version="1.0" encoding="UTF-8"?><svg id="Layer_1" xmlns="http://www.w3.org/2000/svg" viewBox="0 0 68.74 71.42"><defs><style>.cls-1{fill:#fcce3e;}.cls-2{fill:#081a2b;}</style></defs><path class="cls-1" d="M34.37,58.46c3.26-7.05,9.88-16.61,23.02-22.76-13.14-6.15-19.76-15.71-23.02-22.76-3.26,7.05-9.88,16.61-23.02,22.76,13.14,6.14,19.76,15.71,23.02,22.76Z"/><path class="cls-2" d="M2.12,38.58c22.99,7.08,28.23,24.95,29.17,29.19v.65c0,1.58,1.22,2.88,2.79,2.99,.08,0,.16,0,.24,0,.05,0,.1,0,.14,0,.07,0,.14,0,.21,0,1.57-.11,2.8-1.42,2.8-2.99v-.65c.93-4.25,6.18-22.11,29.17-29.19,1.26-.39,2.12-1.55,2.12-2.87s-.86-2.48-2.12-2.87C43.64,25.76,38.39,7.89,37.46,3.65v-.65c0-1.58-1.22-2.88-2.79-2.99-.08,0-.16,0-.24,0-.12,0-.23,0-.35,0-1.57,.11-2.8,1.42-2.8,2.99v.65c-.93,4.25-6.18,22.11-29.17,29.19-1.26,.39-2.12,1.55-2.12,2.87s.86,2.48,2.12,2.87ZM34.37,12.95c3.26,7.05,9.88,16.61,23.02,22.76-13.14,6.14-19.76,15.71-23.02,22.76-3.26-7.05-9.88-16.61-23.02-22.76,13.14-6.15,19.76-15.71,23.02-22.76Z"/></svg>