<?xml version="1.0" encoding="UTF-8"?><svg id="Layer_1" xmlns="http://www.w3.org/2000/svg" xmlns:xlink="http://www.w3.org/1999/xlink" viewBox="0 0 83.2 103.07"><defs><style>.cls-1{fill:none;}.cls-2{clip-path:url(#clippath);}.cls-3{fill:#f8951d;}.cls-4{fill:#fdce3d;}.cls-5{fill:#071a2b;}</style><clipPath id="clippath"><rect class="cls-1" x="68.41" width="14.79" height="14.79"/></clipPath></defs><g id="Group_79"><path id="Path_274" class="cls-4" d="M36.38,36.19l-5.69,6.32s-.01,.05,0,.06c0,0,.02,0,.02,.01l8.48,.67c.36,.03,.69,.23,.87,.55l4.25,7.36s.04,.03,.06,.02c0,0,.02-.01,.02-.02l3.26-7.85c.14-.34,.44-.58,.79-.66l8.32-1.77s.04-.03,.03-.05c0,0,0-.02-.01-.02l-6.46-5.52c-.28-.24-.42-.6-.38-.96l.89-8.46s-.01-.05-.04-.05c0,0-.02,0-.03,0l-7.25,4.44c-.31,.19-.7,.22-1.03,.07l-7.77-3.46s-.05,0-.06,.02c0,0,0,.02,0,.03l1.98,8.27c.09,.36,0,.73-.25,1"/><path id="Path_275" class="cls-3" d="M50.67,27.37l.16-1.51s-.01-.05-.04-.05c0,0-.02,0-.03,0l-7.25,4.44c-.31,.19-.7,.22-1.03,.07l-7.77-3.46s-.05,0-.06,.02c0,0,0,.02,0,.03l1.98,8.27c.09,.36,0,.73-.25,1l-5.69,6.32s-.02,.04,0,.06c0,0,.02,.01,.03,.01l8.48,.67c.36,.03,.69,.23,.87,.55l.03,.05,10.56-16.46s0-.01,0-.02"/><path id="Path_276" class="cls-5" d="M31.95,25.17l2.38,9.95s0,.03,0,.04l-6.84,7.61c-.28,.32-.36,.76-.2,1.16,.02,.05,.04,.1,.07,.14,.18,.32,.51,.52,.87,.55l10.2,.81s.03,0,.03,.02l5.08,8.8c.17,.31,.46,.53,.8,.6,.51,.09,1.02-.19,1.22-.67l3.92-9.45s.02-.02,.03-.03l10.01-2.14c.6-.13,.98-.72,.85-1.32-.05-.24-.18-.45-.36-.61l-7.78-6.65s-.02-.02-.01-.04l1.07-10.18c.06-.61-.38-1.16-.99-1.22-.24-.03-.49,.03-.69,.16l-8.73,5.35s-.03,0-.04,0l-9.35-4.16c-.56-.25-1.22,0-1.47,.56-.1,.22-.12,.47-.07,.71m10.53,5.16c.33,.15,.72,.12,1.03-.07l7.25-4.44s.05,0,.06,.01c0,0,0,.02,0,.03l-.89,8.46c-.04,.36,.11,.72,.38,.96l6.46,5.52s.02,.04,0,.06c0,0-.02,.01-.02,.01l-8.32,1.77c-.36,.08-.65,.32-.79,.66l-3.26,7.85s-.03,.03-.06,.02c0,0-.02-.01-.02-.02l-4.25-7.36c-.18-.32-.51-.52-.87-.55l-8.48-.67s-.04-.02-.04-.05c0,0,0-.02,.01-.03l5.69-6.32c.24-.27,.34-.65,.25-1l-1.98-8.27s0-.05,.03-.05c0,0,.02,0,.03,0l7.77,3.46Z"/><rect id="Rectangle_36" class="cls-1" x="13.69" y="24.07" width="55.81" height="69.72" transform="translate(-23.89 28.69) rotate(-30)"/></g><g id="Group_44"><g class="cls-2"><g id="Group_43"><path id="Path_169" class="cls-4" d="M75.8,3c-2.43,0-4.39,1.97-4.39,4.39,0,2.43,1.97,4.39,4.39,4.39,2.43,0,4.39-1.97,4.39-4.39,0-2.42-1.97-4.39-4.39-4.39"/><path id="Path_170" class="cls-5" d="M75.8,0c-4.08,0-7.39,3.31-7.39,7.39s3.31,7.39,7.39,7.39,7.39-3.31,7.39-7.39h0c0-4.08-3.31-7.39-7.39-7.39m0,11.79c-2.43,0-4.39-1.97-4.39-4.39,0-2.43,1.97-4.39,4.39-4.39,2.43,0,4.39,1.97,4.39,4.39,0,2.43-1.97,4.39-4.39,4.39"/></g></g></g></svg>