<?xml version="1.0" encoding="utf-8"?>
<!-- Generator: Adobe Illustrator 26.5.0, SVG Export Plug-In . SVG Version: 6.00 Build 0)  -->
<svg version="1.1" id="Layer_1" xmlns="http://www.w3.org/2000/svg" xmlns:xlink="http://www.w3.org/1999/xlink" x="0px" y="0px"
	 viewBox="0 0 67 68.1" style="enable-background:new 0 0 67 68.1;" xml:space="preserve">
<style type="text/css">
	.st0{fill:#F89621;}
	.st1{fill:#081A2B;}
</style>
<path class="st0" d="M24.7,45c0.9,0,1.8,0.4,2.4,1.1l9.7,12.3l3.8-15.2c0.2-1,0.9-1.7,1.9-2.1l14.7-5.5L44,27.3
	c-0.8-0.5-1.4-1.4-1.4-2.4L41.9,9.2L29.9,19.2c-0.8,0.6-1.8,0.9-2.7,0.6L12,15.6l5.8,14.6c0.4,0.9,0.3,2-0.3,2.8L8.9,46l15.7-1
	C24.6,45,24.7,45,24.7,45z"/>
<path class="st1" d="M0.4,50.9c0.6,1,1.7,1.6,2.8,1.5l20.2-1.3l12.5,15.9c0.6,0.7,1.5,1.1,2.3,1.1c0.2,0,0.4,0,0.6-0.1
	c1.1-0.2,2-1.1,2.3-2.2l5-19.6l18.9-7c1.1-0.4,1.8-1.4,1.9-2.5c0.1-1.1-0.4-2.2-1.4-2.8L48.5,23.1L47.7,2.9c0-1.1-0.7-2.2-1.8-2.6
	c-1-0.5-2.3-0.3-3.1,0.4L27.2,13.6L7.8,8.2c-1.1-0.3-2.3,0-3,0.9s-1,2.1-0.6,3.1l7.5,18.8L0.5,47.7C-0.1,48.7-0.2,49.9,0.4,50.9z
	 M17.6,32.9c0.5-0.8,0.7-1.9,0.3-2.8L12,15.6l15.1,4.2c1,0.3,2,0,2.7-0.6L41.9,9.2l0.6,15.7c0,1,0.6,1.9,1.4,2.4l13.3,8.4l-14.7,5.5
	c-0.9,0.3-1.6,1.1-1.9,2.1l-3.8,15.2l-9.7-12.3c-0.6-0.7-1.4-1.1-2.4-1.1c-0.1,0-0.1,0-0.2,0L8.9,46C8.9,46,17.6,32.9,17.6,32.9z"/>
</svg>
