<?xml version="1.0" encoding="UTF-8"?><svg id="Layer_1" xmlns="http://www.w3.org/2000/svg" xmlns:xlink="http://www.w3.org/1999/xlink" viewBox="0 0 112.48 84.99"><defs><style>.cls-1{fill:none;}.cls-2{clip-path:url(#clippath);}.cls-3{fill:#0096ae;}.cls-4{fill:#fdce3d;}.cls-5{fill:#f05057;}.cls-6{fill:#fff;}.cls-7{fill:#91c95e;}.cls-8{fill:#d83945;}.cls-9{fill:#071a2b;}</style><clipPath id="clippath"><rect class="cls-1" x="34.22" y="-9.33" width="44.04" height="103.66" transform="translate(-6.6 74.44) rotate(-64.02)"/></clipPath></defs><g id="Group_10"><g class="cls-2"><g id="Group_9"><path id="Path_36" class="cls-8" d="M32.44,46.45c-6.24-3.78-12.22-7.98-17.89-12.57,6.65,10.23,15.96,18.47,26.94,23.82l15.02,7.32c10.88,4.26,22.52,6.24,34.2,5.81-14.33-3.68-28.26-8.79-41.58-15.25-6.55-3.19-12.13-6.33-16.69-9.12"/><path id="Path_37" class="cls-5" d="M13.5,18.24l-1.31,9.85c1.8-.7,3.66-1.25,5.56-1.64l-4.25-8.21Z"/><path id="Path_38" class="cls-3" d="M47.54,52.68c1.03-5.28,.41-10.76-1.77-15.68l-.2-.16-.32-.25-.24-.19-.36-.29-.12-.1c-2.94-2.33-5.64-4.95-8.05-7.83-9.4-1.4-17.37-.83-23.73,1.69,6.46,5.59,13.4,10.6,20.73,14.99,3.93,2.4,8.63,5.07,14.06,7.8m-15.96-15.15c-.25-1.08,.14-2.2,1-2.9,1.52-1.07,4.01,0,5.77,2.52,.73,1,1.21,2.16,1.41,3.38,.25,1.08-.14,2.2-.99,2.9-.91,.56-2.06,.56-2.97,0l-.1-.05c-1.08-.6-2.01-1.45-2.7-2.47-.73-1-1.21-2.16-1.41-3.38"/><path id="Path_39" class="cls-4" d="M37.68,41.88c.2-.14,.28-.58,.21-1.12-.16-.92-.53-1.78-1.09-2.53-.53-.8-1.24-1.45-2.09-1.91-.49-.24-.88-.28-1.06-.16-.2,.14-.28,.58-.21,1.12,.16,.92,.53,1.79,1.09,2.54,.52,.77,1.21,1.42,2.02,1.88,.49,.25,.93,.32,1.12,.18"/><path id="Path_40" class="cls-5" d="M68.27,48.23c-.37-.1-.73-.21-1.09-.31l-.35-.1c-.47-.14-.93-.29-1.38-.43l-.27-.09c-.37-.12-.73-.24-1.09-.37l-.42-.15c-.33-.12-.65-.24-.97-.36l-.36-.14c-.43-.16-.85-.33-1.27-.5l-.15-.06c-.37-.15-.73-.3-1.09-.46l-.37-.16c-.3-.13-.59-.26-.88-.39l-.35-.16c-.8-.37-1.57-.75-2.32-1.13l-.31-.16c-.3-.15-.59-.31-.88-.47l-.26-.14c-.36-.2-.72-.4-1.07-.6l-.19-.11c-.29-.17-.58-.33-.86-.5l-.28-.17c-.29-.17-.58-.35-.86-.52l-.13-.08c-.32-.2-.64-.4-.95-.6l-.23-.15c-.24-.16-.47-.31-.7-.47l-.23-.16-.38-.26c1.52,4.69,1.76,9.7,.7,14.51,2.68,1.32,5.53,2.64,8.54,3.96,3.28-3.87,7.45-6.9,12.15-8.84l-.11-.03c-.38-.09-.75-.19-1.13-.29l-.45-.12"/><path id="Path_41" class="cls-7" d="M38.32,27.46c.1,.12,.22,.26,.35,.41l.04,.04,.17,.19,.05,.05,.21,.23,.02,.02c.16,.18,.34,.37,.52,.57l.05,.06,.24,.25,.07,.07,.26,.27,.05,.05c.22,.22,.44,.45,.69,.69l.07,.08,.29,.29,.1,.09,.31,.3,.08,.07c.27,.25,.55,.52,.84,.78l.11,.1,.34,.3,.14,.12,.35,.31,.13,.11c.32,.28,.65,.56,.99,.85l.15,.12,.38,.31,.18,.15,.38,.31,.17,.14c.17,.14,.34,.27,.52,.41l.04,.03c.19,.15,.38,.29,.57,.44l.18,.14,.41,.31,.22,.16,.42,.3,.21,.15c.18,.13,.36,.26,.54,.39l.09,.06,.29,.2,.36,.25,.2,.14c.16,.11,.31,.21,.48,.32l.08,.05c6.01,3.97,12.64,6.9,19.63,8.65h0c.36,.09,.73,.18,1.1,.26l.1,.02c.34,.08,.68,.15,1.02,.22l.2,.04c.31,.06,.63,.13,.95,.19l.29,.06c.3,.06,.6,.11,.9,.16,.12,.02,.24,.04,.37,.07,.28,.05,.56,.09,.84,.13,.15,.02,.3,.05,.45,.07,.26,.04,.53,.07,.79,.11,.17,.02,.34,.05,.52,.07,.25,.03,.5,.06,.75,.08,.19,.02,.39,.05,.58,.06,.23,.02,.47,.04,.71,.06,.21,.02,.43,.04,.64,.06s.45,.03,.68,.05,.42,.03,.64,.04c.27-2.69,0-5.41-.8-7.99-1.97-6.54-6.9-11.77-14.64-15.54-.18-.09-18.29-8.58-28.11,2.32l.09,.11,.02,.02"/><path id="Path_42" class="cls-4" d="M79.7,58.24c-.88-.38-1.83-.54-2.79-.47-2.16,.11-3.44,1.08-3.42,1.56,.03,.49,1.4,1.32,3.56,1.21s3.44-1.07,3.42-1.56c-.01-.22-.29-.5-.77-.74"/><path id="Path_43" class="cls-5" d="M94.65,63.5c.92,1.79,1.7,3.65,2.34,5.55l5.82-8.96-8.16,3.4Z"/><path id="Path_44" class="cls-3" d="M82.71,50.47c-.05,0-.1,0-.16,0-.58-.03-1.15-.06-1.72-.1l-.49-.04c-.42-.03-.83-.07-1.24-.11-.17-.02-.34-.03-.5-.05-.49-.05-.97-.11-1.45-.17l-.2-.02c-.54-.07-1.08-.15-1.62-.23-.14-.02-.29-.05-.43-.07-.4-.07-.79-.13-1.18-.2-.11-.02-.22-.04-.33-.06-5.3,1.68-10.05,4.74-13.78,8.87,11.54,4.92,23.48,8.85,35.7,11.74-1.01-3.18-4.19-11.1-12.61-19.56m-5.56,11.95c-1.27,.1-2.54-.13-3.7-.64-1-.38-1.71-1.28-1.84-2.34-.09-1.86,2.14-3.39,5.2-3.55s5.45,1.13,5.54,2.99h0c.09,1.86-2.14,3.39-5.2,3.55"/><path id="Path_45" class="cls-6" d="M68.93,28.29c2.94,1.51,5.42,3.77,7.21,6.54,1.87,2.78,3.61,6.31,3.13,9.75,0,0-.24,1.76-1.84,1.55-1.24-.16-1.18-1.78-1.27-2.7-.17-1.53-.55-3.03-1.13-4.45-.86-2.16-2.13-4.14-3.72-5.83-.75-.83-1.6-1.56-2.52-2.2-.74-.5-1.81-.87-2.03-1.85-.24-1.11,.78-1.34,1.65-1.02,.17,.06,.35,.14,.52,.22"/><path id="Path_46" class="cls-9" d="M82.36,58.88c-.1-1.86-2.48-3.15-5.55-2.99-3.06,.16-5.3,1.68-5.2,3.55,.13,1.06,.84,1.97,1.84,2.34,1.16,.52,2.43,.74,3.7,.65,3.06-.16,5.3-1.68,5.21-3.55Zm-5.31,1.67c-2.17,.11-3.53-.72-3.56-1.21s1.25-1.45,3.42-1.57c.95-.08,1.91,.08,2.79,.47,.49,.24,.76,.52,.77,.74,.02,.49-1.25,1.45-3.42,1.57"/><path id="Path_47" class="cls-9" d="M32.99,40.91c.69,1.03,1.62,1.87,2.7,2.47l.1,.05c.91,.56,2.06,.56,2.97,0,.86-.7,1.24-1.82,.99-2.9-.2-1.22-.68-2.38-1.41-3.38-1.76-2.51-4.24-3.59-5.77-2.52-.86,.7-1.25,1.83-1,2.91,.2,1.22,.68,2.38,1.41,3.38m.67-4.74c.17-.13,.57-.08,1.06,.16,.84,.45,1.56,1.11,2.09,1.91,.55,.75,.92,1.62,1.08,2.54,.07,.54-.01,.98-.21,1.12s-.63,.07-1.12-.18c-.81-.46-1.5-1.1-2.02-1.88-.55-.75-.92-1.62-1.08-2.54-.07-.54,.01-.98,.21-1.12"/><path id="Path_48" class="cls-9" d="M96.84,72.22s.06-.01,.09-.02c.05-.01,.09-.03,.14-.05,.02-.01,.05-.02,.07-.03,.06-.04,.12-.08,.17-.12,0,0,0,0,.01,0h0s.09-.1,.13-.16l8.62-13.26c.28-.44,.16-1.02-.28-1.3-.26-.17-.59-.2-.88-.08l-11.15,4.64c-2.73-4.81-6.13-9.21-10.1-13.06,.3-2.91,.01-5.85-.84-8.65-1.46-4.89-5.37-11.78-15.68-16.8-3.59-1.61-7.4-2.69-11.31-3.2-8.17-1.03-14.81,1.11-19.23,6.2-5.6-.91-11.3-.98-16.91-.21l-5.89-11.39c-.24-.46-.81-.64-1.27-.4-.27,.14-.46,.41-.5,.71l-1.92,14.45s0,.05,0,.07c0,.05,0,.11,0,.16,0,.03,.01,.06,.02,.09,0,.05,.02,.1,.04,.14,0,.01,0,.03,.01,.04,.08,.19,8.49,18.71,30.48,29.42l15.07,7.34c13.04,5.11,27.11,7,41.03,5.51,.03,0,.06-.01,.08-.02m5.97-12.13l-5.82,8.96c-.64-1.91-1.42-3.76-2.34-5.55l8.17-3.4ZM36.47,28.2c2.41,2.88,5.11,5.5,8.06,7.83l.12,.1,.36,.29,.24,.19,.32,.25,.2,.16c2.18,4.92,2.79,10.4,1.76,15.68-5.43-2.73-10.13-5.4-14.06-7.8-7.33-4.39-14.26-9.41-20.73-14.99,6.35-2.53,14.33-3.1,23.73-1.7m12.8,25.35c1.06-4.81,.82-9.82-.7-14.51l.38,.26,.23,.15c.23,.15,.46,.31,.7,.47l.23,.15c.31,.2,.62,.4,.94,.6l.13,.08c.28,.18,.57,.35,.86,.52l.28,.17c.28,.17,.57,.33,.86,.5l.19,.11c.35,.2,.71,.4,1.07,.6l.26,.14c.29,.16,.59,.31,.88,.47l.31,.16c.75,.38,1.52,.76,2.32,1.13l.35,.16c.29,.13,.58,.26,.88,.39l.37,.16c.36,.15,.72,.31,1.09,.46l.15,.06c.42,.17,.84,.33,1.27,.5l.36,.14c.32,.12,.64,.24,.97,.36l.42,.15c.36,.13,.72,.25,1.09,.37l.27,.09c.46,.15,.92,.29,1.38,.43l.35,.1c.36,.11,.73,.21,1.09,.31l.45,.12c.37,.1,.75,.2,1.13,.29l.11,.03c-4.7,1.94-8.86,4.97-12.14,8.84-3.01-1.32-5.86-2.64-8.54-3.96m24.13-4.12c.11,.02,.22,.04,.33,.06,.39,.07,.78,.14,1.18,.2,.14,.02,.29,.05,.43,.07,.53,.08,1.07,.16,1.62,.23l.2,.02c.48,.06,.96,.12,1.45,.17,.17,.02,.34,.03,.5,.05,.41,.04,.82,.08,1.24,.11l.49,.04c.57,.04,1.14,.08,1.72,.1,.05,0,.1,0,.16,0,8.42,8.46,11.6,16.38,12.61,19.56-12.21-2.89-24.15-6.82-35.7-11.74,3.73-4.12,8.48-7.19,13.78-8.87m-7.08-24.41c7.73,3.77,12.67,9,14.66,15.55,.8,2.58,1.07,5.3,.8,7.99-.22-.01-.42-.03-.64-.04s-.45-.03-.68-.05-.43-.04-.64-.06c-.24-.02-.47-.04-.71-.06-.2-.02-.39-.04-.58-.06-.25-.03-.5-.05-.75-.08-.17-.02-.34-.05-.52-.07-.26-.03-.53-.07-.79-.11-.15-.02-.3-.05-.45-.07-.28-.04-.56-.08-.84-.13-.12-.02-.25-.04-.37-.07-.3-.05-.6-.1-.9-.16l-.29-.06c-.32-.06-.64-.12-.95-.19l-.2-.04c-.34-.07-.68-.15-1.02-.22l-.1-.02c-.37-.08-.73-.17-1.1-.26h0c-6.99-1.75-13.62-4.68-19.63-8.65l-.08-.05c-.16-.11-.32-.21-.48-.32l-.2-.14-.36-.25-.29-.2-.09-.06c-.18-.13-.37-.26-.54-.39l-.21-.15-.42-.3-.22-.16-.41-.31-.18-.14c-.19-.15-.38-.29-.57-.44l-.04-.03c-.18-.14-.35-.27-.52-.41l-.17-.14-.38-.31-.18-.15-.38-.31-.16-.13c-.34-.29-.67-.57-.99-.85l-.13-.11-.35-.31-.14-.12-.34-.3-.11-.1c-.29-.27-.57-.53-.84-.78l-.08-.07-.31-.3-.1-.09-.29-.29-.07-.08c-.24-.24-.47-.47-.69-.69l-.05-.05-.26-.27-.07-.07-.24-.25-.05-.06c-.19-.2-.37-.39-.52-.57l-.02-.02-.21-.23-.05-.05-.17-.19-.04-.04c-.13-.15-.25-.29-.35-.41l-.02-.02-.09-.11c9.82-10.9,27.93-2.41,28.11-2.32m-48.58,1.44c-1.9,.39-3.76,.94-5.56,1.64l1.31-9.85,4.25,8.21Zm38.76,38.57l-15.03-7.32c-10.97-5.35-20.28-13.58-26.94-23.82,5.68,4.59,11.65,8.78,17.9,12.57,4.56,2.79,10.15,5.93,16.69,9.12,13.31,6.46,27.24,11.57,41.58,15.25-11.68,.43-23.32-1.55-34.2-5.81"/></g></g></g></svg>