<?xml version="1.0" encoding="utf-8"?>
<!-- Generator: Adobe Illustrator 26.5.0, SVG Export Plug-In . SVG Version: 6.00 Build 0)  -->
<svg version="1.1" id="Layer_1" xmlns="http://www.w3.org/2000/svg" xmlns:xlink="http://www.w3.org/1999/xlink" x="0px" y="0px"
	 viewBox="0 0 24 24" style="enable-background:new 0 0 24 24;" xml:space="preserve">
<style type="text/css">
	.st0{fill:#683AFF;}
</style>
<path class="st0" d="M18.9,6L17.2,13L15.4,6h-5.1v2.6C9.7,6.3,7.6,5.7,5.6,5.7c-2.4,0-5,1-5.1,4.3h3.4c0-1,0.7-1.5,1.6-1.5
	c1,0,1.5,0.4,1.5,1.1c0,0.6-0.4,1-1.5,1H4.3v2.3h1c0.6,0,1.4,0.3,1.4,1.2c0,1-0.7,1.4-1.5,1.4c-1.5-0.1-1.8-1.2-1.8-2.2H0
	c0,0.7-0.2,5.1,5.3,5.1c2.6,0,4.5-1.1,5-2.6v2.3h3.5v-7.6l1.9,7.6h3l1.9-7.6v7.6H24V6H18.9z M10.3,13c-0.4-0.9-1-1.3-1.4-1.4
	c0.7-0.3,1.1-0.8,1.4-1.6V13z"/>
</svg>
