<?xml version="1.0" encoding="utf-8"?>
<!-- Generator: Adobe Illustrator 26.5.0, SVG Export Plug-In . SVG Version: 6.00 Build 0)  -->
<svg version="1.1" id="Layer_1" xmlns="http://www.w3.org/2000/svg" xmlns:xlink="http://www.w3.org/1999/xlink" x="0px" y="0px"
	 viewBox="0 0 512 512" style="enable-background:new 0 0 512 512;" xml:space="preserve">
<style type="text/css">
	.st0{fill:#FCCE3E;}
	.st1{fill:#F8961D;}
	.st2{fill:#FFF6DF;}
</style>
<polygon class="st0" points="438.5,256.3 255.7,497.4 73.5,255.8 203,256 203.3,8.8 309.3,8.9 309,256.1 "/>
<polygon class="st1" points="203.3,8.8 203,256 73.5,255.8 255.7,497.4 256.3,8.8 "/>
<path d="M55.8,247l138.4,0.2l0.3-247.2l123.6,0.2l-0.3,247.2l138.4,0.2L255.7,512L55.8,247z M212.2,17.6l-0.3,247.2l-120.6-0.2
	l164.4,218.1l165-217.6l-120.6-0.2l0.3-247.2L212.2,17.6z"/>
<rect x="200" y="275.4" transform="matrix(0.7962 -0.605 0.605 0.7962 -171.0614 198.2606)" class="st2" width="17.7" height="155.4"/>
</svg>
