<svg xmlns="http://www.w3.org/2000/svg" xml:space="preserve" id="Layer_1" x="0" y="0" enable-background="new 0 0 128 128" version="1.1" viewBox="0 0 128 128"><path d="M127.6,62.9c-1.2-1.4-28.8-35.4-63.6-35.4S1.5,61.5,0.4,62.9c-0.5,0.6-0.5,1.6,0,2.2c1.2,1.4,28.8,35.4,63.6,35.4 s62.5-34,63.6-35.4C128.1,64.5,128.1,63.5,127.6,62.9z M64,97C34.3,97,9.1,69.8,4,64c5.1-5.8,30.2-33,60-33c29.7,0,54.9,27.2,60,33 C118.9,69.8,93.7,97,64,97z"/><path d="M64,39.3c-13.7,0-24.8,11.1-24.8,24.8S50.3,88.8,64,88.8S88.8,77.7,88.8,64C88.7,50.3,77.7,39.3,64,39.3z M64,85.3 c-11.7,0-21.3-9.5-21.3-21.3S52.3,42.8,64,42.8S85.3,52.3,85.3,64l0,0C85.2,75.7,75.7,85.2,64,85.3z"/><path d="M77.9,61.8c-1.5,1.2-3.3,1.9-5.2,1.9c-4.6,0-8.3-3.7-8.3-8.3c0-1.9,0.7-3.8,1.9-5.2c0.6-0.8,0.5-1.8-0.3-2.5 c-0.4-0.4-1.1-0.4-1.9-0.4c-9.3,0-16.8,7.5-16.8,16.7S54.7,80.8,64,80.8S80.8,73.3,80.8,64c0,0,0,0,0,0c0-0.8,0-1.9-0.9-2.4 C79.2,61.3,78.4,61.3,77.9,61.8z M64,77.3c-7.3,0-13.2-5.9-13.2-13.3c0-6.4,4.6-11.9,10.9-13c-2.5,6,0.4,12.9,6.5,15.4 c2.8,1.2,6,1.2,8.9,0C75.9,72.6,70.4,77.2,64,77.3z"/></svg>