<?xml version="1.0" encoding="utf-8"?>
<!-- Generator: Adobe Illustrator 26.5.0, SVG Export Plug-In . SVG Version: 6.00 Build 0)  -->
<svg version="1.1" id="Layer_1" xmlns="http://www.w3.org/2000/svg" xmlns:xlink="http://www.w3.org/1999/xlink" x="0px" y="0px"
	 viewBox="0 0 24 24" style="enable-background:new 0 0 24 24;" xml:space="preserve">
<style type="text/css">
	.st0{fill:#683AFF;}
</style>
<path class="st0" d="M11.9,11.6l0.8-4.1l0.8,4.1H11.9z M14.8,5h-4.1L8.2,15.9l4.5-3.6l4.7,3.9L14.8,5z M12.7,13.2l-7.5,6.1H20
	L12.7,13.2z M24,5v2.8h-2.1v11.4h-0.9l-2.4-2V7.8h-2.1V5H24z M6.9,16.9c0.5-0.5,0.6-1,0.6-1.5v-2.1h-3v2.9c0,0.4-0.3,0.7-0.7,0.8
	c-0.4,0-0.7-0.3-0.7-0.8V7.9c0-0.4,0.3-0.8,0.7-0.8c0.4,0,0.7,0.3,0.7,0.8v2.9h3v-3c0-1.7-1.1-3-3.8-3C1,4.7,0,6.1,0,7.8v8.6
	c0,1.7,1.3,2.9,3,2.9h0.9L6.9,16.9z"/>
</svg>
