<svg xmlns="http://www.w3.org/2000/svg" width="128" height="128" viewBox="0 0 128 128"><path d="M66.773 10A11.93 11.93 0 1 0 78.7 21.928 11.945 11.945 0 0 0 66.773 10Zm0 20.36A8.43 8.43 0 1 1 75.2 21.928 8.439 8.439 0 0 1 66.773 30.357ZM66.773 94.137A11.93 11.93 0 1 0 78.7 106.066 11.943 11.943 0 0 0 66.773 94.137Zm0 20.36a8.43 8.43 0 1 1 8.431-8.431A8.44 8.44 0 0 1 66.773 114.5ZM96.521 46.174a11.925 11.925 0 1 0-8.436-3.489A11.889 11.889 0 0 0 96.521 46.174ZM90.56 28.288a8.43 8.43 0 1 1 0 11.923A8.406 8.406 0 0 1 90.56 28.288ZM28.59 85.309a11.931 11.931 0 1 0 16.871 0A11.847 11.847 0 0 0 28.59 85.309Zm14.4 14.4a8.432 8.432 0 1 1 2.469-5.961A8.438 8.438 0 0 1 42.987 99.706ZM36.634 64A11.931 11.931 0 1 0 24.7 75.928 11.945 11.945 0 0 0 36.634 64ZM24.7 72.428A8.431 8.431 0 1 1 33.134 64 8.44 8.44 0 0 1 24.7 72.428ZM88.085 85.309a11.93 11.93 0 1 0 16.872 0A11.943 11.943 0 0 0 88.085 85.309Zm14.4 14.4a8.43 8.43 0 1 1 0-11.923A8.44 8.44 0 0 1 102.482 99.706ZM28.59 25.814a11.931 11.931 0 1 0 16.871 0A11.847 11.847 0 0 0 28.59 25.814Zm14.4 14.4a8.432 8.432 0 1 1 2.469-5.962A8.44 8.44 0 0 1 42.987 40.211Z"/><path d="M120.516,78.677l-12.372-8.588a7.416,7.416,0,0,1,0-12.184l12.371-8.587a10.933,10.933,0,0,0,3.592-13.753,64,64,0,1,0-.086,57.037A11.018,11.018,0,0,0,120.516,78.677Zm.376,12.358A60.5,60.5,0,1,1,64.3,3.547c.806-.032,1.607-.048,2.409-.048a60.667,60.667,0,0,1,54.261,33.623,7.415,7.415,0,0,1-2.454,9.321L106.148,55.03a10.916,10.916,0,0,0,0,17.934l12.371,8.588A7.41,7.41,0,0,1,120.892,91.035Z"/></svg>