<?xml version="1.0" encoding="utf-8"?>
<!-- Generator: Adobe Illustrator 26.5.0, SVG Export Plug-In . SVG Version: 6.00 Build 0)  -->
<svg version="1.1" id="Layer_1" xmlns="http://www.w3.org/2000/svg" xmlns:xlink="http://www.w3.org/1999/xlink" x="0px" y="0px"
	 viewBox="0 0 24 24" style="enable-background:new 0 0 24 24;" xml:space="preserve">
<style type="text/css">
	.st0{fill:#683AFF;}
</style>
<path class="st0" d="M0,5.3l2,4.6l2-4.6L0,5.3z M2,12.9c0.7,0,1.3-0.6,1.3-1.3c0-0.7-0.6-1.3-1.3-1.3c-0.7,0-1.3,0.6-1.3,1.3
	C0.8,12.3,1.3,12.9,2,12.9L2,12.9z M0.9,16.2c0,1,0.9,2.5,3.3,2.5c2.5,0,3.3-1.2,3.3-2.5v-11H5.4l0,11.3c0,0.6-0.5,1.1-1.1,1.1
	c-0.6,0-1.1-0.5-1.1-1.1l0-2.3H0.9L0.9,16.2z M9.2,18.5V5.3h4.4c0.8,0,2.2,0.7,2.2,2.2v2.3c0,0.7-0.6,1.8-1.4,1.8
	c0.9,0,1.4,0.7,1.4,1.3v4c0,0.7-0.5,1.7-2.2,1.7L9.2,18.5z M12.6,11c0.8,0,1-0.1,1-2.2c0-2.1-0.2-2.2-1-2.2h-1.2V11L12.6,11z
	 M13.6,14.8c0-2.1,0-2.7-0.9-2.7h-1.3v5.3l1.3,0C13.6,17.5,13.6,16.9,13.6,14.8L13.6,14.8z M17.4,18.5H24v-4.2h-2.2l0,2.3
	c0,0.6-0.5,1.1-1.1,1.1c-0.6,0-1.1-0.5-1.1-1.1V5.3h-2.2L17.4,18.5z"/>
</svg>
