<?xml version="1.0" encoding="UTF-8"?><svg id="Layer_1" xmlns="http://www.w3.org/2000/svg" viewBox="0 0 231.27 65.73"><defs><style>.cls-1{fill:none;}.cls-2{fill:#f7941d;}.cls-3{fill:#fef6e0;}.cls-4{fill:#fbb040;}</style></defs><g><path class="cls-1" d="M129.31,26.43c2.95,.12,4.85-2.1,5.21-5.97-3.55-.29-7.05-.5-10.49-.66,.31,4.03,2.23,6.51,5.28,6.63Z"/><path class="cls-1" d="M134.6,19.06c0-4.73-2-7.76-5.29-7.9-3.34-.14-5.34,2.73-5.34,7.46,0,.41,.03,.79,.06,1.17,3.44,.16,6.94,.38,10.49,.66,.04-.45,.08-.91,.08-1.4Z"/><path class="cls-1" d="M90.35,12.35c-.99,.09-1.98,.18-2.97,.27v7.72c1.51-.12,2.99-.25,4.54-.34,3.51-1.75,3.11-8.02-1.56-7.64Z"/><path class="cls-1" d="M87.38,20.71c.99-.1,1.98-.19,2.97-.27,.59-.05,1.1-.22,1.56-.45-1.54,.09-3.03,.23-4.54,.34v.38Z"/><path class="cls-1" d="M27.01,31.73c.66-.21,1.3-.41,1.98-.62-.33-1.02-.65-2.04-.98-3.06-.33,1.22-.67,2.45-1,3.68Z"/><path class="cls-1" d="M25.24,38.23c1.84-.53,3.69-1.04,5.54-1.54-.6-1.86-1.19-3.72-1.79-5.58-.68,.21-1.32,.41-1.98,.62-.59,2.17-1.18,4.33-1.77,6.5Z"/><path d="M45.79,26.64c3.01,7.27,6.01,14.49,9.02,21.83-5.96,1.25-11.95,2.65-17.85,4.15l-1.62-5.04-.97,.25c-4.43,1.16-8.85,2.4-13.27,3.7l-.56,.17-1.62,5.94c-5.73,1.73-11.52,3.61-17.23,5.59,2.81-8.56,5.65-17.01,8.47-25.51-.45,.18-.86,.35-1.29,.53-2.95,8.9-5.92,17.73-8.86,26.69,6.57-2.32,13.16-4.47,19.78-6.46,.54-1.98,1.07-3.96,1.61-5.93,4.4-1.3,8.81-2.53,13.24-3.69,.54,1.68,1.08,3.35,1.62,5.03,6.66-1.72,13.33-3.27,20.03-4.65-3.16-7.69-6.29-15.24-9.44-22.85-.35,.08-.7,.16-1.05,.24Z"/><path d="M28,28.05c.33,1.02,.65,2.04,.98,3.06,.34-.1,.67-.21,1.01-.31l-2.08-6.48-2.11,7.79c.39-.13,.8-.25,1.2-.38,.33-1.23,.67-2.45,1-3.68Z"/><path d="M18.59,12.28c6.29-1.91,12.7-3.7,19.06-5.33,2.7,6.5,5.42,13.13,8.13,19.68,.35-.08,.7-.16,1.05-.24-2.85-6.9-5.71-13.86-8.55-20.7-6.86,1.73-13.71,3.64-20.52,5.73-2.98,8.88-5.94,17.89-8.9,26.83,.43-.18,.84-.35,1.29-.53,2.82-8.48,5.62-17.02,8.45-25.45Z"/><path d="M31.05,37.71l1.07-.29-2.13-6.62c-.35,.1-.67,.21-1.01,.31,.6,1.86,1.19,3.72,1.79,5.58-1.85,.5-3.69,1.02-5.54,1.54,.59-2.17,1.18-4.34,1.77-6.5-.4,.13-.81,.25-1.2,.38l-2.08,7.66s5.49-1.56,7.33-2.06Z"/><path class="cls-2" d="M18.59,12.28c-2.83,8.42-5.63,16.96-8.45,25.45,4.31-1.75,9.57-3.68,15.66-5.62l2.11-7.79,2.08,6.48c4.79-1.44,10.1-2.84,15.79-4.16-2.71-6.56-5.43-13.18-8.13-19.68-6.37,1.62-12.77,3.41-19.06,5.33Z"/><path class="cls-4" d="M32.12,37.42l-1.07,.29c-1.84,.5-7.33,2.06-7.33,2.06l2.08-7.66c-6.08,1.94-11.34,3.88-15.66,5.62-2.82,8.5-5.66,16.95-8.47,25.51,5.71-1.98,11.5-3.86,17.23-5.59l1.62-5.94,.56-.17c4.41-1.31,8.83-2.54,13.27-3.7l.97-.25,1.62,5.04c5.9-1.5,11.9-2.9,17.85-4.15-3.01-7.34-6.01-14.56-9.02-21.83-5.69,1.32-11,2.72-15.79,4.16l2.13,6.62Z"/><path d="M55.84,24.51c.36-.07,.7-.14,1.06-.21V7.69c3.83-.76,7.7-1.45,11.54-2.06V22.41c.35-.05,.71-.1,1.06-.15,0-5.96,0-11.92,0-17.88-4.56,.71-9.12,1.52-13.67,2.44V24.51Z"/><path d="M68.45,39.1c-3.84,.61-7.71,1.29-11.54,2.05V24.3c-.36,.07-.7,.14-1.06,.21v17.93c4.55-.91,9.1-1.73,13.67-2.44V22.26c-.35,.05-.71,.1-1.06,.15v16.69Z"/><path class="cls-2" d="M68.45,5.63c-3.84,.61-7.72,1.31-11.54,2.06V24.3c3.69-.69,7.56-1.31,11.54-1.89V5.63Z"/><path class="cls-4" d="M68.45,39.1V22.41c-3.98,.57-7.85,1.2-11.54,1.89v16.85c3.83-.75,7.71-1.44,11.54-2.05Z"/><path d="M107.11,19.5c-.38,0-.76,0-1.14,.01-.75,2.37-2.1,4.55-4.03,6.18l-.66,.56s3.5,6.39,5.04,9.22c-4.06,.14-8.19,.36-12.3,.66l-3.65-6.27-4.04,.37v6.57c-3.88,.39-7.77,.85-11.61,1.37V21.56c-.35,.04-.71,.08-1.06,.13v17.71c4.57-.65,9.15-1.19,13.73-1.63v-6.56c.8-.08,1.61-.15,2.41-.22,1.21,2.08,2.43,4.17,3.64,6.26,4.87-.37,9.75-.63,14.63-.77-1.82-3.34-3.63-6.67-5.45-9.97,2.25-1.9,3.73-4.36,4.49-7Z"/><path d="M74.72,4.69c5.62-.78,11.32-1.41,16.96-1.87,.5-.04,.99-.05,1.48-.05,6.21,0,10.84,2.94,12.72,8.06,1.03,2.81,.99,5.89,.11,8.69,.38,0,.76,0,1.14-.01,2.44-8.44-2.73-18.65-15.52-17.74-5.99,.49-11.97,1.16-17.93,2.01,0,5.97,0,11.94,0,17.92,.35-.04,.71-.08,1.06-.13V4.69Z"/><path d="M90.45,21.5c1.43-.12,2.54-.74,3.35-1.6-.62,.03-1.26,.05-1.87,.09-.46,.23-.97,.4-1.56,.45-.99,.09-1.98,.18-2.97,.27v-.38c-.35,.03-.71,.05-1.06,.08v1.46l4.12-.38Z"/><path d="M87.38,12.62c.99-.1,1.98-.19,2.97-.27,4.67-.38,5.08,5.9,1.56,7.64,.62-.04,1.25-.06,1.87-.09,1.05-1.12,1.58-2.65,1.53-4.1-.11-2.67-1.99-4.53-4.57-4.53h-.04l-.44,.02-3.94,.36v8.76c.35-.03,.71-.05,1.06-.08v-7.72Z"/><path class="cls-2" d="M105.87,10.82c-1.87-5.12-6.51-8.06-12.72-8.06-.48,0-.98,.02-1.48,.05-5.64,.46-11.34,1.09-16.96,1.87V21.56c3.74-.45,7.64-.82,11.61-1.14V11.66l3.94-.36,.44-.02h.04c2.58,0,4.46,1.86,4.57,4.53,.06,1.45-.47,2.98-1.53,4.1,3.95-.21,8.03-.34,12.18-.39,.89-2.8,.92-5.87-.11-8.69Z"/><path class="cls-4" d="M90.45,21.5l-4.12,.38v-1.46c-3.97,.32-7.86,.69-11.61,1.14v16.61c3.83-.53,7.73-.99,11.61-1.37v-6.57l4.04-.37,3.65,6.27c4.11-.3,8.23-.53,12.3-.66-1.54-2.83-5.04-9.22-5.04-9.22l.66-.56c1.93-1.63,3.28-3.81,4.03-6.18-4.15,.06-8.23,.18-12.18,.39-.81,.86-1.92,1.48-3.35,1.6Z"/><path d="M130.81,36.55c-.47,0-.96-.01-1.45-.03-11.58-.43-18.29-6.65-18.65-17.05-.36,0-.7,0-1.06,.01,.34,10,6.53,17.61,19.66,18.1,12.68,.58,18.84-6.1,19.52-15.59-.35-.04-.7-.1-1.05-.14-.64,9.34-6.69,14.71-16.96,14.71Z"/><path d="M129.31,.02c-13.51-.5-19.73,8.27-19.73,18.6,0,.29,.06,.56,.07,.85,.36,0,.7-.01,1.06-.01,0-.29-.07-.55-.07-.84,0-8.49,4.62-17.56,17.59-17.56l1.05,.02c13.73,.62,18.63,10.31,18.63,19.16,0,.56-.09,1.06-.13,1.6,.35,.04,.7,.09,1.05,.14,.04-.58,.14-1.14,.14-1.74,0-10.33-6.2-19.61-19.66-20.22Z"/><path d="M129.31,26.43c-3.05-.12-4.96-2.6-5.28-6.63-.35-.02-.71-.05-1.06-.06,.33,4.66,2.66,7.61,6.29,7.76h.02c2.18,0,3.75-.83,4.84-2.41,.79-1.14,1.19-2.74,1.37-4.53-.32-.03-.65-.07-.97-.09-.37,3.87-2.27,6.09-5.21,5.97Z"/><path d="M129.35,10.1h-.27c-3.81,0-6.18,3.26-6.18,8.53,0,.39,.04,.74,.07,1.11,.35,.01,.71,.05,1.06,.06-.03-.38-.06-.76-.06-1.17,0-4.73,2-7.6,5.34-7.46,3.29,.14,5.29,3.17,5.29,7.9,0,.49-.03,.95-.08,1.4,.32,.03,.65,.07,.97,.09,.05-.5,.17-.95,.17-1.49,0-5.36-2.42-8.8-6.31-8.96Z"/><path class="cls-2" d="M122.91,18.63c0-5.26,2.37-8.53,6.18-8.53h.27c3.89,.17,6.31,3.6,6.31,8.96,0,.55-.12,.99-.17,1.49,4.02,.34,8.13,.77,12.29,1.29,.04-.54,.13-1.04,.13-1.6,0-8.85-4.9-18.54-18.63-19.16l-1.05-.02c-12.97,0-17.59,9.07-17.59,17.56,0,.3,.06,.55,.07,.84,4.01,.01,8.09,.09,12.27,.27-.03-.37-.07-.72-.07-1.11Z"/><path class="cls-4" d="M129.36,36.52c.49,.02,.98,.03,1.45,.03,10.27,0,16.33-5.37,16.96-14.71-4.16-.51-8.26-.95-12.29-1.29-.18,1.79-.58,3.39-1.37,4.53-1.08,1.57-2.66,2.41-4.84,2.41h-.02c-3.64-.15-5.97-3.1-6.29-7.76-4.18-.18-8.26-.26-12.27-.27,.36,10.4,7.07,16.62,18.65,17.05Z"/><path d="M173.72,19.49c-3.31-5.1-6.63-10.15-9.95-15.14-3.97-.61-7.94-1.15-11.92-1.61,0,6.54,0,13.09,0,19.63,.35,.05,.7,.09,1.06,.14V3.94c3.41,.41,6.83,.87,10.23,1.39,3.24,4.86,6.46,9.77,9.69,14.74l1.95,3V7.34c3.85,.74,7.7,1.56,11.5,2.43V28.98c.35,.09,.71,.17,1.06,.26V8.93c-4.53-1.06-9.07-2.02-13.62-2.87v13.43Z"/><path d="M186.28,43.12c-3.4-.78-6.8-1.5-10.21-2.17-3.2-4.97-6.41-9.89-9.63-14.76l-1.12-1.69c-.28-.05-.55-.09-.83-.14v14.56c-3.84-.6-7.72-1.14-11.59-1.59v-14.8c-.36-.05-.71-.09-1.06-.14,0,5.3,0,10.59,0,15.89,4.58,.53,9.15,1.16,13.71,1.89v-13.38c3.32,5.03,6.63,10.11,9.94,15.25,.03-.03,.07-.06,.1-.08,3.92,.76,7.83,1.6,11.74,2.51v-15.21c-.35-.09-.71-.17-1.06-.26v14.14Z"/><path d="M164.5,24.36c.28,.05,.55,.09,.83,.14l-.83-1.26v1.12Z"/><path class="cls-4" d="M164.5,38.91v-14.56c-3.92-.69-7.78-1.31-11.59-1.84v14.8c3.87,.46,7.75,.99,11.59,1.59Z"/><path class="cls-4" d="M166.45,26.19c3.21,4.87,6.42,9.79,9.63,14.76,3.41,.67,6.81,1.39,10.21,2.17v-14.14c-7.13-1.75-14.13-3.25-20.95-4.48l1.12,1.69Z"/><path class="cls-2" d="M164.5,23.24l.83,1.26c6.83,1.22,13.82,2.73,20.95,4.48V9.77c-3.8-.88-7.65-1.7-11.5-2.43v15.73l-1.95-3c-3.22-4.96-6.45-9.88-9.69-14.74-3.41-.52-6.82-.99-10.23-1.39V22.52c3.81,.53,7.67,1.15,11.59,1.84v-1.12Z"/><path d="M231.27,32.32v-13.93c-13.13-4.63-26.37-8.6-39.69-11.91,0,7.93,0,15.87,0,23.8,.36,.09,.7,.17,1.06,.26V7.84c12.56,3.16,25.19,6.96,37.57,11.3v11.69c-6.73-2.35-13.57-4.55-20.35-6.55l-1.36-.4v5.94l.76,.22c5.98,1.77,12.02,3.69,17.96,5.73v5.94c.36,.13,.71,.26,1.06,.39v-7.09c-6.22-2.14-12.46-4.14-18.73-5.99v-3.72c7.27,2.14,14.51,4.49,21.71,7.03Z"/><path d="M227.23,45.56c-5.76-1.96-11.6-3.82-17.37-5.52l-1.36-.4v5.93l.76,.22c6.97,2.06,14.01,4.33,20.95,6.76v11.69c-12.41-4.33-25.04-8.1-37.57-11.24V30.54c-.36-.1-.7-.17-1.06-.26v23.54c13.32,3.31,26.56,7.28,39.69,11.91v-13.93c-7.2-2.54-14.44-4.88-21.71-7.03v-3.72c6.26,1.85,12.51,3.84,18.73,5.99v-4.94c-.36-.13-.71-.26-1.06-.39v3.85Z"/><path class="cls-2" d="M227.23,35.76c-5.94-2.03-11.98-3.96-17.96-5.73l-.76-.22v-5.94l1.36,.4c6.78,2,13.62,4.2,20.35,6.55v-11.69c-12.39-4.34-25.02-8.14-37.57-11.3V30.54c11.18,2.97,22.74,6.71,34.59,11.16v-5.94Z"/><path class="cls-4" d="M230.21,64.24v-11.69c-6.94-2.43-13.98-4.71-20.95-6.76l-.76-.22v-5.93l1.36,.4c5.77,1.7,11.6,3.56,17.37,5.52v-3.85c-11.85-4.45-23.41-8.19-34.59-11.16v22.45c12.54,3.14,25.17,6.91,37.57,11.24Z"/></g><rect class="cls-3" x="9.09" y="32.89" width="16.11" height="1.83" transform="translate(-20.15 40.57) rotate(-73.39)"/></svg>