<?xml version="1.0" encoding="utf-8"?>
<!-- Generator: Adobe Illustrator 26.5.0, SVG Export Plug-In . SVG Version: 6.00 Build 0)  -->
<svg version="1.1" id="Layer_1" xmlns="http://www.w3.org/2000/svg" xmlns:xlink="http://www.w3.org/1999/xlink" x="0px" y="0px"
	 viewBox="0 0 24 24" style="enable-background:new 0 0 24 24;" xml:space="preserve">
<style type="text/css">
	.st0{fill:#683AFF;}
</style>
<path class="st0" d="M12.2,10.3l1.1-1.9l3.8-0.2l0.1-0.2l-3.5-0.2l0.8-1.4H21c2,0,3.5,0.7,2.9,2.8c-0.2,0.6-1,2.2-3.4,2.9
	c0.5,0.1,1.8,0.6,1.5,2.1c-0.4,2.6-3.7,3.8-5.5,3.8l-7.6,0l-0.4-1.5l4-0.3l0.1-0.2l-4.3-0.3l-0.5-1.8l6.2-0.4l0.1-0.2L3.1,12.5
	l0.5-0.9l11.9-0.8l0.1-0.2L12.2,10.3 M17.2,10.7l1.1,0c0.7,0,1.5-0.3,1.8-1C20.3,9,20,8.5,19.5,8.5h-1.1L17.2,10.7z M15.9,12.9
	l-1.3,2.3h1.3c0.6,0,1.6-0.3,2-1.1c0.3-0.8-0.3-1.2-0.6-1.2H15.9L15.9,12.9z M6.3,16.4l-0.8,1.3l-5.5,0l0.5-0.9
	C0.5,16.8,6.3,16.4,6.3,16.4z M6.6,6.2l4.4,0l0.3,1.2L6.1,7.2L6.6,6.2z M11.6,8.5l0.5,1.8L4.6,9.8l0.5-0.9L11.6,8.5z M7.8,13.8
	l-1,1.7l-5.3-0.3l0.5-0.9L7.8,13.8z"/>
</svg>
