<?xml version="1.0" encoding="utf-8"?>
<!-- Generator: Adobe Illustrator 26.5.0, SVG Export Plug-In . SVG Version: 6.00 Build 0)  -->
<svg version="1.1" id="Layer_1" xmlns="http://www.w3.org/2000/svg" xmlns:xlink="http://www.w3.org/1999/xlink" x="0px" y="0px"
	 viewBox="0 0 100 57" style="enable-background:new 0 0 100 57;" xml:space="preserve">
<style type="text/css">
	.st0{fill-rule:evenodd;clip-rule:evenodd;fill:#683AFF;}
</style>
<path class="st0" d="M1.5,1.2v54H99v-54H1.5z M0.6,0.3h99.3V56H0.6V0.3z M83.6,31.2h5.5c-0.8,4.6-4.9,9.7-11.4,9.7
	c-8.1,0-11.7-7.1-11.7-12.6c0-7.5,4.7-12.7,11.6-12.7c6.1,0,10.4,4.5,11.3,9.7h-5.4c-0.6-2-2.6-4.7-5.9-4.7c-3.8,0-6.4,3.8-6.4,7.6
	c0,4.6,3.1,7.7,6.4,7.7C80.7,35.9,82.9,33.6,83.6,31.2z M37.3,40.3V16.1h8.6l4.5,17.6l4.5-17.6h8.6v24.2h-5.6V22.9l-4.9,17.4h-5.2
	l-4.9-17.4v17.4H37.3z M26.8,29.7c-7.4,0-9.1,1.5-9.1,3.9c0,1.7,1.9,2.4,4.3,2.4c4,0,6.6-2.1,6.6-5v-1.3H26.8z M23.5,15.6
	c7.9,0,10.7,4.2,10.7,11.1v13.6h-5.4l-0.1-1.8c-1.2,1-4.6,2.5-7.8,2.5c-5.1,0-9-3.5-9-7.5c0-5.5,5.1-8,14.1-8h2.7
	c0-2.9-1.4-5.2-5-5.2c-3.6,0-5,1.7-5.1,3.2H13C13,20.7,15.5,15.6,23.5,15.6z"/>
</svg>
