<?xml version="1.0" encoding="UTF-8"?><svg id="Layer_1" xmlns="http://www.w3.org/2000/svg" viewBox="0 0 900 420"><defs><style>.cls-1{fill:#683aff;}.cls-2{fill:none;stroke:#fff;stroke-miterlimit:10;stroke-width:20px;}</style></defs><path class="cls-1" d="M280,120h-70c-49.71,0-90,40.29-90,90s40.29,90,90,90h78.3c6.46,0,11.7-5.24,11.7-11.7h0V81.7C300.05,36.58,336.67,.04,381.8,.1c29.26,.03,56.27,15.71,70.8,41.1l87.4,152.9V81.7C540.05,36.58,576.67,.04,621.8,.1c29.26,.03,56.27,15.71,70.8,41.1l87.4,152.9V0h50l10,10,10-10h50V338.3c-.05,45.12-36.67,81.66-81.8,81.6-29.26-.03-56.27-15.71-70.8-41.1l-87.4-152.9v112.4c-.05,45.12-36.67,81.66-81.8,81.6-29.26-.03-56.27-15.71-70.8-41.1l-87.4-152.9v112.4c0,45.12-36.58,81.7-81.7,81.7H210C94.02,420,0,325.98,0,210S94.02,0,210,0h70V50l-10,10,10,10v50Z"/><path class="cls-2" d="M280,60h-70c-82.84,0-150,67.16-150,150s67.16,150,150,150h128.3c11.98,0,21.7-9.72,21.7-21.7V81.7c.02-11.98,9.75-21.68,21.74-21.66,7.74,.01,14.89,4.15,18.76,10.86l159,278.2c5.99,10.38,19.25,13.95,29.64,7.96,6.71-3.87,10.85-11.02,10.86-18.76V81.7c.02-11.98,9.75-21.68,21.74-21.66,7.74,.01,14.89,4.15,18.76,10.86l159,278.2c5.99,10.38,19.25,13.95,29.64,7.96,6.71-3.87,10.85-11.02,10.86-18.76V0"/></svg>