<?xml version="1.0" encoding="utf-8"?>
<!-- Generator: Adobe Illustrator 26.5.0, SVG Export Plug-In . SVG Version: 6.00 Build 0)  -->
<svg version="1.1" id="Layer_1" xmlns="http://www.w3.org/2000/svg" xmlns:xlink="http://www.w3.org/1999/xlink" x="0px" y="0px"
	 viewBox="0 0 500 163.7" style="enable-background:new 0 0 500 163.7;" xml:space="preserve">
<style type="text/css">
	.st0{fill-rule:evenodd;clip-rule:evenodd;fill:#683AFF;}
</style>
<path class="st0" d="M192,142.8c-18.6-12-43.9-14.1-84.6-2.8c-43.4,10.2-57.9,16.7-76.9,3.6c-7.3-6.4-9.9-16.8-8-31.8
	C27.1,87.5,39.4,64,61.1,38C73.3,24.4,84.5,12.8,99.4,8.2c11.4-2.9,10.3,6,9,7.3c-1.5,0-3.9,0.2-5.8,1.5c-1.5,1.2-5.8,5-6,10.2
	c-0.3,7.9,7.9,6.3,11.4,1.9c3.8-4.9,9.4-14.3,5-23c-1.8-3.1-5.1-5.3-9-6C90.3-0.7,77.7,5.8,65.9,13C40.3,30.8,19.9,55.4,8.3,82.4
	C1.6,98.7-4.5,122,4.6,141c7,13.2,21.6,20.2,38.9,18.7c12.2-1.3,26.9-5.2,36.8-7.6c9.9-2.4,60.6-19.8,77.3,10.5
	c0,0,5.5-10.8,19.4-11c11.4-1.1,27.8,3.3,39.8,12.1C212.7,157.7,201.4,148.9,192,142.8L192,142.8L192,142.8z M112.6,41
	c-9.5-6.2-28.5,5.7-43.8,26.1c-14,18.3-20,39.6-13.4,49.4c9.8,11.6,27.9-5.3,35.6-14.3l1-1.1c5.2-5.6,9.3-12.4,13.2-18.9
	c0,0,3.6-5.9,3.8-6.2c2.2-0.4,4.9-1.1,7.9-1.9c0,0.1-11.6,19.5-10.4,29.1c0.4,2.9,0.1,13.6,10.5,16.9c13.9,2.3,25-8.5,34.9-18.1
	c0,0,1.7-1.6,2.6-2.5c-0.2,1-0.6,2.2-0.6,2.2c-4.1,14.2,1.4,17.2,4.9,18.2c10.4,3,22.8-12.1,22.8-12.1c-0.3,4.8-1.3,8.7,3.8,11.8
	c4.7,1.7,9.5-0.9,13.2-3.3c13.1-9.2,23.7-23.7,32.2-36.2h-5.4c-0.1,0-13.4,19.4-22.1,23.6c0,0-1.6,0.8-2.5,0.2c-1.1-1-0.7-3,0-4.4
	c0-0.1,33.5-58.1,33.5-58.1h-15.8c0,0-1.7,2.8-1.9,3c-0.1-0.1-0.4-0.6-0.5-0.8c-9.8-13.5-31.9,7.3-48.6,31.4
	c-6.4,9.3-14.6,19.7-23.1,27.3c0,0-12.6,11.5-17.9,3.2c-2-3.5-1.4-8.6-0.2-11.9c6.2-17.8,17-33.9,29.3-43.7c3.5-2.7,7.2-3.5,9.1-2.3
	c1.8,1,2.1,3.7,0.9,5.4c-2.9-0.1-5.1,0.8-7,2.7c-3.7,3.8-4.9,7.5-3.8,11c5.7,8.1,16.9-7.9,16.4-17.6c-0.2-3.5-2.1-6.8-4.8-8.4
	c-4.1-2.5-10.4-1.8-14.5,0.1c-5.4,2.1-14.1,9.2-19.1,14.8c-6.3,7-17.2,14.8-20.6,13.9C113.1,66.9,122.3,48.1,112.6,41L112.6,41
	L112.6,41z M188.8,68.9c3.1-4.2,12-15.6,14.2-17.6c7.3-6.5,10.3-3.6,10.5-1.6C206.6,62,198.6,76,191,88.6c0,0-2.4,3.6-2.4,3.6
	c-3.4,5.1-6.7,9.5-12.2,12.6c-0.8,0.2-2.1,0.3-2.9-0.3c-1-0.7-1.4-1.8-1.3-3C172.4,97.6,176.4,85.5,188.8,68.9L188.8,68.9
	L188.8,68.9z M102.8,76.2c0,0-0.1,0.4-0.2,0.6c0,0-6.9,11.2-6.9,11.2c-4.2,5.5-9.3,12.5-15.8,15.8c-1.9,0.6-4.6,1.1-5.9-0.6
	c-2.9-3.4-1.4-8.2-0.2-12l0.4-1.4c3.4-9.3,8.9-17.6,14.2-25.2c0.1,0,0.2-0.1,0.3-0.1l0,0.1C92.1,71,98.4,74,103,75.4
	c0,0,0.1,0,0.1,0.1C103.1,75.7,103,75.8,102.8,76.2L102.8,76.2L102.8,76.2z M109.3,63c0,0.1-3.1,7-3.1,7c-0.4,0.4-1.1,0.2-1.9,0
	l-1.4-0.2c-4.3-1.3-7.5-4.2-8.5-7.5c-1.4-6.6,4.3-11.8,6.7-13.6c2.4-1.7,6.1-2.5,8.2-0.8c1.3,1.6,1.8,3.6,1.8,5.8
	C111.3,56.5,110.4,59.9,109.3,63L109.3,63z M309,84.2c-1.5-3.3-5.1-5.4-9-5.2c-12.5,1.1-24.8,11.4-31.2,26.2
	c-3.4,7.6-5.2,13.9-6.4,23.8c3.9-4.5,11.8-11.8,20.8-15.9c0,0,1.2-9.6,7.5-18.1c2.4-3.5,7.1-9.2,12.4-7.7c4.6,1.6,3,14.4-3.2,26.8
	c-4.6,9.2-11.5,18.3-18.6,24.6c-6.2,5.3-15.5,11.7-23.6,6.8c-5.1-3-7.7-9.3-7.1-17.5c2.4-23.1,13-42.8,28-65.2
	c15.5-20.8,32.6-42.2,55.7-53.6c4.7-2.4,9-2.9,12.8-1.5c0,0-21.6,11.9-31.9,33.9c-2.6,5.6-6.3,13.1-2.6,19.8
	c1.9,3.5,5.3,3.8,8.1,3.6c12.6-2.9,20.8-14.7,27.5-25.5c3.9-8.2,7.3-16.3,7.3-25.4c0-1.1-0.1-2.6-0.1-3.7c6-3.2,18.4,2.5,18.4,2.5
	c9.7,3.2,30.3,19,37.2,22c3.4-3.9,9-9.9,12.1-12.9l-4.5-2.8c-7.3-4.4-15-8.6-22.5-12.8c-17.2-9.4-31.1-6.1-38.3-3.5
	c-2.8,1-5.4,1.9-5.4,1.9c-5.3-5.8-13.9-5.2-20.3-3.7c-23,6.6-44.2,22.6-67.1,50.5c-16.8,21.8-27.2,40.7-32.8,59.3
	c-4.3,12.5-5.6,31,4.9,41.9c8.9,9.3,20.7,7.3,29,3.9c18-8.9,34.2-28,42.3-50C310.2,100.5,312.4,91.3,309,84.2L309,84.2L309,84.2z
	 M350.5,15.3c-2.4,27.3-23.6,43.4-28.9,44.7c-3.2,0.6-8.6-0.8-3.8-12.3c7.1-15.5,19.4-28.6,32.5-35.3
	C350.6,13.6,350.6,14.3,350.5,15.3z M476.6,18.8c-11.4,6.5-23.3,10.7-37.6,9.2c-4,4.5-7.9,9.1-11.4,13.9
	c20.1,5.1,41.5-6.3,53.4-17.1C493.5,13.8,500,0.1,500,0.1S490.6,10.9,476.6,18.8L476.6,18.8L476.6,18.8z M260.5,41.6h-15L237,55.3
	h15L260.5,41.6L260.5,41.6z M438.9,144.1c-1.6,1.1-3.9,0.2-3-2.3c2.1-6.4,10.5-19.4,10.5-19.4l23.4-41.4h-16
	c-0.8,1.2-2.4,4.1-2.4,4.1c-0.7-1.2-3-4-3.9-4.6c-3.9-2.5-9.6-1.3-13.6,0.9c-17.2,10.1-29.8,29.9-39.7,45.5c0,0-10.4,17.2-16.2,18.5
	c-4.5,0.4-4-5.7-3.9-7.1c1.8-10.2,5.8-20,9.9-28.8c8.3-5.8,17.8-13.3,26.4-21.6c18.7-17.9,34.5-38.2,36.8-42.7c0,0-2.5,0.5-5.4,0.6
	C427.4,65.8,397.9,95,389,99.4c4-9.5,29.5-54.9,51.3-76.7l3.4-3.3c5.3-5.2,10.8-10.5,15-11.3c0.5-0.1,1,0,1.5,1.1
	c0.2,4-1.3,7-3,10.4l-2.4,4.9c0,0,3.4-0.6,5.6-1.4c2.6-4.9,5.5-10.4,4.4-16.9c-0.4-2.1-1.9-3.7-3.9-4.1c-6.5-1.2-13.6,3.6-19.2,7.5
	l-0.2,0.1c-29.2,22.9-54,55.9-75.5,101c-1.6,1.2-7.6,2.6-8.6,1.9c2.1-4.4,4.8-10.3,6.2-16.7c0.2-1.8,0.5-3.7,0.5-5.5
	c0-3.9-1-7.6-4.5-10.2c-4.1-2.1-9.2-1.1-12.7,0.5c-15.4,6.4-27,22.2-35.3,35.3c-4.5,8.3-8.9,17.1-10.2,27.3
	c-0.9,8,0.9,13.1,5.4,15.6c4.6,2.4,10.5-0.1,12.8-1.3c15.6-8.2,26.6-24.7,35.2-39.8c0.3,0,5-0.2,8.6-1.1l0.1,0.1
	c-0.2,0.7-2,6.2-2,6.2c-5.5,16-8,26.9-2.8,33.3c7.4,9.1,19.6-0.3,29.5-12.8c-2.1,14.9,5.6,17.2,11.5,16.1
	c6.8-1.8,14.3-9.1,17.8-12.8c-1.1,4.4-0.8,12.1,5.3,12.9c4.2,0.8,7.4-1.5,11-3.5c13.1-7.1,28.8-30.9,32.9-37.8h-5.3
	C455.5,127.2,448.2,138.7,438.9,144.1L438.9,144.1L438.9,144.1z M321.2,142.5c-0.8-1.2-1.1-2.6-1.1-4.1c-0.2-9,9.5-25,16.3-33.8h0
	c2.9,6.2,9.3,10.3,13.2,12C344.8,127.4,328.2,150.5,321.2,142.5z M352.4,111.8c-0.5,0.3-8.6-2.4-10.2-10c-1.3-6.5,3.1-11.6,7.5-14.1
	c1.9-1.5,4.7-2,6.7-1.2c1.9,1.3,2.4,3.6,2.4,6c0,1.5-0.2,3.1-0.4,4.5l0,0.3C357,102.4,355,107.3,352.4,111.8z M417.8,139.6l-1.5,1.4
	c-2.2,2-4.5,4.1-7.2,3c-0.8-0.3-1.3-1.3-1.4-2.1c-0.1-5.6,2.4-10.8,4.9-15.9l0.6-1.3c7.1-11.8,15.3-25.7,27.4-35.3
	c2-1.5,4.2-2.7,6.6-1.7c0.5,0.5,1.2,1.4,1.2,2.2c0,0.3-0.2,1-0.4,1.2c-3.4,5.4-6.6,11.2-9.7,16.7C432,118.6,425.7,129.8,417.8,139.6
	L417.8,139.6L417.8,139.6z"/>
</svg>
