<?xml version="1.0" encoding="UTF-8"?><svg id="Layer_1" xmlns="http://www.w3.org/2000/svg" viewBox="0 0 500 163.72"><defs><style>.cls-1{fill:#a682fa;fill-rule:evenodd;}</style></defs><path class="cls-1" d="M192,142.82c-18.6-11.99-43.85-14.09-84.57-2.79-43.41,10.2-57.88,16.74-76.89,3.61-7.3-6.45-9.92-16.83-7.97-31.79,4.53-24.38,16.79-47.84,38.55-73.87,12.15-13.54,23.42-25.16,38.3-29.82,11.4-2.93,10.34,6.04,8.96,7.32-1.46,0-3.9,.23-5.79,1.46-1.53,1.19-5.75,5.03-5.97,10.2-.33,7.91,7.86,6.27,11.39,1.92,3.81-4.9,9.43-14.27,5.01-23.01-1.85-3.11-5.06-5.26-9.04-5.99-13.63-.78-26.32,5.72-38.03,12.9C40.34,30.75,19.85,55.41,8.26,82.4c-6.68,16.28-12.73,39.61-3.67,58.59,7.01,13.17,21.56,20.17,38.92,18.71,12.18-1.28,26.9-5.21,36.81-7.59,9.9-2.38,60.6-19.8,77.25,10.52,0,0,5.54-10.75,19.38-10.98,11.38-1.05,27.8,3.29,39.75,12.08-3.98-5.99-15.28-14.82-24.7-20.9h0ZM112.6,41.05c-9.48-6.22-28.54,5.67-43.8,26.07-13.96,18.3-19.98,39.57-13.43,49.4,9.76,11.57,27.87-5.26,35.57-14.27l.99-1.05c5.24-5.63,9.28-12.4,13.2-18.89,0,0,3.6-5.95,3.77-6.22,2.23-.41,4.9-1.05,7.93-1.92-.04,.14-11.55,19.49-10.38,29.09,.37,2.93,.09,13.63,10.54,16.88,13.93,2.34,25.05-8.46,34.86-18.07,0,0,1.67-1.6,2.62-2.51-.24,.96-.55,2.24-.55,2.24-4.08,14.18,1.42,17.16,4.86,18.25,10.39,3.02,22.8-12.07,22.84-12.07-.32,4.76-1.26,8.69,3.75,11.85,4.73,1.69,9.52-.89,13.16-3.31,13.11-9.24,23.67-23.7,32.2-36.2h-5.44c-.07,0-13.43,19.37-22.1,23.58-.01,0-1.59,.81-2.5,.17-1.13-.96-.68-2.96,.01-4.37,.04-.09,33.5-58.12,33.5-58.12h-15.8s-1.73,2.79-1.87,2.98c-.11-.09-.36-.57-.53-.8-9.79-13.54-31.95,7.29-48.64,31.44-6.43,9.29-14.6,19.74-23.08,27.29,0,0-12.57,11.52-17.93,3.24-1.96-3.48-1.36-8.56-.25-11.9,6.25-17.79,17.02-33.94,29.28-43.68,3.46-2.7,7.22-3.48,9.09-2.33,1.78,1.05,2.07,3.66,.94,5.44-2.85-.09-5.14,.78-7,2.7-3.66,3.84-4.93,7.55-3.77,11.02,5.66,8.05,16.94-7.87,16.39-17.57-.2-3.48-2.05-6.77-4.82-8.37-4.13-2.47-10.42-1.83-14.49,.14-5.45,2.06-14.08,9.24-19.12,14.82-6.34,7-17.22,14.77-20.62,13.9,1.11-2.97,10.3-21.77,.63-28.82h0Zm76.16,27.81c3.07-4.25,12.02-15.64,14.2-17.56,7.33-6.45,10.26-3.61,10.52-1.6-6.85,12.26-14.92,26.3-22.52,38.93,.02-.04-2.38,3.61-2.38,3.61-3.35,5.12-6.73,9.51-12.24,12.58-.79,.23-2.08,.32-2.94-.32-1.04-.69-1.45-1.83-1.33-3.02,.33-3.93,4.33-15.96,16.69-32.61h0Zm-85.94,7.36s-.14,.41-.21,.55c-.02,0-6.89,11.21-6.89,11.21-4.15,5.54-9.32,12.49-15.79,15.83-1.92,.64-4.57,1.05-5.92-.64-2.86-3.43-1.39-8.19-.19-12.03l.43-1.37c3.44-9.33,8.89-17.57,14.21-25.2,.07-.04,.21-.09,.27-.09l.04,.14c3.33,6.4,9.58,9.37,14.25,10.75,.03,0,.06,.04,.06,.14,0,.14-.08,.32-.26,.73h0Zm6.51-13.22c-.03,.09-3.06,7.04-3.06,7.04-.44,.37-1.13,.18-1.93,0l-1.36-.23c-4.27-1.32-7.49-4.16-8.49-7.55-1.37-6.59,4.26-11.76,6.74-13.63,2.38-1.65,6.08-2.52,8.22-.82,1.32,1.56,1.83,3.57,1.83,5.76,0,2.97-.92,6.31-1.96,9.42Zm199.71,21.22c-1.52-3.29-5.14-5.4-8.99-5.17-12.51,1.14-24.76,11.43-31.18,26.21-3.37,7.59-5.21,13.86-6.42,23.83,3.89-4.48,11.83-11.85,20.84-15.87,0,0,1.23-9.56,7.48-18.07,2.36-3.52,7.1-9.19,12.41-7.69,4.64,1.56,3.01,14.41-3.16,26.85-4.57,9.15-11.55,18.3-18.62,24.61-6.25,5.31-15.5,11.71-23.59,6.77-5.1-3.02-7.7-9.33-7.15-17.47,2.43-23.1,12.95-42.77,28-65.18,15.52-20.81,32.62-42.17,55.66-53.56,4.7-2.38,9.05-2.93,12.81-1.46,0,0-21.63,11.89-31.94,33.89-2.62,5.58-6.27,13.13-2.6,19.81,1.92,3.48,5.33,3.75,8.07,3.57,12.64-2.93,20.8-14.73,27.47-25.52,3.87-8.19,7.3-16.33,7.3-25.39,0-1.1-.06-2.56-.15-3.66,6.04-3.2,18.42,2.47,18.42,2.47,9.67,3.2,30.27,18.99,37.22,22,3.39-3.93,8.96-9.88,12.1-12.85l-4.54-2.79c-7.27-4.44-14.95-8.65-22.51-12.81-17.17-9.38-31.15-6.08-38.27-3.52-2.8,1.01-5.35,1.88-5.35,1.88-5.28-5.76-13.94-5.21-20.32-3.66-22.95,6.59-44.25,22.64-67.09,50.5-16.79,21.82-27.21,40.67-32.76,59.28-4.28,12.53-5.58,30.97,4.86,41.9,8.88,9.28,20.66,7.27,28.97,3.93,18.02-8.87,34.21-27.99,42.28-50,1.95-6.54,4.11-15.78,.76-22.82h0ZM350.47,15.29c-2.39,27.35-23.65,43.41-28.91,44.69-3.19,.64-8.63-.78-3.77-12.26,7.15-15.46,19.36-28.59,32.46-35.31,.32,1.14,.31,1.87,.22,2.88Zm126.12,3.48c-11.44,6.5-23.29,10.7-37.64,9.24-3.98,4.48-7.85,9.1-11.42,13.86,20.14,5.12,41.5-6.27,53.41-17.11C493.54,13.83,500,.06,500,.06c0,0-9.44,10.79-23.4,18.7h0Zm-216.14,22.78h-15l-8.46,13.75h15l8.47-13.75Zm178.44,102.54c-1.61,1.1-3.88,.25-3.03-2.26,2.11-6.4,10.5-19.45,10.5-19.45l23.37-41.45h-16.01c-.76,1.25-2.39,4.12-2.39,4.12-.74-1.23-2.95-3.98-3.87-4.57-3.91-2.47-9.65-1.3-13.61,.94-17.21,10.06-29.77,29.95-39.67,45.46,0,0-10.42,17.24-16.21,18.52-4.52,.37-4.05-5.72-3.86-7.14,1.75-10.25,5.8-19.99,9.89-28.82,8.31-5.76,17.8-13.31,26.42-21.59,18.71-17.89,34.49-38.15,36.79-42.68,0,0-2.5,.5-5.44,.59-14.39,20.08-43.85,49.26-52.78,53.61,3.96-9.52,29.52-54.93,51.27-76.66l3.42-3.29c5.29-5.17,10.78-10.47,15.05-11.34,.45-.05,1.03,0,1.53,1.05,.19,4.02-1.31,7-3.03,10.38l-2.41,4.94s3.41-.64,5.65-1.37c2.6-4.89,5.48-10.38,4.42-16.92-.35-2.11-1.88-3.71-3.87-4.07-6.49-1.24-13.56,3.57-19.25,7.46l-.23,.14c-29.25,22.92-53.95,55.94-75.55,101.04-1.57,1.19-7.61,2.61-8.64,1.92,2.13-4.39,4.82-10.29,6.16-16.69,.23-1.83,.45-3.71,.45-5.53,0-3.94-.95-7.64-4.47-10.2-4.14-2.06-9.25-1.1-12.69,.46-15.44,6.4-26.97,22.23-35.3,35.26-4.48,8.28-8.94,17.15-10.18,27.31-.87,7.96,.9,13.08,5.43,15.64,4.65,2.38,10.51-.09,12.81-1.28,15.64-8.23,26.57-24.74,35.18-39.84,.34-.04,5.05-.18,8.6-1.1l.15,.05c-.2,.68-2.04,6.18-2.04,6.18-5.46,16.01-7.98,26.89-2.83,33.34,7.37,9.1,19.57-.32,29.49-12.76-2.13,14.91,5.6,17.24,11.49,16.1,6.77-1.83,14.31-9.06,17.81-12.76-1.12,4.35-.82,12.12,5.34,12.9,4.22,.78,7.38-1.52,11.03-3.48,13.11-7.14,28.79-30.92,32.87-37.79h-5.34c-5.79,8.75-13.16,20.22-22.43,25.67h0Zm-117.64-1.59c-.83-1.24-1.11-2.59-1.13-4.05-.16-8.97,9.49-25.03,16.3-33.78h.01c2.85,6.25,9.32,10.27,13.22,11.96-4.85,10.8-21.47,33.92-28.4,25.87Zm31.14-30.69c-.46,.32-8.61-2.42-10.19-9.97-1.34-6.5,3.14-11.57,7.47-14.13,1.86-1.46,4.66-1.97,6.71-1.24,1.9,1.28,2.42,3.57,2.42,6.04,0,1.51-.2,3.07-.38,4.48l-.04,.32c-1.36,5.07-3.38,9.94-5.99,14.5Zm65.37,27.81s-1.55,1.37-1.55,1.37c-2.2,1.97-4.46,4.07-7.19,3.02-.75-.27-1.29-1.28-1.41-2.06-.12-5.63,2.41-10.84,4.87-15.92l.63-1.33c7.07-11.8,15.28-25.71,27.35-35.35,2.03-1.47,4.24-2.7,6.57-1.74,.54,.5,1.16,1.37,1.16,2.24,0,.27-.24,1.01-.39,1.24-3.37,5.45-6.58,11.16-9.7,16.65-6.1,10.84-12.43,22.04-20.33,31.88h0Z"/></svg>