<?xml version="1.0" encoding="utf-8"?>
<!-- Generator: Adobe Illustrator 26.5.0, SVG Export Plug-In . SVG Version: 6.00 Build 0)  -->
<svg version="1.1" id="Layer_1" xmlns="http://www.w3.org/2000/svg" xmlns:xlink="http://www.w3.org/1999/xlink" x="0px" y="0px"
	 viewBox="0 0 460 190.2" style="enable-background:new 0 0 460 190.2;" xml:space="preserve">
<style type="text/css">
	.st0{fill-rule:evenodd;clip-rule:evenodd;fill:#683AFF;}
</style>
<path class="st0" d="M231.4,20.8c3.1,0.1,6.1,1.3,8.5,3.4c3.2,3,4.1,8.1,2.6,12.2c-5.9,12.2-20.1,20.4-29.7,23.1
	c-5.8,1.4-13.1,1.4-18.3-0.7c-2.6,1.5-4.7,6.5-7.8,4.4c-4.5-3.5-0.6-9-3.2-12.9c-0.5-0.8-1.9-0.9-2.6-2.2
	c-3.6-7.8,0.9-15.3,5.8-21.2C194.8,17.7,218.3,7.5,231.4,20.8L231.4,20.8z M204.1,26.9c-4.6,0.9-9.8,2.8-12.6,6.1s-4.6,6.5-2.9,9.8
	c5.9-4.4,8.8-10.5,15.4-14.2C204.1,27.9,205.1,27.4,204.1,26.9C204.1,26.9,204.1,26.9,204.1,26.9z M231.7,28.6
	c-11.7-1-20.5,7.8-28.9,16.3c-0.5,1.4-3.6,2.9-1.2,4.4c11.2,1,21.9-2.2,30-9.7c2.4-2.2,4.1-5.1,2.9-8.1
	C234.1,30.3,232.9,29.1,231.7,28.6z M333.2,79.1c5.4,13.2,10,34.1,0,46.8c-2.7,3.1-7.5,5.9-10.5,3.6c-11.2-9-16-21.9-22.9-33.4
	c-1-0.5-1,0.8-1.5,1.4c-2.5,11.7,2.2,27-5.8,36.1c-3,0.5-5.9-1.1-7-4.1c-3.9-12.1,0.2-24.6,1.2-36.7c2.4-6.1,3.4-13.2,8.7-17.8
	c8.5,3.4,12.6,12.9,17.5,19.9c3.6,5.3,6.5,11.2,10.5,15.9c3.6-1.5,1.8-6.2,1.7-9c-1.4-11-4.4-21.2-7.3-31.7c-0.2-2.7-1.7-7.3,1.2-9
	C326.6,64.6,329.8,72.5,333.2,79.1L333.2,79.1L333.2,79.1z M282,75.1c0,2.6-2,5.7-3.7,6.1c-16.3,2.5-34.4,1-49.7,6.1
	c-0.5,1.9,1.7,2.2,2.9,2.7c13.1,2,26.8,2.5,39.5,5.8c6.7,1.7,9.2,9.7,9.7,16.3c0.3,5.2-1.7,11.5-6.8,15.1c-12.5,8-31.7,7.6-44.5,0.3
	c-4.9-2.7-9.5-7.1-9.8-12.6c0-4.3,1.9-7.7,4.9-9.3c12.2-4.9,27.3-2.2,37.8,4.1c0.7,3.4-3,3.2-4.8,4.4c-11.7,6.8-20.5-7.6-31.4-2.4
	c-1.5,1-2.6,3.9-0.9,4.8c13.4,5.9,28.3,1.7,41.6-2c1.5-0.5,3.4-2,3.6-3.6c-0.5-5.4-6.6-6.6-10.5-8.1c-11.5-2.9-24.3-2.9-36.6-4.1
	c-2.4-0.5-5.4-2.2-6.1-4.1c-1.4-4.1-1.4-9.7,1.7-13.1c15.8-13.9,39.7-12.7,59.7-9C279.9,73,281.4,73.5,282,75.1L282,75.1L282,75.1z
	 M207.8,81.5c1.5,16.3,2.4,31.4,2,48.5c-0.3,2.2-2.9,2.7-4.6,3.6c-2.7,0.5-6.2-0.1-7.3-1.5c-3.9-6.3-2.5-14.8-2.9-22.4
	c0.5-12,0.3-25.1,3.7-36.3c0.6-1.6,2.5-3.1,4.1-2C207,73.4,207.7,77.4,207.8,81.5L207.8,81.5L207.8,81.5z M396.4,79.1
	c0.8,1.4,1.7,3.5,0,4.4c-7.6,3.4-18,1.9-26.8,2.9c-2.4,2-4.2,5.4-3.4,8.5c0.9,0.5,1.6,1.3,2.5,1.2c5.4,0.3,13.6-2.5,17.1,2.5
	c0.9,1.5-0.1,7.2-2.5,7.3c-6.6,0.8-17.5-0.8-20.7,0.8c-4.1,2.7-3.7,8-5.3,12.2c2.9,1.9,5.9,0,9.3-0.5c6.3-1,13.2-2.9,19.5-1.5
	c1.2,2.2,2.9,4.6,1.7,7.3c-10.7,8.5-24.5,17.2-39.2,11c-5.5-2.5-8-10.9-6.1-18c1.2-5.1,6.4-10,3.2-15.4c-0.5-2.4,0.9-4.4,2.9-4.9
	c5.6,0,4.4-7,7.3-10.2c-3.2-3.6-11.4-3.4-10.5-10.5c3.9-2,8.7-1.4,13.1-2c10-2,21.2-3.2,31.4-2C391.9,72.6,394.6,76.6,396.4,79.1
	L396.4,79.1L396.4,79.1z M154,40.4c15.7,12.8,36,34.6,33.4,59.7c-3.1,19.9-24.1,34.8-41.9,39.5c-17.3,5.1-39,4.6-56.7,0.5
	c-1.2,3.2-2.4,7.1-6.1,8.5c-2.4,0.9-5.4,0.3-7.3-1.2c-5.3-4.9-1-14.4-8.7-17.5c-14.9-6.3-31.1-18.7-38.7-33.9c-1-3.1,0.2-6.1,2-8.5
	c11.7-9.3,26.5-13.1,41.2-15.9c0.8,0.3,0.5-0.8,1.2-1.2c0.8-10.2,1.2-20.5,4.4-29.7c0.7-1.3,2.6-1.7,3.7-0.8
	c9.3,7.1,4.9,20.5,9,30.2c17.8,0.8,35.6,1.7,49.7,11.7c4.8,3.9,5.9,11.3,4.4,15.6c-1.5,4.2-6.4,7.3-11,7.6c-3.1,0-8.8,0.3-8.5-2
	c0.3-2.3,10.4-6.2,7.3-9.3c-4.4-4.6-26.6-7.3-40.4-9c-1.7-0.3-3.2,0.2-3.2,2c-0.3,12.9-1.4,27.2,0.8,39.5c0.2,0.8,1.2,1.9,2,2
	c24.3,3.9,49.9,1.7,68.9-12.2c8.8-7.1,11.7-17.1,10.2-28.2c-7.6-30.7-39.7-49.2-66-61.1c-25.6-11.2-54-17-84.3-15.4
	c-4.8,0.4-12.5,2-12.6,3.7c-0.1,1.7,8.7,1.2,7.6,4.4c-1,3.2-9.9,1.3-12.6,0.5c-2.6-0.8-2.4-4.6-1.7-7C7.1,1.4,25.5,0.5,33.9,0.1
	C80-1.1,124.7,16.4,154,40.4L154,40.4L154,40.4z M70.9,85.9c-11.7,0.2-24.1,1.4-35,5.4c-2.2,0.8-4.9,3.2-3.2,6.1
	c4.4,5.9,10.7,10.8,16.6,14.2c5.9,3.4,13.8,7.8,20.9,8.8c1.7-11,1.7-21.9,1.5-33.3C71,86.9,71.7,86.3,70.9,85.9L70.9,85.9L70.9,85.9
	z M421.6,70.5c-0.5,14.8-14.3,23.9-14.3,38.7c0.5,0.5,0.9,1.2,1.5,0.8c11-12.1,21.9-29.2,38-34.3c4.2-0.3,8.1,3.3,9.7,6.1
	c5.6,11.2,4.2,27-3.6,37.2c-8.1,10-22.1,20-38,18.3c-6.6,16.3-11.2,33.4-13.8,51.2c-1.4,3.6-4.6,0.3-6.6-0.3
	c-13.7-10.9-2.5-39.6-1.5-43.3c0.9-3.7,4.6-12.3,7.3-19.5c-6.5-11.5-2.4-25.5,2.9-36.1c4.1-7.1,9.7-14.3,16.3-19.7
	C420.4,69.6,421.1,69.8,421.6,70.5L421.6,70.5L421.6,70.5z M449,88.8c-2-0.3-2.9,2.4-4.6,2.9c-7.8,8.8-15.6,17.7-19.5,28.2
	c5.3,0.7,9.7-2.7,14.3-4.6c7.8-4.9,12.7-13.1,12.2-22.4C451,91.4,449.6,90.2,449,88.8L449,88.8L449,88.8z"/>
</svg>
