<?xml version="1.0" encoding="UTF-8"?><svg id="Layer_1" xmlns="http://www.w3.org/2000/svg" viewBox="0 0 460 190.23"><defs><style>.cls-1{fill:#a682fa;fill-rule:evenodd;}</style></defs><path class="cls-1" d="M231.4,20.76c3.13,.15,6.12,1.34,8.48,3.39,3.23,3.05,4.07,8.15,2.55,12.22-5.93,12.22-20.05,20.38-29.7,23.08-5.77,1.36-13.07,1.36-18.33-.68-2.55,1.53-4.7,6.46-7.81,4.41-4.5-3.52-.6-9.02-3.2-12.92-.54-.8-1.89-.86-2.56-2.18-3.57-7.81,.85-15.27,5.77-21.21,8.2-9.15,31.73-19.35,44.8-6.11Zm-27.32,6.11c-4.58,.85-9.76,2.84-12.56,6.11-2.8,3.27-4.58,6.45-2.88,9.84,5.94-4.41,8.82-10.52,15.44-14.25,0-.68,1.01-1.19,0-1.7h0Zm27.66,1.7c-11.71-1.02-20.53,7.81-28.85,16.29-.51,1.36-3.56,2.88-1.19,4.41,11.2,1.02,21.89-2.2,30.04-9.67,2.38-2.21,4.07-5.09,2.89-8.15-.51-1.18-1.71-2.37-2.89-2.88Zm101.47,50.57c5.43,13.24,10.01,34.11,0,46.83-2.71,3.05-7.46,5.87-10.52,3.56-11.2-8.99-15.95-21.89-22.91-33.43-1.02-.51-1.02,.85-1.53,1.36-2.54,11.71,2.21,26.98-5.77,36.14-3.05,.51-5.91-1.06-6.96-4.07-3.9-12.05,.16-24.61,1.18-36.65,2.38-6.11,3.4-13.24,8.66-17.82,8.48,3.39,12.56,12.9,17.47,19.86,3.57,5.26,6.45,11.2,10.52,15.95,3.56-1.53,1.81-6.18,1.7-8.99-1.36-11.03-4.42-21.21-7.3-31.73-.17-2.71-1.69-7.3,1.19-8.99,7.65,3.4,10.86,11.37,14.26,17.99h0Zm-51.24-4.07c0,2.55-2.04,5.73-3.74,6.11-16.29,2.54-34.45,1.02-49.72,6.11-.51,1.87,1.7,2.21,2.88,2.71,13.06,2.04,26.81,2.54,39.54,5.77,6.73,1.71,9.17,9.68,9.67,16.29,.31,5.22-1.69,11.54-6.79,15.1-12.55,7.98-31.73,7.63-44.46,.34-4.87-2.73-9.5-7.12-9.84-12.56,.03-4.31,1.87-7.71,4.92-9.33,12.22-4.92,27.32-2.2,37.84,4.07,.67,3.4-3,3.21-4.76,4.41-11.71,6.79-20.53-7.63-31.39-2.38-1.53,1.02-2.63,3.86-.85,4.75,13.4,5.94,28.34,1.7,41.57-2.04,1.53-.51,3.39-2.04,3.56-3.56-.51-5.43-6.62-6.62-10.52-8.14-11.54-2.88-24.26-2.88-36.65-4.07-2.38-.51-5.4-2.16-6.11-4.07-1.36-4.07-1.36-9.67,1.7-13.07,15.78-13.92,39.7-12.73,59.73-8.99,1.36,.5,2.89,1.01,3.4,2.53h0Zm-74.15,6.45c1.53,16.29,2.38,31.4,2.04,48.53-.34,2.2-2.88,2.71-4.58,3.56-2.71,.51-6.22-.07-7.3-1.53-3.9-6.28-2.54-14.76-2.88-22.4,.51-12.04,.34-25.11,3.74-36.31,.65-1.63,2.54-3.05,4.07-2.04,4.07,2.04,4.75,6.11,4.92,10.18h0Zm188.53-2.38c.82,1.37,1.67,3.49,0,4.41-7.64,3.39-17.98,1.87-26.81,2.88-2.38,2.04-4.24,5.43-3.4,8.49,.85,.51,1.61,1.28,2.55,1.18,5.43,.34,13.57-2.54,17.14,2.54,.87,1.51-.12,7.17-2.55,7.3-6.62,.85-17.51-.83-20.71,.85-4.07,2.71-3.73,7.97-5.26,12.22,2.89,1.87,5.91-.04,9.33-.51,6.29-1.02,13.24-2.88,19.52-1.53,1.19,2.21,2.89,4.58,1.7,7.3-10.7,8.49-24.5,17.18-39.2,11.03-5.52-2.47-7.98-10.86-6.11-17.98,1.18-5.09,6.44-10.01,3.22-15.44-.51-2.38,.85-4.41,2.89-4.92,5.6,0,4.41-6.96,7.3-10.18-3.22-3.56-11.37-3.39-10.52-10.52,3.9-2.04,8.66-1.36,13.06-2.04,10.01-2.04,21.21-3.23,31.4-2.04,2.03,.41,4.74,4.41,6.44,6.96h0ZM154.03,40.44c15.66,12.8,35.97,34.62,33.43,59.73-3.06,19.86-24.1,34.79-41.91,39.54-17.31,5.09-39.03,4.58-56.68,.51-1.19,3.23-2.38,7.12-6.11,8.49-2.38,.85-5.43,.34-7.3-1.19-5.26-4.92-1.02-14.43-8.65-17.48-14.93-6.28-31.06-18.67-38.69-33.94-1.02-3.05,.17-6.11,2.04-8.48,11.71-9.33,26.47-13.07,41.24-15.95,.85,.34,.51-.85,1.19-1.19,.85-10.18,1.19-20.54,4.41-29.7,.74-1.29,2.55-1.7,3.73-.85,9.33,7.12,4.92,20.53,8.99,30.2,17.82,.85,35.64,1.7,49.72,11.71,4.75,3.9,5.91,11.35,4.41,15.61-1.5,4.25-6.45,7.3-11.03,7.63-3.06,0-8.82,.3-8.48-2.03,.34-2.33,10.38-6.15,7.3-9.34-4.43-4.58-26.61-7.3-40.36-8.99-1.7-.34-3.25,.17-3.25,2.04-.34,12.9-1.36,27.15,.85,39.54,.17,.85,1.19,1.87,2.04,2.03,24.26,3.9,49.89,1.7,68.89-12.22,8.82-7.12,11.71-17.14,10.18-28.17-7.64-30.71-39.71-49.21-66.01-61.09C78.34,15.67,50,9.9,19.63,11.43c-4.84,.35-12.5,2.02-12.56,3.73-.06,1.71,8.68,1.17,7.63,4.41-1.04,3.24-9.93,1.32-12.56,.51C-.48,19.27-.22,15.5,.45,13.12,7.07,1.41,25.54,.47,33.88,.06c46.15-1.19,90.79,16.39,120.14,40.39h0Zm-83.15,45.48c-11.71,.17-24.1,1.36-34.96,5.43-2.21,.85-4.92,3.22-3.23,6.11,4.41,5.94,10.72,10.81,16.63,14.25,5.91,3.43,13.75,7.81,20.87,8.83,1.7-11.03,1.7-21.89,1.53-33.26-.68-.34,0-1.02-.85-1.36h0Zm350.75-15.44c-.51,14.76-14.26,23.93-14.26,38.69,.51,.51,.85,1.19,1.53,.85,11.03-12.05,21.89-29.19,38.01-34.28,4.25-.34,8.09,3.35,9.67,6.11,5.6,11.2,4.25,26.98-3.56,37.16-8.06,9.99-22.06,20.02-38.01,18.32-6.62,16.29-11.21,33.43-13.75,51.25-1.36,3.56-4.58,.34-6.61-.34-13.74-10.86-2.46-39.61-1.53-43.28,.93-3.66,4.61-12.29,7.3-19.51-6.45-11.54-2.38-25.45,2.88-36.14,4.07-7.13,9.68-14.26,16.29-19.68,.84,0,1.52,.17,2.03,.85h0Zm27.33,18.33c-2.04-.34-2.89,2.38-4.58,2.89-7.8,8.82-15.61,17.65-19.52,28.17,5.26,.68,9.67-2.71,14.26-4.58,7.8-4.92,12.73-13.06,12.22-22.4-.34-1.53-1.7-2.72-2.38-4.08h0Z"/></svg>