<?xml version="1.0" encoding="UTF-8"?><svg id="Layer_1" xmlns="http://www.w3.org/2000/svg" viewBox="0 0 144.89 34.85"><defs><style>.cls-1{fill:#a682fa;fill-rule:evenodd;}</style></defs><path class="cls-1" d="M35.76,6.94l.87-3.78,5.33-.07c2.94-.05,5.34,0,5.34,.05s-.26,1.22-.57,2.57l-.57,2.44-5.34,1.28c-2.95,.71-5.48,1.32-5.64,1.32s.1-1.73,.57-3.81Zm7.12,22.53c.57-2.38,2.35-9.88,3.95-16.69,1.6-6.81,2.95-12.46,2.95-12.57s2.43-.2,5.38-.2h5.36l-3.38,14.22c-1.86,7.82-3.67,15.41-4.01,16.9l-.66,2.68h-10.62l1.03-4.33Zm-12.59,.41c.5-2.15,1.65-7,2.55-10.78l1.64-6.87,5.31-.07c2.92-.04,5.31,0,5.31,.06s-.76,3.2-1.65,6.95c-.89,3.75-2.05,8.56-2.56,10.72l-.93,3.95h-10.62l.94-3.95Zm-20.07,4.07C3.16,32.26-.83,26.33,.15,19.05,1.32,10.13,7.68,3.64,16.57,2.21c2.07-.4,4.2-.35,6.25,.15,4.14,.85,7.38,3.19,8.95,6.49,.36,.68,.63,1.41,.82,2.15,0,.32-1.24,.74-4.98,1.69l-4.98,1.26-.44-.66c-1.63-2.46-5.15-2.21-8.01,.56-.91,.79-1.64,1.76-2.13,2.86-.5,1.1-.75,2.29-.74,3.49-.1,1.92,0,2.37,.55,3.44,.34,.68,.86,1.25,1.52,1.64,.65,.39,1.4,.58,2.16,.55,1.88,0,3.9-1.18,4.38-2.53,.16-.44-.09-.48-2.82-.48h-3l.86-3.57,.84-3.58h7.97c7.43,0,7.94,.03,7.83,.48-1.27,5.41-3.46,14.48-3.52,14.48-1.6,1.17-5.48,2.69-8.37,3.29-2.46,.5-7.45,.52-9.5,.03Zm125.52-14.79c-.13-.47-.38-.9-.72-1.24-.93-.66-2.99-.28-4.17,.82-1.19,1.11-.87,1.32,2.26,1.32h2.89l-.26-.9Zm-52.88,.09c-.23-2.04-2.97-2.3-4.98-.48-1.23,1.11-.87,1.32,2.22,1.23,2.83-.08,2.87-.08,2.77-.75Zm-8.56,15.26c-1.3-.3-2.52-.88-3.57-1.71-1.05-.83-1.91-1.87-2.51-3.07-.36-.89-.62-1.81-.79-2.76l-.34-1.84-1.05,4.33-1.04,4.33h-5.27c-2.89,0-5.27-.1-5.27-.21s1.78-7.72,3.95-16.9L62.41,0h5.35c4.98,0,5.35,0,5.21,.48-.08,.26-.53,2.09-1,4.06-.47,1.97-1.41,5.88-2.09,8.7s-1.23,5.27-1.23,5.5,.39-.32,.87-1.14c1.32-2.12,3.13-3.9,5.27-5.19,4.13-2.34,9.88-2.11,13.53,.54,1.32,.93,2.69,2.78,2.97,3.91,.11,.4,.27,.73,.38,.73,.39-.84,.68-1.72,.85-2.63l.66-2.63h1.61c1.98,0,1.86,.11,2.86-4.12,.4-1.74,.86-3.62,1.01-4.19l.28-1.03h5.27c1.76-.05,3.51,0,5.27,.14,0,.15-1.9,7.97-2.11,8.72-.12,.41,.05,.48,1.08,.48h1.22l.77-3.23c.42-1.78,.92-3.85,1.1-4.61l.34-1.38,5.35-.07c5-.07,5.33-.05,5.2,.41-.07,.27-.53,2.16-1.01,4.2-.48,2.04-.94,3.95-1.01,4.19-.12,.43,.1,.48,2.12,.48,2.21,0,2.25,0,2.05,.62-.11,.34-.3,1.02-.41,1.51l-.2,.89,1.43-1.24c4.9-4.29,12.55-4.47,16.78-.4,2.45,2.36,3.34,6.19,2.36,10.09l-.16,.66h-15.47v1.11c0,2.71,3.11,3.29,5.69,1.1,.53-.45,.75-.44,4.58,.2,2.21,.37,4.06,.72,4.12,.77-.12,.47-.33,.92-.61,1.32-1.98,3.36-7.12,5.93-11.78,5.93-6.4,0-10.24-3.25-10.53-8.89-.12-1.96,.19-3.91,.92-5.73,.17-.42,0-.48-1.32-.48h-1.48l-1.66,7.06-1.64,7h-5.19c-4.24,0-5.22-.07-5.22-.38,0-.2,.66-3.29,1.53-6.84,.87-3.55,1.52-6.54,1.52-6.63,0-.37-2.16-.15-2.31,.23-.15,.38-3.23,13.17-3.23,13.44-1.75,.18-3.51,.24-5.27,.18-3.84,0-5.27-.09-5.27-.32s.69-3.19,1.53-6.7c.84-3.51,1.53-6.51,1.53-6.68s-.55-.31-1.39-.31h-1.38v1.11c-.02,.79-.13,1.57-.32,2.34l-.31,1.22h-15.5v1.09c0,2.55,3.07,3.26,5.48,1.26l.78-.66,4,.66c2.2,.38,4.05,.73,4.11,.79,.26,.27-1.47,2.63-2.63,3.68-1.83,1.49-3.98,2.55-6.28,3.11-2.3,.56-4.69,.59-7,.1l-.03,.02Z"/></svg>