<?xml version="1.0" encoding="utf-8"?>
<!-- Generator: Adobe Illustrator 26.5.0, SVG Export Plug-In . SVG Version: 6.00 Build 0)  -->
<svg version="1.1" id="Layer_1" xmlns="http://www.w3.org/2000/svg" xmlns:xlink="http://www.w3.org/1999/xlink" x="0px" y="0px"
	 viewBox="0 0 24 9.8" style="enable-background:new 0 0 24 9.8;" xml:space="preserve">
<style type="text/css">
	.st0{fill:#683aff;}
</style>
<path class="st0" d="M7,9.8H4.4V6.1H2.7v3.8H0l0-9.7h2.7v3.6h1.7V0.2H7V9.8z M19.1,9.9c2.7,0,4.9-2.3,4.9-5C24,2.2,21.8,0,19.1,0
	c0,0,0,0-0.1,0c-2.7,0-4.1,2-4.4,2.8c0-1.2-1.2-2.6-2.6-2.6H7.6v9.7l4.2,0c1.7,0,2.9-1.5,2.9-2.7C15,7.9,16.4,9.9,19.1,9.9L19.1,9.9
	z M11.4,5.9c0.4,0,0.7,0.4,0.7,0.8s-0.3,0.8-0.7,0.8h-1.3V5.9L11.4,5.9z M11.4,2.3c0.4,0,0.7,0.4,0.7,0.8c0,0.4-0.3,0.8-0.7,0.8
	h-1.3V2.3L11.4,2.3z M13.2,4.9c0.3,0,0.8-0.4,1-0.6c-0.1,0.3-0.1,1.1,0,1.4C14,5.3,13.5,5,13.2,4.9z M16.6,4.9
	c0-1.4,1.1-2.5,2.5-2.5c1.4,0,2.5,1.1,2.5,2.5c0,1.4-1.1,2.5-2.5,2.5S16.6,6.3,16.6,4.9L16.6,4.9L16.6,4.9z M19.1,6.9
	C20.2,6.9,21,6,21,4.9S20.2,3,19.1,3c0,0,0,0,0,0c-1.1,0-1.9,0.9-1.9,1.9C17.2,6,18,6.9,19.1,6.9z"/>
</svg>
