<?xml version="1.0" encoding="UTF-8"?><svg id="Layer_1" xmlns="http://www.w3.org/2000/svg" viewBox="0 0 1000 328.48"><defs><style>.cls-1{fill:#683aff;fill-rule:evenodd;}</style></defs><path class="cls-1" d="M157.18,102.5h-50.93c-17.87,0-26.86,4.81-26.86,4.81V0H0V328.48H79.39V195.94c0-11.72,9.54-21.22,21.29-21.22h46.22c11.76,0,21.27,9.49,21.27,21.22v132.54h79.43V185.67c0-60.06-40.14-83.17-90.42-83.17Zm763.39,0V235.03c0,11.74-9.51,21.24-21.27,21.24h-46.2c-11.76,0-21.27-9.49-21.27-21.24V102.5h-79.44V241.65c0,56.88,36.49,86.84,90.43,86.84h77.77v-.41c49.68,0,79.41-35.25,79.41-86.42V102.5h-79.43ZM472.57,235.03c0,11.74-9.53,21.24-21.29,21.24h-46.22c-11.76,0-21.27-9.49-21.27-21.24V102.5h-79.43V241.65c0,56.88,36.5,86.84,90.43,86.84h77.77v-.41c49.68,0,79.43-35.25,79.43-86.42V102.5h-79.43V235.03Zm139.95,93.45h79.44V0h-79.44V328.48Z"/></svg>