<?xml version="1.0" encoding="UTF-8"?><svg id="Layer_1" xmlns="http://www.w3.org/2000/svg" viewBox="0 0 420 168"><defs><style>.cls-1{fill:#a682fa;fill-rule:evenodd;}</style></defs><path class="cls-1" d="M0,0V11.49H81.75V0H0ZM93.33,0V11.49h116.5S197.94,0,182.18,0H93.33ZM232.69,0V11.49h70.48l-4.18-11.49h-66.3Zm121.01,0l-4.18,11.49h69.84V0h-65.66ZM0,22.35v11.49H81.75v-11.49H0Zm93.33,.02v11.48H223.35s-1.52-8.85-4.17-11.48H93.33Zm139.36,0v11.48h78.21l-3.87-11.48h-74.34Zm112.64,0l-3.87,11.48h77.9v-11.48h-74.02ZM23.49,44.71v11.51H58.9v-11.51H23.49Zm93.33,0v11.51h35.4v-11.51h-35.4Zm69.84,0v11.51h35.4s2.25-6.08,2.25-11.51h-37.65Zm69.51,0v11.51h62.77l-4.18-11.51h-58.59Zm81.44,0l-4.2,11.51h63.08v-11.51h-58.88ZM23.49,67.08v11.49H58.9v-11.49H23.49Zm93.33,0v11.49h90.43s7.57-5.9,9.98-11.49H116.83Zm139.35,0v11.49h35.4v-6.4l2.25,6.4h64.85l2.41-6.4v6.4h35.4v-11.49h-66.46l-3.53,9.74-3.54-9.74h-66.79ZM23.49,89.43v11.49H58.9v-11.49H23.49Zm93.33,0v11.49h100.41c-2.41-5.58-9.98-11.49-9.98-11.49H116.83Zm139.36,0v11.49h35.4v-11.49h-35.4Zm41.83,0l4.28,11.49h48.63l4.07-11.49h-56.98Zm63.08,0v11.49h35.4v-11.49h-35.4ZM23.49,111.78v11.49H58.9v-11.49H23.49Zm93.33,0v11.49h35.4v-11.49h-35.4Zm69.84,0v11.49h37.65c0-5.43-2.25-11.49-2.25-11.49h-35.4Zm69.51,0v11.49h35.4v-11.49h-35.4Zm49.88,0l4.15,11.49h32.6l4.18-11.49h-40.93Zm55.04,0v11.49h35.4v-11.49h-35.4ZM.64,134.14v11.51H82.39v-11.51H.64Zm92.7,0v11.51h125.85c2.65-2.64,4.17-11.51,4.17-11.51H93.33Zm139.99,0v11.51h58.26v-11.51h-58.26Zm80.78,0l4.27,11.51h16.59l4-11.51h-24.86Zm46.99,0v11.51h58.9v-11.51h-58.9ZM.64,156.51v11.49H82.39v-11.49H.64Zm92.7,0v11.48h88.84c15.76,0,27.66-11.48,27.66-11.48H93.33Zm139.99,0v11.49h58.26v-11.49h-58.26Zm88.87,0l4.1,11.46,.7,.02,4.17-11.48h-8.97Zm38.9,0v11.49h58.9v-11.49h-58.9Z"/></svg>