<?xml version="1.0" encoding="utf-8"?>
<!-- Generator: Adobe Illustrator 26.5.0, SVG Export Plug-In . SVG Version: 6.00 Build 0)  -->
<svg version="1.1" id="Layer_1" xmlns="http://www.w3.org/2000/svg" xmlns:xlink="http://www.w3.org/1999/xlink" x="0px" y="0px"
	 viewBox="0 0 89 52" style="enable-background:new 0 0 89 52;" xml:space="preserve">
<style type="text/css">
	.st0{fill:#683AFF;}
</style>
<path class="st0" d="M86.1,8.3c-1-1.3-4.9-4.3-9.2-7.6c0.1,0.1,0.2,0.2,0.3,0.3c0,0,0,0,0,0c0.1,0.1,0.2,0.2,0.3,0.3c0,0,0,0,0,0
	c0.1,0.1,0.2,0.2,0.3,0.3l0,0c0.2,0.2,0.4,0.4,0.5,0.6c0,0,0,0,0,0c0.1,0.1,0.2,0.2,0.2,0.3l0,0.1c0.1,0.1,0.2,0.2,0.2,0.3
	c0,0,0,0,0,0c0.1,0.1,0.2,0.2,0.2,0.3c0.4,0.5,0.3,0.8,0,1.1c-0.3,0.3-9.2,7.7-9.6,8c-0.4,0.3-0.7,0.1-0.8,0
	c-1.2-1.1-2.6-1.6-4.5-1.2c-3.2,0.6-5.9,4.1-5.8,7.6l0,0.1c0.1,3.5,3,5.2,6.1,4.6c0.1,0,0.1,0,0.2,0c0.1-0.7,0.1-1.1,0.1-1.1
	c0.5-3.2,3-5.7,5.7-6.2c1.6-0.3,2.8-0.1,3.8,0.6c0,0,0.7,0.5,0.7,0.5c0.1,0.1,0.4,0.3,0.8,0L86,9.2c0.1-0.1,0.1-0.1,0.2-0.2
	c0-0.1,0.1-0.2,0.1-0.3C86.3,8.6,86.2,8.4,86.1,8.3z"/>
<path class="st0" d="M88.2,28.3l-7.1-5.6l0,0c0,0,0,0,0,0c0,0,0,0,0,0c0,0,0,0,0,0c0,0,0,0,0,0c0,0,0,0,0,0.1v0c0,0.1,0,0.3-0.1,0.5
	l0,0c0,0,0,0,0,0.1c0,0,0,0,0,0c0,0,0,0,0,0.1c0,0,0,0,0,0c0,0,0,0,0,0.1c0,0,0,0,0,0c0,0,0,0,0,0c0,0,0,0,0,0c0,0,0,0.1,0,0.1
	c-2.9,5.7-8.5,11-16,12.4c-1.5,0.3-2.8,0.4-4.1,0.4c-8.5,0-14.5-5.6-14.8-15.7l0-0.1c-0.1-5.1,1.1-9.6,3.4-13.2l0-0.1
	c-0.8-0.6-6-4.7-6.1-4.8c0.1,0.1,0.2,0.2,0.2,0.4v11c0,0.1,0,0.3-0.1,0.4c-0.1,0.1-0.2,0.2-0.3,0.2L32,16.5h0l0,0
	c-0.1,0-0.1,0-0.2,0.1c-0.1,0.1-0.1,0.1-0.1,0.2l0,0v4.6h0c0,0.2,0.1,0.3,0.3,0.3v0c0,0,9.4-1.5,9.5-1.5c0.3,0,0.5,0.2,0.5,0.5v10.8
	c0,0.1,0,0.3-0.1,0.4c-0.1,0.1-0.2,0.2-0.3,0.2L32,33.5h0l0,0c-0.1,0-0.1,0-0.2,0.1c0,0-0.1,0.1-0.1,0.2v6.8c0,0.1-0.1,0.3-0.1,0.4
	c-0.1,0.1-0.2,0.2-0.4,0.2c0,0-11,1.8-12.2,2c0,0,0,0,0,0c0,0-0.1,0-0.1,0c-0.1,0-0.1,0-0.2,0c-0.1,0-0.1-0.1-0.2-0.1
	c-0.1-0.1-0.1-0.1-0.1-0.2c0-0.1,0-0.1,0-0.2v-31l-5.1-4c0,0,0,0,0,0c0.1,0.1,0.2,0.3,0.2,0.4v35.5c0,0.1,0,0.2-0.1,0.3
	c-0.1,0.1-0.2,0.2-0.3,0.2l-12.6,2c-0.1,0-0.1,0-0.2,0c-0.1,0-0.1,0-0.2-0.1l6.9,5.5c0.1,0.1,0.2,0.2,0.4,0.2c0,0,15.2-2.5,15.2-2.5
	c0.1,0,0.2-0.1,0.3-0.2c0.1-0.1,0.1-0.2,0.1-0.3v-2.2l2.6,2c0.2,0.1,0.4,0.1,0.4,0.1l12.4-2c0.1,0,0.2-0.1,0.3-0.2
	c0.1-0.1,0.1-0.2,0.1-0.4v-6.9c0-0.1,0-0.1,0.1-0.2c0,0,0.1-0.1,0.1-0.1l0.1,0h0l11.1-1.8c0.1,0,0.2-0.1,0.3-0.2
	c0.1-0.1,0.1-0.2,0.1-0.4v-2.8c4.3,4.1,10.5,7,10.5,7c3,1.4,6.7,1.8,10.8,1c7.5-1.5,13.1-6.7,16-12.4C88.2,29.1,88.5,28.5,88.2,28.3
	z"/>
</svg>
