<?xml version="1.0" encoding="utf-8"?>
<!-- Generator: Adobe Illustrator 26.5.0, SVG Export Plug-In . SVG Version: 6.00 Build 0)  -->
<svg version="1.1" id="Layer_1" xmlns="http://www.w3.org/2000/svg" xmlns:xlink="http://www.w3.org/1999/xlink" x="0px" y="0px"
	 viewBox="0 0 24 10" style="enable-background:new 0 0 24 10;" xml:space="preserve">
<style type="text/css">
	.st0{fill:#683AFF;}
</style>
<path class="st0" d="M0,0v9.6h24V0H0z M12,9.1c-6.7,0-11.5-2-11.5-4.3S5.3,0.5,12,0.5c6.7,0,11.5,2,11.5,4.3S18.7,9.1,12,9.1z
	 M11.8,3.1H16v1c-0.1,0-0.2,0-0.3,0h-1.8v0.5h1.7v0.7h-1.7v0.5h1.8c0.1,0,0.2,0,0.3-0.1v1h-4.2c0.1-0.1,0.1-0.2,0.1-0.3V3.4
	C11.8,3.3,11.8,3.2,11.8,3.1z M4.7,3.4v2.9c0,0.1,0,0.2,0.1,0.3H2.4c0.1-0.1,0.1-0.2,0.1-0.3V3.4c0-0.1,0-0.2-0.1-0.3h2.4
	C4.7,3.2,4.7,3.3,4.7,3.4z M11.1,6.2c0.1,0.1,0.2,0.2,0.3,0.3H8.8c0-0.1-0.1-0.3-0.2-0.5S7.9,5,7.9,5v1.2c0,0.1,0,0.2,0.1,0.3H5.8
	c0.1-0.1,0.1-0.2,0.1-0.3V3.4c0-0.1,0-0.2-0.1-0.3h2.2C7.9,3.2,7.9,3.3,7.9,3.4v1.3c0,0,0.7-0.9,0.8-1.1C8.9,3.4,9,3.2,9,3.1h2.3
	c-0.2,0.1-0.3,0.3-0.5,0.4l-0.8,1C10,4.5,11,6,11.1,6.2z M21.7,3.2c0-0.1-0.1-0.2-0.2-0.2h-0.2v0.6h0.1V3.4h0.1l0.1,0.2h0.1
	l-0.1-0.2C21.7,3.4,21.7,3.3,21.7,3.2z M21.5,3.3h-0.1V3.1h0.1c0.1,0,0.1,0,0.1,0.1C21.6,3.3,21.6,3.3,21.5,3.3z M21.5,2.9L21.5,2.9
	c-0.3,0-0.5,0.2-0.5,0.5c0,0,0,0,0,0c0,0,0,0,0,0c0,0.3,0.2,0.5,0.5,0.4c0.3,0,0.5-0.2,0.5-0.5c0,0,0,0,0,0v0
	C21.9,3.1,21.7,2.9,21.5,2.9C21.5,2.9,21.5,2.9,21.5,2.9z M21.5,3.7c-0.2,0-0.4-0.2-0.4-0.4v0c0-0.2,0.2-0.3,0.4-0.3c0,0,0,0,0,0
	c0.2,0,0.4,0.2,0.4,0.4S21.7,3.7,21.5,3.7z M20.6,3.4c0-0.1-0.1-0.2-0.1-0.3h-3c0,0.1,0,0.2-0.1,0.3l-1.1,2.9c0,0.1-0.1,0.2-0.2,0.3
	H18c0-0.1,0-0.2,0.1-0.3S18.1,6,18.1,6l0-0.1h1.3l0,0.1c0,0.1,0.1,0.2,0.1,0.2c0,0.1,0.1,0.2,0.1,0.3h2.3c-0.1-0.1-0.1-0.2-0.2-0.3
	C21.4,5.3,21,4.3,20.6,3.4z M18.4,5.3c0.2-0.4,0.3-0.8,0.3-0.8c0-0.1,0-0.2,0.1-0.2c0,0.1,0,0.2,0.1,0.2l0.3,0.8H18.4z"/>
</svg>
