<?xml version="1.0" encoding="utf-8"?>
<!-- Generator: Adobe Illustrator 26.5.0, SVG Export Plug-In . SVG Version: 6.00 Build 0)  -->
<svg version="1.1" id="svg7965" xmlns:svg="http://www.w3.org/2000/svg"
	 xmlns="http://www.w3.org/2000/svg" xmlns:xlink="http://www.w3.org/1999/xlink" x="0px" y="0px" viewBox="0 0 640.2 392"
	 style="enable-background:new 0 0 640.2 392;" xml:space="preserve">
<style type="text/css">
	.st0{fill:#683AFF;}
	.st1{fill:#FFF6DF;}
</style>
<g id="layer1" transform="translate(3.8319159,-265.53041)">
	<g id="g8229" transform="translate(17.791783,17.755562)">
		<path id="path1695" class="st0" d="M405.2,353.6l-0.5-51.3c-4,4-14.7,6.4-18.8,7.5l-157.4,44c13,2.7,18.1,9.8,18.4,26.2l1.3,139.2
			c0,27-3,39.5-13.3,42.5c-8.6,2.5-14.3-1.1-25.5-11l-81.2-82.7l90.7-111.6l-99.9,28c16.1,4,21,15.1,9.3,29.6l-60.2,81.2l-0.3-67.2
			c0.4-16.8,9.3-27.9,18.2-34.5l-107.7,30.2c12.8,2.4,18.2,9.7,18.8,26.4l1.2,139.4c0,14.3,0.4,31.1-18.5,45.4l106.6-29.8
			c-15.1-4.2-17.7-14.7-18-28.9L68.3,516l67,75.6l49.4-13.9L336.3,535c-14.4-6.8-18-18.1-17.7-35.6l-0.3-50.7l34.6-9.9
			c16.1-4.4,23.2-2.6,32.1,2.8l-0.5-50c-4.2,4-14.7,6.5-18.8,7.7l-47.5,13.4l-0.5-47.8l55.4-15.5
			C389.1,345.3,396.6,347.4,405.2,353.6"/>
		<path id="path1699" class="st0" d="M564.1,441.7c-44,12.3-77.3-12-86.8-46.1c-10.6-37.7,9.4-84.2,60.3-98.7
			c15.9-4.2,34-6.9,58.6-2.9v-42.5c-15.3,0.7-34.7,3.7-57.1,10.2c-101.9,28.6-151.1,106-134.6,164.6c12.2,44,60,78.4,142.5,55.5
			c24.2-7,47.7-15,66.6-24.7v-39.7C599.2,427,580.3,437.1,564.1,441.7"/>
		<path id="path1703" class="st1" d="M6.2,596.1l-1-145.7c0.1-17.8-3.2-22.7-9.3-27.5c9.5-0.3,16.9,4.8,16.9,25.5l1,146.2
			c0.1,17.3-4.4,24.7-16.7,27.9C3.7,616.4,6.5,606.7,6.2,596.1"/>
		<path id="path1707" class="st1" d="M256.3,526.7L255.3,381c0.2-17.3-3.2-22.4-9.4-27.5c9.6-0.2,16.9,5.1,17,25.7l0.9,146.3
			c0.1,17.5-3.2,24.4-15.2,27.7C255.2,547.4,256.1,540.2,256.3,526.7"/>
		<path id="path1711" class="st1" d="M318.4,348.2l50.9-13.9c14.7-4.3,28.2-4.4,31.1,7.3c-6.9-3.3-13.7-4.8-30.9,0.3l-51.2,14.3
			L318.4,348.2"/>
		<path id="path1715" class="st1" d="M318.5,439.7l-0.1-7.9l30.5-8.4c14.7-4.2,27.9-4.2,31.1,7.5c-6.9-3.3-13.9-4.8-31,0.3
			L318.5,439.7"/>
		<path id="path1719" class="st1" d="M413.6,423.5c-18-64.9,44.5-120.9,89-138.4c-36.6,21.3-98.1,72.1-80.5,136
			c17,61.5,87.8,60.8,134.3,50.5C506.7,489.8,431.7,488.7,413.6,423.5"/>
		<path id="path1723" class="st1" d="M158.2,576.6c-10.6,2.4-20.3-7.9-20.3-7.9l0.7,1.1l-58.5-65.8l62.9-83.8
			c12.8-16.3,13.6-35.9-4.6-37.1c8.6,8.1,8.3,20.1-2.6,34.2l-65.4,87.2l68.6,77.5l8.6-2.5L158.2,576.6"/>
	</g>
</g>
</svg>
