<?xml version="1.0" encoding="UTF-8"?><svg id="Layer_1" xmlns="http://www.w3.org/2000/svg" viewBox="0 0 99.29 11.69"><defs><style>.cls-1{fill:#a682fa;}</style></defs><g id="louis-vuitton"><g id="Shape"><path class="cls-1" d="M1.18,9.96h2.91v1.11H0V.44H1.18V9.96ZM10.29,1.36c2.43,0,4.32,1.99,4.32,4.39s-1.92,4.39-4.32,4.39-4.35-1.99-4.35-4.39S7.86,1.36,10.29,1.36Zm0-1.11C7.27,.26,4.76,2.73,4.76,5.75s2.51,5.5,5.53,5.5,5.53-2.43,5.53-5.5S13.32,.26,10.29,.26Zm8.26,6.49c0,.81,0,1.7,.48,2.4,.48,.63,1.36,1,2.14,1s1.59-.33,2.07-.92c.59-.7,.55-1.62,.55-2.47V.44h1.18V7.08c0,1.18-.11,2.07-.96,2.95-.7,.77-1.77,1.22-2.84,1.22-1,0-2.03-.37-2.73-1.07-.96-.88-1.07-1.88-1.07-3.1V.44h1.18V6.75ZM27.07,.44h1.18V11.06h-1.18V.44Zm8.15,2.06c-.41-.74-.92-1.14-1.81-1.14-.96,0-1.77,.66-1.77,1.66,0,.89,.92,1.33,1.66,1.66l.7,.29c1.36,.63,2.54,1.29,2.54,2.99,0,1.85-1.48,3.28-3.32,3.28-1.73,0-2.99-1.11-3.32-2.77l1.14-.3c.15,1.07,1,1.96,2.14,1.96s2.18-.85,2.18-2.07-.96-1.66-1.95-2.1l-.66-.29c-1.22-.55-2.29-1.18-2.29-2.69,0-1.66,1.4-2.73,2.95-2.73,1.18,0,2.18,.63,2.77,1.66l-.96,.59Zm10.73,6.05L48.98,.44h1.25l-4.28,11.25L41.64,.44h1.25l3.06,8.11Zm6.6-1.81c0,.81-.04,1.7,.44,2.4,.48,.63,1.36,1,2.14,1s1.62-.33,2.1-.92c.55-.7,.52-1.62,.52-2.47V.44h1.18V7.08c0,1.18-.07,2.07-.92,2.95-.74,.77-1.81,1.22-2.88,1.22-1,0-1.99-.37-2.73-1.07-.92-.88-1.03-1.88-1.03-3.1V.44h1.18V6.75ZM61.08,.44h1.18V11.06h-1.18V.44Zm6.12,10.62h-1.18V1.55h-2.55V.44h6.35V1.55h-2.62V11.06Zm6.64,0h-1.18V1.55h-2.58V.44h6.34V1.55h-2.58V11.06ZM82.62,1.36c2.43,0,4.35,1.99,4.35,4.39s-1.92,4.39-4.35,4.39-4.35-1.99-4.35-4.39,1.92-4.39,4.35-4.39Zm0-1.11c-3.02,0-5.53,2.47-5.53,5.5s2.51,5.5,5.53,5.5,5.53-2.43,5.53-5.5-2.51-5.5-5.53-5.5Zm7.23-.26l8.26,8.67V.44h1.18V11.55l-8.26-8.67V11.06h-1.18V0Z"/></g></g></svg>