<?xml version="1.0" encoding="utf-8"?>
<!-- Generator: Adobe Illustrator 26.5.0, SVG Export Plug-In . SVG Version: 6.00 Build 0)  -->
<svg version="1.1" id="Layer_1" xmlns="http://www.w3.org/2000/svg" xmlns:xlink="http://www.w3.org/1999/xlink" x="0px" y="0px"
	 viewBox="0 0 739.4 300" style="enable-background:new 0 0 739.4 300;" xml:space="preserve">
<style type="text/css">
	.st0{fill:#683AFF;}
</style>
<g>
	<g>
		<path class="st0" d="M701,255.5c-5.3,0-10.6,0-15.8,0c0.4-0.7,0.7-1.5,1.1-2.2c2.6-5.2,5.3-6.9,11.2-6.9c2.7,0,5.4,0,8.1,0
			C704.1,249.4,702.5,252.4,701,255.5z"/>
		<path class="st0" d="M683.9,290.7c4.9-9.8,9.7-19.5,14.6-29.3c-5.3,0-10.6,0-15.8,0c-4.2,8.4-8.4,16.8-12.6,25.3
			c-1.4,2.8-3.3,4-6.7,4c-12.8,0-25.7,0-38.5,0c5.2-10.4,10.4-20.9,15.6-31.3c2.2-4.4,3-4.7,8.1-4.7c1.5,0,3.1,0,4.6,0
			c4.5,0,6.6-1.2,8.4-4.8c0.7-1.4,1.4-2.9,2.2-4.3c-5.5,0-10.9,0-16.4,0c2.4-4.7,4.7-9.5,7.1-14.2c-3.4,0-6.9,0-10.3,0
			c-4.5,0-6.6,1.2-8.4,4.7c-1.6,3.2-3.1,6.3-4.7,9.5c-2.9,0-5.7,0-8.6,0c-1.5,3-3,6.1-4.5,9.1c2.9,0,5.7,0,8.6,0
			c-1.8,3.6-14.2,28.5-15.9,32c-1.4,2.8-3.3,4-6.7,4c-11.4,0-22.8,0-34.2,0c6.1-11.1,12.1-22.2,18.2-33.2c-4.2,0-8.4,0-12.6,0
			c-2.9,0-4.2,1-6,3.1c0-2.4-0.9-3.1-3.2-3.1c-2.9,0-5.8,0-8.7,0c-14.3,0-22.3,4.4-28.5,15.8c-2.5,4.5-4.9,9-7.4,13.5
			c-1.5,2.8-3.5,4-6.6,4c-7.3,0-14.7,0-22,0c-8,0-11.1-1.1-12-5.3c-1-4.5,1.1-8.2,11.8-15.2c2-1.3,4-2.7,6-4
			c2.8-1.9,3.9-2.8,3.6-4.9c-0.3-1.8-1.4-3.8-10.2-3.8c-13.8,0-27.6,0-41.4,0c-4.4,0-6.4,1.2-8.4,4.8c-4.5,8.2-8.9,16.3-13.4,24.5
			c-1.5,2.8-3.5,4-6.7,4c-22.2,0-44.3,0-66.5,0c0.9-2.8,1.9-5.6,2.8-8.3c11.1,0,22.1,0,33.2,0c6.6,0,9.3-1.7,11.6-7.3
			c1.1-2.5,2.1-5,3.2-7.5c0.8-1.9,1.5-4.5,0.1-6.6c-1.6-2.4-5.6-3.6-11.6-3.6c-10.6,0-21.3,0-31.9,0c-10.2,0-14.8,2.8-18.4,11.3
			c-2.2,5.2-4.4,10.4-6.6,15.6c-2.3,5.3-5.8,6.4-10.9,6.4c-7.6,0-15.2,0-22.8,0c0.5-0.7,1-1.4,1.4-2.2c4.5-6.8,3.6-14.3-2.4-20.7
			c-5.9-6.3-13.8-8.5-20.7-10.4c-5.9,0-11.8,0-17.7,0c-4.1,7.4-8.1,14.9-12.2,22.3c-5.1,9.3-10.6,10.9-20.4,10.9
			c-7.2,0-14.3,0-21.5,0c6.1-11.1,12.1-22.2,18.2-33.2c-4.2,0-8.4,0-12.6,0c-2.9,0-4.2,1-6,3.1c0-2.4-0.9-3.1-3.2-3.1
			c-2.9,0-5.8,0-8.7,0c-14.3,0-22.3,4.4-28.5,15.8c-2.5,4.5-4.9,9-7.4,13.5c-1.6,2.8-3.4,4-6.7,4c-10.9,0-21.8,0-32.7,0
			c9.2-16.9,18.5-33.8,27.7-50.7c1.6-3-0.5-6.6-3.9-6.6c-43.3,0-86.6,0-129.9,0c-8.8,0-13.2,2.2-17.4,9.3c18.7,0,37.4,0,56.2,0
			C45.7,262,35.2,281,24.8,300.1c5.4,0,10.8,0,16.2,0C51.4,281,61.9,262,72.3,242.9c7.5,0,15,0,22.5,0c-10.4,19-20.8,38-31.3,57.1
			c5.4,0,10.8,0,16.2,0c10.4-19.1,20.9-38.1,31.3-57.2c7.5,0,15,0,22.5,0c-8.6,15.7-17.2,31.5-25.8,47.2c-1.2,2.2-2.3,5.2-1.1,7.3
			c1,1.8,3.7,2.7,7.6,2.7c14.2,0,28.4,0,42.6,0c2.1,0,3-0.7,4.3-2.2c0,1.7,1.4,2.2,3.1,2.2c24.4,0,48.8,0,73.3,0
			c14.5,0,22.3-4.2,28.5-15.7c3.2-5.9,6.4-11.8,9.7-17.6c0.1,0,0.9,0.2,1,0.2c11.5,2.2,17.4,6.5,17.9,13.1c0.2,2.7-0.6,5.2-2.4,7.1
			c-2.2,2.3-5.5,3.7-9.1,3.7c-7.4,0-10.3,2.9-13.2,9.2c20.7,0,41.4,0,62,0c2.1,0,3-0.7,4.3-2.2c0,1.7,1.4,2.2,3.1,2.2
			c30.6,0,61.2,0,91.8,0c6.2,0,8.9-1.6,12-7.3c3.6-6.5,7.2-13.1,10.7-19.6c2.5-4.5,5.5-6.2,10.8-6.2c5.4,0,10.8,0,16.2,0
			c-2.7,1.9-5.8,4.3-8.1,6.7c-3.1,3.1-6,7.5-6.6,13.1c-0.4,3.9,0.6,7.3,2.8,9.7c2.2,2.4,5.3,3.6,9.2,3.6c12.6,0,25.1,0,37.7,0
			c2.1,0,3-0.7,4.3-2.2c0,1.7,1.4,2.2,3.1,2.2c26.5,0,52.9,0,79.4,0c2.1,0,3-0.7,4.3-2.2c0,1.7,1.4,2.2,3.1,2.2
			c39.1,0,78.2,0,117.4,0c7.1,0,10.7-2.3,12-7.7c0.1-0.5,0.3-1.1,0.4-1.6C720.9,290.7,702.4,290.7,683.9,290.7z M362.4,271
			c1.6-4.6,5.3-5,8.6-5c6,0,12.1,0,18.1,0c-0.4,1.2-0.8,2.5-1.3,3.7c-1.5,4.3-4.8,4.7-7.8,4.7c-6.3,0-12.6,0-18.9,0
			C361.6,273.3,362,272.1,362.4,271z M197.9,284.5c-2.5,4.6-5.4,6.3-10.8,6.3c-3,0-6,0-8.9,0c3.2-5.9,6.4-11.8,9.7-17.7
			c2.4-4.5,5.5-6.2,10.8-6.2c3,0,6,0,8.9,0C204.4,272.7,201.2,278.6,197.9,284.5z M556.7,284.5c-2.5,4.6-5.4,6.3-10.8,6.3
			c-3,0-6,0-8.9,0c3.2-5.9,6.4-11.8,9.7-17.7c2.5-4.5,5.5-6.2,10.8-6.2c3,0,6,0,8.9,0C563.1,272.7,559.9,278.6,556.7,284.5z"/>
	</g>
	<g>
		<path class="st0" d="M355.1,197.9c0-2.7,0-5.4,0-8.1c6.9,0,13.9,0,20.8,0l0,0c6.9,0,13.9,0,20.8,0c0,2.7,0,5.4,0,8.1
			c-6.9,0-13.9,0-20.8,0l0,0C369,197.9,362.1,197.9,355.1,197.9z"/>
		<path class="st0" d="M376,214.8c4.4,0,8.7,0,13.1,0c0-4.2,0-8.4,0-12.6c-4.4,0-8.7,0-13.1,0l0,0c-4.4,0-8.7,0-13.1,0
			c0,4.2,0,8.4,0,12.6C367.2,214.8,371.6,214.8,376,214.8"/>
		<path class="st0" d="M362.8,185.6c0-7-1.9-13.8-7.4-18.4c6.8,0,13.7,0,20.5,0l0,0c6.8,0,13.7,0,20.5,0c-5.6,4.6-7.4,11.4-7.4,18.4
			c-4.4,0-8.7,0-13.1,0l0,0C371.6,185.6,367.2,185.6,362.8,185.6z"/>
		<path class="st0" d="M328.1,153.8c0-2,0-4,0-6c16,0,31.9,0,47.9,0l0,0c16,0,31.9,0,47.9,0c0,2,0,4,0,6c-16,0-31.9,0-47.9,0l0,0
			C360,153.8,344,153.8,328.1,153.8z"/>
		<path class="st0" d="M332.4,175.4c5.6-1.2,11.6-4.3,15.6-8.2c-5.5,0-11.1,0-16.6,0C331.7,169.9,332,172.7,332.4,175.4z"/>
		<path class="st0" d="M419.5,175.4c-5.6-1.2-11.6-4.3-15.6-8.2c5.5,0,11.1,0,16.6,0C420.2,169.9,419.9,172.7,419.5,175.4z"/>
		<path class="st0" d="M326.5,134.6c-5.2-31.1-15.4-63.4-26.5-84.7c12,6.5,24.8,16.8,38.6,30.9c-5.7-1.5-11.4-2.7-17.1-3.6
			c8,18.8,14.5,38,20.5,57.4C336.8,134.6,331.6,134.6,326.5,134.6z"/>
		<path class="st0" d="M425.4,134.6c5.2-31.1,15.4-63.4,26.5-84.7c-12,6.5-24.8,16.8-38.6,30.9c5.7-1.5,11.4-2.7,17.1-3.6
			c-8,18.8-14.5,38-20.5,57.4C415.1,134.6,420.3,134.6,425.4,134.6z"/>
		<path class="st0" d="M323,144.7c0-2,0-4.1,0-6.1c17.6,0,35.3,0,52.9,0l0,0c17.6,0,35.3,0,52.9,0c0,2,0,4.1,0,6.1
			c-17.6,0-35.3,0-52.9,0l0,0C358.3,144.7,340.7,144.7,323,144.7z"/>
		<path class="st0" d="M358.1,46.6c8.2-14,15.2-30,17.9-46.6c2.7,16.6,9.7,32.6,17.8,46.6c-2.9-1.3-6-2.7-9.4-4.2
			c-3-1.3-4.2-0.5-4.1,2.5c1,29.9,5.4,63.8,21,89.7c-6.1,0-12.2,0-18.4,0c-2.9-6.9-5.2-13.7-6.9-20.4c-1.7,6.7-4,13.5-6.9,20.4
			c-6.1,0-12.2,0-18.4,0c15.6-25.9,20-59.8,21-89.7c0.1-3-1.2-3.8-4.1-2.5C364.1,43.9,361,45.3,358.1,46.6z"/>
		<path class="st0" d="M323,163c0-2,0-4.1,0-6.1c17.6,0,35.3,0,52.9,0l0,0c17.6,0,35.3,0,52.9,0c0,2,0,4.1,0,6.1
			c-17.6,0-35.3,0-52.9,0l0,0C358.3,163,340.7,163,323,163z"/>
	</g>
</g>
</svg>
