<?xml version="1.0" encoding="UTF-8"?><svg id="Layer_1" xmlns="http://www.w3.org/2000/svg" viewBox="0 0 24 3.57"><defs><style>.cls-1{fill:#a682fa;}</style></defs><path class="cls-1" d="M19.06,1.5c3.31-2.14,7.75-2.21,2.56,1.25l.08-.11c1.47-2.02-1.52-1.56-2.58-1.17l-.07,.03ZM6.97,3.02h1.4v.55h-1.62c-.69,0-.99-.21-.99-.75v-.12c0-.47,.27-.77,.96-.77h1.65v.55h-1.4c-.14,0-.25,.11-.25,.25v.07c0,.13,.12,.23,.25,.23Zm2.63-1.37v1.37h.82v.55h-1.92V1.65h1.1Zm-5.2,.25c.19-.15,.43-.24,.67-.25h.55v1.92h-1.1v-.96l-1.06,.96h-1v-.96l-1.22,.96H0L2.18,1.92c.21-.15,.34-.27,.7-.27h.69v.96s.84-.71,.84-.71Zm9.31,.21c0-.17,.14-.32,.31-.32,0,0,.02,0,.03,0h1.3v.55h-.69v1.23h-.96v-1.47Zm6.43-.32c.82,0,1.11,.18,1.11,.78v1h-.96v-.69c0-.23-.18-.41-.41-.41h-.41v1.1h-.96V1.79s1.63,0,1.63,0Zm-7.49,0c.63,0,.92,.26,.92,.7v.41c0,.51-.29,.67-.99,.67h-1.08c-.4,0-.69-.04-.84-.18-.07-.09-.11-.2-.11-.31v-.07c0-.27,.16-.53,.69-.53h1.23c0-.12,.01-.14-.14-.14h-1.65v-.55h1.96Zm-.18,1.17v-.07h-.75s-.06,.04-.06,.08c0,.03,.03,.05,.06,.06h.69s.07-.03,.07-.07c0,0,0,0,0,0Zm5.02-1.17c.73,0,.88,.22,.88,.52v.07c0,.33-.26,.51-.69,.51h-1.23c0,.12,.12,.14,.27,.14h1.51v.55h-1.88c-.59,0-.86-.25-.86-.7v-.31c0-.52,.29-.77,.95-.77h1.06Zm-.15,.68s.06-.04,.06-.08c0-.03-.03-.05-.06-.06h-.82s-.07,.03-.07,.07v.07s.89,0,.89,0Z"/></svg>