<?xml version="1.0" encoding="utf-8"?>
<!-- Generator: Adobe Illustrator 26.5.0, SVG Export Plug-In . SVG Version: 6.00 Build 0)  -->
<svg version="1.1" id="Layer_1" xmlns="http://www.w3.org/2000/svg" xmlns:xlink="http://www.w3.org/1999/xlink" x="0px" y="0px"
	 viewBox="0 0 24 4.3" style="enable-background:new 0 0 24 4.3;" xml:space="preserve">
<style type="text/css">
	.st0{fill:#683AFF;}
</style>
<path class="st0" d="M23.7,0l-2.4,0l-0.1,0.1l0-0.1h-2.5l-0.1,0.1l0-0.1l-2.5,0l0,0.2l0-0.2l-2.5,0l0,0.3l0-0.3l-2.5,0l0,0.2L11,0
	L8.5,0l0,0.2l0-0.2H7.3L7.2,0.7L7.1,0.5l0,0L6.9,0L5.7,0l0,0.1L5.6,0H4.4l0,0.1L4.3,0L3.2,0L3,0.5H2.7L2.7,0.8L2.1,0L1,0L0,3l1,1
	h1.1l0.2-0.7l0.1,0.1h0.3L3.2,4h1.2l0-0.1L4.5,4h1.2l0-0.1L5.7,4h1.2L7,3.4L7.3,4h1.2l0-0.1L8.6,4H11l0-0.2l0,0.2h2.5l0-0.3l0,0.3
	h1.2l0-0.2l0,0.2h1.2l0.1-0.2l0,0.2h1.2l0.1-0.1l0,0.1h1.2l0.1-0.1l0,0.1h1.2l0.7-1l0-0.2h0.4l0.5-0.7L21.9,4H23l1-1L24,3l-0.1-0.3
	l-0.1-0.2c0,0-0.2-0.7-0.2-0.8c0-0.1-0.1-0.2-0.1-0.3l0,0L24,0.7L23.7,0z M21.4,0.2h2.2l0.2,0.5h-0.6l0,0c0,0.1,0.1,0.2,0.1,0.3
	c0,0.1,0.1,0.2,0.1,0.3c0,0.1,0.1,0.2,0.1,0.4c0,0.1,0.1,0.2,0.1,0.4c0,0.1,0,0.1,0.1,0.2c0,0.1,0,0.1,0.1,0.2l0.1,0.2
	c0,0.1,0,0.2,0.1,0.2h-1l-0.6-2.3h-0.6L21.4,0.2z M21.1,0.2l0.1,0.5h-1.3L20,1.2h1.3l0.1,0.6h-1.3L20.4,3l-1,0l-0.5-2.8L21.1,0.2z
	 M18.5,0.2L19,3h-1l-0.1-0.9h-0.4L17.6,3h-1l-0.3-2.8L18.5,0.2z M16,0.2l0.1,1h-0.3l0,0.3h0.3L16.2,3h-1l-0.1-1.2l-0.4,0L14.9,3h-1
	l-0.1-2.8L16,0.2z M13.4,0.2l0,0.5h-1.3l0,1.7h1.4l0,0.6h-2.4l0.1-2.8L13.4,0.2z M10.9,0.2l0,0.5H9.6l0,0.6l1.3,0l0,0.5l-1.3,0
	l0,0.6l1.3,0l0,0.6H8.4l0.3-2.8L10.9,0.2z M8.3,0.2L8,3H7l0.1-0.9l-0.3,0l0.1-0.6l-0.4,0L6.3,3h-1l0.5-2.8h0.9L6.7,0.7l0.3,0
	L6.9,1.2l0.4,0l0.1-1.1L8.3,0.2z M3.3,0.2h0.9L3.6,3h-1l0.3-1.2H2.5L2.4,2.4H1.7l0.2-0.6H1.5L1.2,3h-1l0.9-2.8H2L1.8,0.7l0.3,0
	L2,1.3h0.7l0.1-0.5h0.3L3.3,0.2z M5.5,0.2L4.9,3h-1l0.6-2.8L5.5,0.2z M17.6,0.6l0,0.3l-0.3,0l0-0.3h-0.4l0,0.4h0.4l0,0.1h-0.2
	l0.1,0.5h0.2l0-0.2l0.3,0l0,0.2H18l-0.1-0.5h-0.2l0-0.1l0.4,0l-0.1-0.4L17.6,0.6z M14.7,0.7l0,0.6h0.4l0-0.6H14.7z M13.5,1.7l0,0.5
	l-1.2,0l0-0.4h1.2L13.5,1.7z"/>
</svg>
