<svg xmlns="http://www.w3.org/2000/svg" viewBox="0 0 101 58" fill="currentColor"><path d="M45.4187 0.824219H56.0503L42.925 15.5311L57.2322 31.888H46.1177L35.0472 18.4145H34.9594V31.888H26.3848V0.824219H34.9594V13.6369H35.0472L45.4187 0.824219Z" fill="currentColor"/><path d="M19.8772 8.8163C18.302 7.58035 16.2884 6.7569 14.188 6.7569C12.6128 6.7569 10.5125 7.62063 10.5125 9.35218C10.5125 11.1648 12.8306 11.8669 14.3192 12.3187L16.5067 12.9361C21.1008 14.2139 24.6458 16.3977 24.6458 21.423C24.6458 24.5139 23.8579 27.6859 21.2325 29.7861C18.6499 31.8475 15.1927 32.7112 11.8677 32.7112C7.71204 32.7112 3.64308 31.3927 0.271484 29.1676L3.94704 22.657C6.09126 24.4308 8.62887 25.8733 11.5621 25.8733C13.5741 25.8733 15.7188 24.9254 15.7188 22.7395C15.7188 20.4757 12.3483 19.691 10.5119 19.1974C5.12888 17.756 1.58501 16.4369 1.58501 10.4229C1.58501 4.11981 6.35353 0 12.9623 0C16.2878 0 20.3584 0.988134 23.2878 2.55448L19.8772 8.8163Z" fill="currentColor"/><path d="M73.0291 9.17091L67.0869 16.9751V31.888H58.5106V16.9751L46.3477 0.824219H56.6292L62.8007 9.26932L68.9711 0.824219H76.9998L83.1713 9.26932L89.3406 0.824219H99.6249L87.4597 16.9751V31.888H78.8812V16.9751L73.0291 9.17091Z" fill="currentColor"/><path d="M15.9185 38.8206H15.2014C15.2014 38.8206 8.88945 54.2225 8.46204 55.2662C8.0231 54.2266 1.51693 38.8206 1.51693 38.8206H0.395996L7.98743 56.8086H8.94597L16.3196 38.8206H15.9185Z" fill="currentColor"/><path d="M27.3186 38.4043C21.1422 38.4043 18.3774 43.1314 18.3774 47.8141C18.3774 52.4989 21.1422 57.225 27.3186 57.225C33.495 57.225 36.2598 52.4984 36.2598 47.8141C36.2603 43.1304 33.4956 38.4043 27.3186 38.4043ZM27.3186 56.221C22.5973 56.221 19.5115 52.9216 19.4572 47.8141C19.5115 42.7072 22.5973 39.4077 27.3186 39.4077C32.041 39.4077 35.1268 42.7092 35.1805 47.8172C35.1268 52.9206 32.041 56.221 27.3186 56.221Z" fill="currentColor"/><path d="M47.8347 38.8201H41.2506H40.9741V56.808H47.0183C51.417 56.808 56.1174 54.4443 56.1174 47.8128C56.118 39.6965 50.3251 38.8201 47.8347 38.8201ZM47.15 55.8056C47.15 55.8056 42.5521 55.8056 42.0534 55.8056C42.0534 55.3146 42.0534 40.314 42.0534 39.823C42.5559 39.823 47.7025 39.823 47.7025 39.823C51.0488 39.823 55.0365 41.2094 55.0365 47.8138C55.0382 53.706 50.9643 55.8056 47.15 55.8056Z" fill="currentColor"/><path d="M67.3999 46.5391C67.7976 46.2133 76.826 38.8201 76.826 38.8201H76.0941H75.2003C75.2003 38.8201 63.3984 48.4348 62.5447 49.1313C62.5447 48.1162 62.5447 38.8201 62.5447 38.8201H61.4644V56.808H62.5447C62.5447 56.808 62.5447 50.6987 62.5447 50.4754C62.7153 50.3352 66.1977 47.4722 66.5637 47.1719C66.9159 47.5405 75.7863 56.8075 75.7863 56.8075H77.238C77.2369 56.8081 67.7548 46.9103 67.3999 46.5391Z" fill="currentColor"/><path d="M89.005 38.8201H88.8162H87.9455L80.0835 56.808H81.2856C81.2856 56.808 83.6559 51.36 83.7882 51.0571C84.1399 51.0571 92.6482 51.0571 93.001 51.0571C93.1326 51.362 95.4771 56.808 95.4771 56.808H96.6508L89.005 38.8201ZM84.2211 50.0532C84.491 49.4271 88.0618 41.1502 88.47 40.2054C88.8656 41.1543 92.3151 49.4337 92.5735 50.0532C91.8701 50.0532 84.9338 50.0532 84.2211 50.0532Z" fill="currentColor"/><path d="M97.674 55.2652C97.674 54.5351 98.2616 53.9722 99.0303 53.9722C99.7897 53.9722 100.378 54.5351 100.378 55.2652C100.378 56.0117 99.7897 56.5746 99.0303 56.5746C98.2627 56.5746 97.674 56.0117 97.674 55.2652ZM97.3755 55.2652C97.3755 56.1422 98.1305 56.799 99.0303 56.799C99.9258 56.799 100.676 56.1422 100.676 55.2652C100.676 54.4045 99.9258 53.7478 99.0303 53.7478C98.1305 53.7478 97.3755 54.4045 97.3755 55.2652ZM98.3895 56.1626H98.6879V55.3957H99.004L99.5263 56.1626H99.8468L99.2981 55.3753C99.584 55.3468 99.8029 55.2132 99.8029 54.8899C99.8029 54.5473 99.5872 54.3801 99.1307 54.3801H98.3884L98.3895 56.1626ZM98.6879 54.6044H99.0835C99.2849 54.6044 99.5055 54.6411 99.5055 54.8777C99.5055 55.1592 99.2646 55.1714 99.0007 55.1714H98.689L98.6879 54.6044Z" fill="currentColor"/></svg>