<?xml version="1.0" encoding="utf-8"?>
<!-- Generator: Adobe Illustrator 26.5.0, SVG Export Plug-In . SVG Version: 6.00 Build 0)  -->
<svg version="1.1"
	 id="Layer_1" xmlns:svg="http://www.w3.org/2000/svg" xmlns:inkscape="http://www.inkscape.org/namespaces/inkscape" xmlns:cc="http://creativecommons.org/ns#" xmlns:rdf="http://www.w3.org/1999/02/22-rdf-syntax-ns#" xmlns:sodipodi="http://sodipodi.sourceforge.net/DTD/sodipodi-0.dtd" xmlns:dc="http://purl.org/dc/elements/1.1/"
	 xmlns="http://www.w3.org/2000/svg" xmlns:xlink="http://www.w3.org/1999/xlink" x="0px" y="0px" viewBox="0 0 531.7 180.8"
	 style="enable-background:new 0 0 531.7 180.8;" xml:space="preserve">
<style type="text/css">
	.st0{fill:#683AFF;}
</style>
<sodipodi:namedview  bordercolor="#666666" borderopacity="1" fit-margin-bottom="0" fit-margin-left="0" fit-margin-right="0" fit-margin-top="0" gridtolerance="10" guidetolerance="10" id="namedview19" inkscape:current-layer="Layer_1" inkscape:cx="885.66255" inkscape:cy="55.94122" inkscape:pageopacity="0" inkscape:pageshadow="2" inkscape:window-height="480" inkscape:window-maximized="0" inkscape:window-width="640" inkscape:window-x="0" inkscape:window-y="0" inkscape:zoom="0.22627417" objecttolerance="10" pagecolor="#ffffff" showgrid="false">
	</sodipodi:namedview>
<path id="path11" inkscape:connector-curvature="0" class="st0" d="M40.9,2.2h67.9L73.2,122c-2.5,8.4,2.8,15.3,11.5,15.3l0,0
	c8.7,0,17.7-6.9,20.2-15.3L140.6,2.2l60.2,0l-41.1,153.1c-3.6,13.5-18.1,24.6-32.1,24.6H23.4c-16.6,0-26.7-13.1-22.4-29.2L40.9,2.2
	L40.9,2.2z"/>
<polygon id="polygon13" class="st0" points="276.3,67.7 276.3,67.7 346,67.7 333.4,109.1 263.6,109.1 244.3,179.9 244.3,179.9 
	178.7,179.9 210.8,67.7 "/>
<path id="path15" inkscape:connector-curvature="0" class="st0" d="M412,0.4h88.7c13,0,35,10.4,30.5,26.9l-1.8,6.5h-79.1
	c-4.1,0-8.3,3.3-9.4,7.2l-24.6,89.1c-1.1,4,1.3,7.2,5.4,7.2h79.5l-5.8,21.1c-3.3,12.2-16.5,22.3-29.5,22.3h-93.6
	c-16.5,0-26.6-12.8-22.5-28.4l34.5-131.1C387.3,9.9,399.8,0.4,412,0.4L412,0.4z"/>
<path id="path17" inkscape:connector-curvature="0" class="st0" d="M353,43.5h-69.6l0,0.1h-65.6L230.5,0c45,0,90.1,0,135.1,0
	L353,43.5L353,43.5z"/>
</svg>
