<?xml version="1.0" encoding="UTF-8"?><svg id="Layer_1" xmlns="http://www.w3.org/2000/svg" viewBox="0 0 135.95 26.54"><defs><style>.cls-1{fill:#a682fa;fill-rule:evenodd;}</style></defs><path class="cls-1" d="M130.42,22.93v-6.44c0-3.44-.99-4.02-3.07-4.02h-.68v13.2h1.62v.63h-6.8v-.63h1.07V.63h-1.07V0h5.95c4.34,0,7.15,1.98,7.15,6.47,0,3.95-2.4,5.34-5.36,5.7v.06c3.1,.48,5.25,1.75,5.25,6.4v6.04c0,.8,.26,1.02,.68,1.02,.27-.01,.53-.07,.78-.18v.63c-.58,.29-1.23,.43-1.88,.4-2.28-.02-3.64-.82-3.64-3.6ZM126.65,.63V11.85h.56c1.99,0,3.4,.15,3.4-4.68v-1.28c0-4.68-1.44-5.27-3.22-5.27h-.74Zm-13.47,25.68v-.63h1.07V.63h-1.07V0h6.28V.63h-1.11V25.67h1.11v.63h-6.28Zm-14.61-.63h1.18L104.84,0h1.77l5.11,25.67h.65v.63h-6.49v-.63h1.78l-1.48-7.42h-4.19l-1.49,7.42h2.11v.62h-4.01v-.63h0Zm3.51-8.04h3.97l-2-10.2-1.97,10.2Zm-14.17,8.67v-.63h1.07V.63h-1.07V0h11.6V7.87h-.63c-.33-5.56-2.04-7.24-4.91-7.24h-.89V12.4h.33c2.26,0,2.92-.92,3.14-4.53h.59v9.95h-.62c-.22-3.95-.88-4.76-2.96-4.76h-.52v12.62h1.62v.63h-6.77ZM72.33,.63V0h3.66V.63h-1l-3.4,13.49v11.56h1.22v.63h-6.54v-.62h1.22V14.19L63.64,.59h-.88V0h6.69V.63h-1.85l3.51,12.29,3.14-12.32-1.92,.03Zm-21.07,25.67v-.63h1.22V.55h-.07c-1.74,0-3.44,1.75-3.77,9.73h-.63V0h13.06V10.28h-.63c-.37-7.97-2.22-9.73-3.77-9.73h-.11V25.67h1.26v.63h-6.56Zm-11.71,0v-.63h1.18V.63h-1.2V0h6.5V.63h-1.22V25.67h1.22v.63h-6.48ZM36.71,.63V26.37h-1.22L26.72,1.86V25.66h1.74v.63h-3.4v-.63h.89V.63h-1.69V0h5.95l5.72,15.59V.64h-1.73V0h3.94V.63h-1.43ZM10.28,25.67h1.18L16.56,0h1.79l5.1,25.67h.6v.63h-6.46v-.63h1.77l-1.48-7.42h-4.21l-1.48,7.42h2.08v.63h-4v-.63Zm3.51-8.04h3.99l-2-10.2-1.99,10.2ZM12.67,.63L7.57,26.3h-1.77L.68,.63H0V0H6.54V.63h-1.78l3.59,18.14L11.93,.63h-2.1V0h4.02V.63h-1.18Z"/></svg>