<?xml version="1.0" encoding="UTF-8"?><svg id="Layer_1" xmlns="http://www.w3.org/2000/svg" viewBox="0 0 400 129.17"><defs><style>.cls-1{fill:#a682fa;fill-rule:evenodd;}</style></defs><path class="cls-1" d="M206.87,41.29c-.23,17.99,16.04,28.03,28.29,34,12.59,6.13,16.82,10.05,16.77,15.53-.1,8.38-10.04,12.08-19.35,12.23-16.24,.25-25.68-4.38-33.19-7.89l-5.85,27.37c7.53,3.47,21.48,6.5,35.94,6.63,33.94,0,56.15-16.76,56.27-42.74,.13-32.97-45.61-34.8-45.3-49.54,.11-4.47,4.37-9.24,13.72-10.45,4.62-.61,17.39-1.08,31.87,5.59l5.68-26.48c-7.78-2.84-17.79-5.55-30.24-5.55-31.95,0-54.42,16.98-54.6,41.29M346.31,2.28c-6.2,0-11.42,3.62-13.75,9.16l-48.49,115.78h33.92l6.75-18.65h41.45l3.92,18.65h29.9L373.91,2.28h-27.6Zm4.74,33.75l9.79,46.92h-26.81l17.02-46.92ZM165.74,2.28l-26.74,124.94h32.32L198.05,2.28h-32.31Zm-47.82,0l-33.64,85.04L70.67,15.01c-1.6-8.07-7.9-12.73-14.91-12.73H.77l-.77,3.63c11.29,2.45,24.12,6.4,31.89,10.63,4.76,2.58,6.11,4.84,7.68,10.98l25.78,99.71h34.16L151.87,2.28h-33.94Z"/></svg>